<svg width="173" height="19" viewBox="0 0 173 19" fill="none" xmlns="http://www.w3.org/2000/svg">
<path d="M0.636404 16.018C0.780404 13.102 0.852404 10.138 0.852404 7.126C0.852404 6.622 0.846404 6.07 0.834404 5.47C0.834404 4.858 0.828404 4.282 0.816404 3.742C0.816404 3.202 0.810404 2.77 0.798404 2.446C0.942404 2.422 1.1824 2.404 1.5184 2.392C1.8664 2.38 2.2444 2.374 2.6524 2.374C2.9764 2.374 3.2944 2.38 3.6064 2.392C3.9304 2.404 4.2064 2.422 4.4344 2.446C4.4104 3.19 4.3924 3.934 4.3804 4.678C4.3684 5.422 4.3564 6.13 4.3444 6.802C4.3444 7.462 4.3444 8.038 4.3444 8.53C4.3444 10.162 4.3624 11.578 4.3984 12.778C4.4464 13.978 4.5124 15.04 4.5964 15.964C3.9484 15.988 3.2884 16 2.6164 16C1.9564 16.012 1.2964 16.018 0.636404 16.018ZM8.37317 16.036C8.36117 15.784 8.34917 15.382 8.33717 14.83C8.33717 14.266 8.33117 13.594 8.31917 12.814C8.31917 12.034 8.31317 11.188 8.30117 10.276C8.30117 9.364 8.30117 8.428 8.30117 7.468H6.33917L6.23117 5.812H8.28317C8.28317 4.6 8.28317 3.454 8.28317 2.374C8.72717 2.374 9.24317 2.38 9.83117 2.392C10.4312 2.404 10.9472 2.422 11.3792 2.446C11.3792 3.478 11.3792 4.6 11.3792 5.812H13.4312L13.3232 7.468H11.3612C11.3612 8.404 11.3552 9.328 11.3432 10.24C11.3432 11.14 11.3372 11.974 11.3252 12.742C11.3252 13.51 11.3192 14.176 11.3072 14.74C11.3072 15.304 11.3012 15.712 11.2892 15.964C10.8812 15.988 10.4312 16.006 9.93917 16.018C9.44717 16.03 8.92517 16.036 8.37317 16.036ZM16.7065 6.208L15.9325 5.47L16.9045 4.426C16.6885 4.114 16.4305 3.79 16.1305 3.454C15.8305 3.118 15.4705 2.764 15.0505 2.392C15.3625 2.056 15.7105 1.726 16.0945 1.402C16.4785 1.066 16.8325 0.783999 17.1565 0.555999C17.5765 1.096 17.9725 1.642 18.3445 2.194C18.7165 2.746 19.0585 3.304 19.3705 3.868C18.9625 4.204 18.5245 4.576 18.0565 4.984C17.5885 5.392 17.1385 5.8 16.7065 6.208ZM25.2392 16.09C24.7472 16.09 24.1892 16.054 23.5652 15.982C22.9412 15.898 22.3232 15.796 21.7112 15.676C21.0992 15.544 20.5592 15.406 20.0912 15.262L20.8832 13.084C21.3392 13.348 21.8432 13.6 22.3952 13.84C22.9592 14.068 23.5112 14.254 24.0512 14.398C24.5912 14.542 25.0532 14.614 25.4372 14.614C25.9532 14.614 26.3312 14.5 26.5712 14.272C26.8112 14.032 26.9312 13.78 26.9312 13.516C26.9312 13.204 26.7992 12.946 26.5352 12.742C26.2712 12.526 25.9232 12.34 25.4912 12.184C25.0712 12.016 24.6152 11.86 24.1232 11.716C23.6792 11.584 23.2352 11.44 22.7912 11.284C22.3472 11.128 21.9392 10.948 21.5672 10.744C21.2072 10.528 20.9132 10.27 20.6852 9.97C20.4692 9.67 20.3612 9.31 20.3612 8.89C20.3612 8.35 20.5532 7.852 20.9372 7.396C21.3212 6.928 21.8672 6.55 22.5752 6.262C23.2832 5.974 24.1232 5.83 25.0952 5.83C25.8872 5.83 26.6852 5.932 27.4892 6.136C28.3052 6.34 29.0492 6.628 29.7212 7L28.7132 8.71C28.0532 8.29 27.4112 7.948 26.7872 7.684C26.1752 7.408 25.5932 7.27 25.0412 7.27C24.5132 7.27 24.1112 7.384 23.8352 7.612C23.5592 7.84 23.4212 8.074 23.4212 8.314C23.4212 8.542 23.5292 8.734 23.7452 8.89C23.9612 9.034 24.2492 9.16 24.6092 9.268C24.9812 9.376 25.3772 9.484 25.7972 9.592C26.2652 9.7 26.7452 9.832 27.2372 9.988C27.7292 10.132 28.1852 10.318 28.6052 10.546C29.0252 10.774 29.3612 11.068 29.6132 11.428C29.8652 11.776 29.9912 12.214 29.9912 12.742C29.9912 13.39 29.7872 13.966 29.3792 14.47C28.9712 14.974 28.4072 15.37 27.6872 15.658C26.9792 15.946 26.1632 16.09 25.2392 16.09ZM44.0085 16.09C43.3485 16.09 42.6645 16 41.9565 15.82C41.2605 15.64 40.5945 15.394 39.9585 15.082C39.3345 14.758 38.8065 14.392 38.3745 13.984C38.6505 13.588 38.9565 13.192 39.2925 12.796C39.6285 12.388 40.0005 11.986 40.4085 11.59C40.8765 12.094 41.3925 12.562 41.9565 12.994C42.5205 13.414 43.0845 13.756 43.6485 14.02C44.2245 14.284 44.7525 14.416 45.2325 14.416C45.6645 14.416 46.0485 14.302 46.3845 14.074C46.7325 13.834 46.9065 13.492 46.9065 13.048C46.9065 12.628 46.7445 12.256 46.4205 11.932C46.0965 11.596 45.6705 11.29 45.1425 11.014C44.6265 10.726 44.0745 10.444 43.4865 10.168C42.9705 9.928 42.4605 9.676 41.9565 9.412C41.4525 9.148 40.9905 8.86 40.5705 8.548C40.1625 8.236 39.8325 7.888 39.5805 7.504C39.3405 7.108 39.2205 6.664 39.2205 6.172C39.2205 5.68 39.3465 5.2 39.5985 4.732C39.8625 4.264 40.2285 3.844 40.6965 3.472C41.1645 3.088 41.7165 2.788 42.3525 2.572C43.0005 2.344 43.7085 2.23 44.4765 2.23C45.3525 2.23 46.2345 2.38 47.1225 2.68C48.0225 2.98 48.8025 3.412 49.4625 3.976C49.2465 4.384 48.9525 4.786 48.5805 5.182C48.2205 5.578 47.8665 5.914 47.5185 6.19C46.7865 5.494 46.0605 4.912 45.3405 4.444C44.6205 3.964 43.9425 3.724 43.3065 3.724C42.8385 3.724 42.4845 3.844 42.2445 4.084C42.0165 4.312 41.9025 4.558 41.9025 4.822C41.9025 5.11 42.0345 5.374 42.2985 5.614C42.5625 5.854 42.9105 6.088 43.3425 6.316C43.7745 6.544 44.2485 6.778 44.7645 7.018C45.3045 7.27 45.8505 7.54 46.4025 7.828C46.9665 8.116 47.4825 8.446 47.9505 8.818C48.4305 9.178 48.8145 9.592 49.1025 10.06C49.3905 10.528 49.5345 11.062 49.5345 11.662C49.5345 12.262 49.3845 12.832 49.0845 13.372C48.7965 13.9 48.3945 14.368 47.8785 14.776C47.3745 15.184 46.7865 15.508 46.1145 15.748C45.4545 15.976 44.7525 16.09 44.0085 16.09ZM53.9876 16.09C52.9676 16.09 52.1336 15.844 51.4856 15.352C50.8496 14.848 50.5316 14.194 50.5316 13.39C50.5316 12.658 50.7956 11.98 51.3236 11.356C51.8636 10.732 52.6076 10.204 53.5556 9.772C54.5036 9.328 55.5896 9.022 56.8136 8.854C56.3816 7.798 55.7876 7.27 55.0316 7.27C54.5756 7.27 53.9876 7.444 53.2676 7.792C52.5476 8.14 51.8156 8.596 51.0716 9.16L50.5316 7.36C52.3196 6.34 54.0116 5.83 55.6076 5.83C56.8556 5.83 57.8576 6.172 58.6136 6.856C59.3696 7.528 59.9216 8.608 60.2696 10.096C60.6176 11.572 60.7916 13.528 60.7916 15.964C60.5636 15.976 60.1556 15.988 59.5676 16C58.9916 16.024 58.3676 16.036 57.6956 16.036C57.6956 15.652 57.6896 15.274 57.6776 14.902C56.4416 15.694 55.2116 16.09 53.9876 16.09ZM53.5016 13.264C53.5016 13.636 53.6456 13.93 53.9336 14.146C54.2336 14.362 54.6296 14.47 55.1216 14.47C55.9856 14.47 56.8196 14.098 57.6236 13.354C57.5516 12.082 57.4136 11.008 57.2096 10.132C56.7416 10.228 56.2856 10.384 55.8416 10.6C55.4096 10.816 55.0136 11.074 54.6536 11.374C54.3056 11.662 54.0236 11.974 53.8076 12.31C53.6036 12.634 53.5016 12.952 53.5016 13.264ZM62.6844 16.036C62.6724 15.652 62.6604 15.124 62.6484 14.452C62.6364 13.768 62.6244 12.982 62.6124 12.094C62.6124 11.194 62.6064 10.228 62.5944 9.196C62.5944 8.152 62.5944 7.078 62.5944 5.974C62.8584 5.974 63.1824 5.98 63.5664 5.992C63.9504 5.992 64.3344 5.998 64.7184 6.01C65.1144 6.022 65.4384 6.034 65.6904 6.046C65.6904 6.346 65.6904 6.652 65.6904 6.964C66.7104 6.208 67.7484 5.83 68.8044 5.83C69.7764 5.83 70.5624 6.172 71.1624 6.856C71.7624 7.54 72.1944 8.632 72.4584 10.132C72.7344 11.632 72.8724 13.6 72.8724 16.036C72.5964 16.036 72.2664 16.03 71.8824 16.018C71.4984 16.018 71.1204 16.012 70.7484 16C70.3764 15.988 70.0524 15.976 69.7764 15.964C69.7764 13.84 69.7164 12.142 69.5964 10.87C69.4764 9.598 69.2784 8.68 69.0024 8.116C68.7264 7.552 68.3544 7.27 67.8864 7.27C67.5024 7.27 67.1124 7.432 66.7164 7.756C66.3204 8.08 65.9784 8.506 65.6904 9.034C65.6784 10.054 65.6664 11.02 65.6544 11.932C65.6544 12.844 65.6484 13.654 65.6364 14.362C65.6244 15.058 65.6124 15.592 65.6004 15.964C65.2284 15.976 64.7724 15.988 64.2324 16C63.7044 16.024 63.1884 16.036 62.6844 16.036ZM78.1258 16.09C77.3698 16.09 76.6858 15.874 76.0738 15.442C75.4738 15.01 74.9998 14.416 74.6518 13.66C74.3038 12.904 74.1298 12.052 74.1298 11.104C74.1298 10.12 74.3098 9.232 74.6698 8.44C75.0418 7.648 75.5398 7.018 76.1638 6.55C76.7878 6.07 77.4778 5.83 78.2338 5.83C78.9178 5.83 79.6378 6.028 80.3938 6.424C80.3938 4.828 80.3938 3.478 80.3938 2.374C80.6698 2.374 80.9938 2.38 81.3658 2.392C81.7498 2.392 82.1338 2.398 82.5178 2.41C82.9018 2.422 83.2258 2.434 83.4898 2.446C83.4898 3.058 83.4898 3.79 83.4898 4.642C83.4898 5.482 83.4838 6.382 83.4718 7.342C83.4718 8.302 83.4658 9.256 83.4538 10.204C83.4538 11.14 83.4478 12.016 83.4358 12.832C83.4358 13.648 83.4298 14.338 83.4178 14.902C83.4178 15.466 83.4118 15.844 83.3998 16.036C82.8838 16.036 82.3558 16.024 81.8158 16C81.2758 15.988 80.8318 15.976 80.4838 15.964C80.4838 15.808 80.4778 15.586 80.4658 15.298C79.7218 15.826 78.9418 16.09 78.1258 16.09ZM76.8478 10.528C76.8478 11.308 76.9378 12.01 77.1178 12.634C77.3098 13.246 77.5618 13.732 77.8738 14.092C78.1978 14.44 78.5578 14.614 78.9538 14.614C79.4938 14.614 79.9918 14.296 80.4478 13.66C80.4358 12.952 80.4238 12.154 80.4118 11.266C80.4118 10.366 80.4118 9.454 80.4118 8.53C80.2078 8.134 79.9498 7.828 79.6378 7.612C79.3378 7.384 79.0078 7.27 78.6478 7.27C78.0838 7.27 77.6398 7.558 77.3158 8.134C77.0038 8.698 76.8478 9.496 76.8478 10.528ZM88.4688 16.036C88.0248 16.036 87.5208 16.024 86.9568 16C86.4048 15.988 85.9368 15.976 85.5528 15.964C85.5408 15.688 85.5288 15.256 85.5168 14.668C85.5168 14.068 85.5108 13.366 85.4988 12.562C85.4988 11.758 85.4928 10.906 85.4808 10.006C85.4808 9.094 85.4748 8.182 85.4628 7.27C85.4628 6.346 85.4628 5.47 85.4628 4.642C85.4628 3.802 85.4628 3.07 85.4628 2.446C85.7268 2.434 86.0448 2.422 86.4168 2.41C86.7888 2.398 87.1668 2.392 87.5508 2.392C87.9468 2.38 88.2828 2.374 88.5588 2.374C88.5588 2.938 88.5588 3.598 88.5588 4.354C88.5588 5.098 88.5528 5.884 88.5408 6.712C88.9608 6.436 89.3988 6.22 89.8548 6.064C90.3228 5.908 90.7788 5.83 91.2228 5.83C92.6388 5.83 93.6828 6.652 94.3548 8.296C95.0268 9.94 95.3628 12.496 95.3628 15.964C95.0628 15.988 94.6788 16.006 94.2108 16.018C93.7428 16.03 93.0948 16.036 92.2668 16.036C92.2668 10.192 91.6368 7.27 90.3768 7.27C90.0648 7.27 89.7408 7.426 89.4048 7.738C89.0808 8.05 88.7928 8.452 88.5408 8.944C88.5288 9.772 88.5168 10.576 88.5048 11.356C88.5048 12.124 88.4988 12.832 88.4868 13.48C88.4868 14.128 88.4808 14.68 88.4688 15.136C88.4688 15.58 88.4688 15.88 88.4688 16.036ZM96.8 18.376L96.62 16.684C97.256 16.648 97.826 16.564 98.33 16.432C98.846 16.312 99.314 16.12 99.734 15.856C99.23 14.848 98.72 13.774 98.204 12.634C97.688 11.494 97.196 10.372 96.728 9.268C96.272 8.152 95.876 7.132 95.54 6.208C95.972 6.136 96.512 6.064 97.16 5.992C97.808 5.92 98.444 5.86 99.068 5.812C99.368 6.736 99.764 7.846 100.256 9.142C100.748 10.438 101.282 11.8 101.858 13.228C102.254 12.424 102.632 11.422 102.992 10.222C103.352 9.022 103.742 7.576 104.162 5.884L106.34 6.136C105.752 8.296 105.134 10.144 104.486 11.68C103.85 13.204 103.154 14.452 102.398 15.424C101.654 16.396 100.82 17.116 99.896 17.584C98.972 18.052 97.94 18.316 96.8 18.376ZM110.698 16.09C109.678 16.09 108.844 15.844 108.196 15.352C107.56 14.848 107.242 14.194 107.242 13.39C107.242 12.658 107.506 11.98 108.034 11.356C108.574 10.732 109.318 10.204 110.266 9.772C111.214 9.328 112.3 9.022 113.524 8.854C113.092 7.798 112.498 7.27 111.742 7.27C111.286 7.27 110.698 7.444 109.978 7.792C109.258 8.14 108.526 8.596 107.782 9.16L107.242 7.36C109.03 6.34 110.722 5.83 112.318 5.83C113.566 5.83 114.568 6.172 115.324 6.856C116.08 7.528 116.632 8.608 116.98 10.096C117.328 11.572 117.502 13.528 117.502 15.964C117.274 15.976 116.866 15.988 116.278 16C115.702 16.024 115.078 16.036 114.406 16.036C114.406 15.652 114.4 15.274 114.388 14.902C113.152 15.694 111.922 16.09 110.698 16.09ZM110.212 13.264C110.212 13.636 110.356 13.93 110.644 14.146C110.944 14.362 111.34 14.47 111.832 14.47C112.696 14.47 113.53 14.098 114.334 13.354C114.262 12.082 114.124 11.008 113.92 10.132C113.452 10.228 112.996 10.384 112.552 10.6C112.12 10.816 111.724 11.074 111.364 11.374C111.016 11.662 110.734 11.974 110.518 12.31C110.314 12.634 110.212 12.952 110.212 13.264ZM134.355 16.036C134.055 16.036 133.683 16.03 133.239 16.018C132.807 16.018 132.363 16.012 131.907 16C131.463 15.988 131.073 15.976 130.737 15.964C130.737 15.424 130.737 14.764 130.737 13.984C130.749 13.192 130.755 12.346 130.755 11.446C130.767 10.534 130.773 9.628 130.773 8.728C130.785 7.816 130.797 6.964 130.809 6.172C130.821 5.368 130.833 4.684 130.845 4.12C129.945 4.132 129.069 4.144 128.217 4.156C127.365 4.156 126.585 4.156 125.877 4.156L125.949 2.356C126.717 2.356 127.545 2.362 128.433 2.374C129.321 2.374 130.227 2.38 131.151 2.392C132.075 2.392 132.969 2.398 133.833 2.41C134.709 2.41 135.513 2.416 136.245 2.428C136.977 2.428 137.595 2.434 138.099 2.446C138.615 2.446 138.963 2.452 139.143 2.464L139.197 3.976C138.537 4 137.781 4.024 136.929 4.048C136.077 4.06 135.183 4.072 134.247 4.084C134.259 4.624 134.271 5.272 134.283 6.028C134.295 6.784 134.301 7.606 134.301 8.494C134.313 9.37 134.319 10.258 134.319 11.158C134.331 12.058 134.337 12.928 134.337 13.768C134.349 14.608 134.355 15.364 134.355 16.036ZM140.557 4.75V2.32H143.617V4.75H140.557ZM140.629 16.036C140.617 15.64 140.605 15.106 140.593 14.434C140.581 13.75 140.569 12.97 140.557 12.094C140.557 11.206 140.551 10.258 140.539 9.25C140.539 8.242 140.539 7.21 140.539 6.154C141.079 6.154 141.643 6.16 142.231 6.172C142.831 6.184 143.299 6.202 143.635 6.226C143.635 7.102 143.629 8.02 143.617 8.98C143.617 9.94 143.611 10.876 143.599 11.788C143.599 12.688 143.593 13.504 143.581 14.236C143.569 14.968 143.557 15.544 143.545 15.964C142.993 15.988 142.465 16.006 141.961 16.018C141.457 16.03 141.013 16.036 140.629 16.036ZM148.724 16.036C148.46 16.036 148.136 16.03 147.752 16.018C147.368 16.018 146.996 16.012 146.636 16C146.288 15.988 146.012 15.976 145.808 15.964C145.808 14.464 145.808 13.048 145.808 11.716C145.82 10.384 145.832 9.22 145.844 8.224C145.868 7.216 145.886 6.466 145.898 5.974C146.282 5.974 146.732 5.98 147.248 5.992C147.764 6.004 148.226 6.022 148.634 6.046C148.646 6.298 148.658 6.64 148.67 7.072C149.654 6.244 150.638 5.83 151.622 5.83C152.126 5.83 152.564 5.938 152.936 6.154C153.308 6.37 153.62 6.718 153.872 7.198C154.82 6.286 155.852 5.83 156.968 5.83C158.252 5.83 159.2 6.496 159.812 7.828C160.436 9.16 160.748 11.212 160.748 13.984C160.748 14.308 160.742 14.626 160.73 14.938C160.73 15.238 160.718 15.568 160.694 15.928C160.358 15.976 159.908 16.012 159.344 16.036C158.78 16.06 158.198 16.072 157.598 16.072C157.634 15.568 157.658 15.028 157.67 14.452C157.694 13.876 157.706 13.306 157.706 12.742C157.706 10.882 157.592 9.508 157.364 8.62C157.148 7.72 156.812 7.27 156.356 7.27C156.044 7.27 155.702 7.456 155.33 7.828C154.97 8.2 154.682 8.662 154.466 9.214C154.562 9.778 154.628 10.432 154.664 11.176C154.712 11.908 154.736 12.73 154.736 13.642C154.736 14.434 154.718 15.208 154.682 15.964C154.442 15.976 154.136 15.988 153.764 16C153.404 16.012 153.026 16.018 152.63 16.018C152.246 16.03 151.898 16.036 151.586 16.036C151.622 15.4 151.646 14.716 151.658 13.984C151.682 13.252 151.694 12.556 151.694 11.896C151.694 10.756 151.658 9.85 151.586 9.178C151.526 8.494 151.418 8.008 151.262 7.72C151.118 7.42 150.914 7.27 150.65 7.27C150.326 7.27 149.978 7.462 149.606 7.846C149.246 8.23 148.94 8.704 148.688 9.268C148.7 10.192 148.706 11.236 148.706 12.4C148.718 13.552 148.724 14.764 148.724 16.036ZM167.131 16.09C166.159 16.09 165.283 15.868 164.503 15.424C163.735 14.968 163.123 14.356 162.667 13.588C162.223 12.808 162.001 11.926 162.001 10.942C162.001 9.958 162.217 9.082 162.649 8.314C163.093 7.546 163.693 6.94 164.449 6.496C165.217 6.052 166.087 5.83 167.059 5.83C167.971 5.83 168.787 6.034 169.507 6.442C170.239 6.838 170.827 7.396 171.271 8.116C171.727 8.836 171.997 9.682 172.081 10.654L164.935 11.986C165.163 12.766 165.523 13.402 166.015 13.894C166.507 14.374 167.059 14.614 167.671 14.614C168.235 14.614 168.793 14.422 169.345 14.038C169.897 13.642 170.323 13.138 170.623 12.526L171.901 13.606C171.313 14.398 170.605 15.01 169.777 15.442C168.949 15.874 168.067 16.09 167.131 16.09ZM164.701 10.222C164.701 10.294 164.701 10.354 164.701 10.402L168.895 9.826C168.811 9.058 168.565 8.44 168.157 7.972C167.749 7.504 167.251 7.27 166.663 7.27C166.051 7.27 165.571 7.534 165.223 8.062C164.875 8.578 164.701 9.298 164.701 10.222Z" fill="white"/>
</svg>
