<svg width="93" height="56" viewBox="0 0 93 56" fill="none" xmlns="http://www.w3.org/2000/svg">
<path d="M18.139 28C18.139 12.536 30.675 0 46.139 0C61.603 0 74.139 12.536 74.139 28C74.139 43.464 61.603 56 46.139 56C30.675 56 18.139 43.464 18.139 28Z" fill="#BB5F2A"/>
<path d="M62.239 5.25C57.9111 8.5228 52.2868 10.5 46.139 10.5C39.9912 10.5 34.3669 8.5228 30.039 5.25C34.3669 1.9772 39.9912 0 46.139 0C52.2868 0 57.9111 1.9772 62.239 5.25Z" fill="#762A00"/>
<rect opacity="0.2" x="30.739" y="24.5" width="30.8" height="30.8" rx="15.4" fill="white"/>
<rect opacity="0.2" x="36.689" y="36.75" width="18.9" height="18.9" rx="9.45" fill="white"/>
<path d="M6.573 28.455C5.803 28.455 5.005 28.35 4.179 28.14C3.367 27.93 2.59 27.643 1.848 27.279C1.12 26.901 0.504 26.474 0 25.998C0.322 25.536 0.679 25.074 1.071 24.612C1.463 24.136 1.897 23.667 2.373 23.205C2.919 23.793 3.521 24.339 4.179 24.843C4.837 25.333 5.495 25.732 6.153 26.04C6.825 26.348 7.441 26.502 8.001 26.502C8.505 26.502 8.953 26.369 9.345 26.103C9.751 25.823 9.954 25.424 9.954 24.906C9.954 24.416 9.765 23.982 9.387 23.604C9.009 23.212 8.512 22.855 7.896 22.533C7.294 22.197 6.65 21.868 5.964 21.546C5.362 21.266 4.767 20.972 4.179 20.664C3.591 20.356 3.052 20.02 2.562 19.656C2.086 19.292 1.701 18.886 1.407 18.438C1.127 17.976 0.987 17.458 0.987 16.884C0.987 16.31 1.134 15.75 1.428 15.204C1.736 14.658 2.163 14.168 2.709 13.734C3.255 13.286 3.899 12.936 4.641 12.684C5.397 12.418 6.223 12.285 7.119 12.285C8.141 12.285 9.17 12.46 10.206 12.81C11.256 13.16 12.166 13.664 12.936 14.322C12.684 14.798 12.341 15.267 11.907 15.729C11.487 16.191 11.074 16.583 10.668 16.905C9.814 16.093 8.967 15.414 8.127 14.868C7.287 14.308 6.496 14.028 5.754 14.028C5.208 14.028 4.795 14.168 4.515 14.448C4.249 14.714 4.116 15.001 4.116 15.309C4.116 15.645 4.27 15.953 4.578 16.233C4.886 16.513 5.292 16.786 5.796 17.052C6.3 17.318 6.853 17.591 7.455 17.871C8.085 18.165 8.722 18.48 9.366 18.816C10.024 19.152 10.626 19.537 11.172 19.971C11.732 20.391 12.18 20.874 12.516 21.42C12.852 21.966 13.02 22.589 13.02 23.289C13.02 23.989 12.845 24.654 12.495 25.284C12.159 25.9 11.69 26.446 11.088 26.922C10.5 27.398 9.814 27.776 9.03 28.056C8.26 28.322 7.441 28.455 6.573 28.455Z" fill="white"/>
<path d="M18.2152 28.455C17.0252 28.455 16.0522 28.168 15.2962 27.594C14.5542 27.006 14.1832 26.243 14.1832 25.305C14.1832 24.451 14.4912 23.66 15.1072 22.932C15.7372 22.204 16.6052 21.588 17.7112 21.084C18.8172 20.566 20.0842 20.209 21.5122 20.013C21.0082 18.781 20.3152 18.165 19.4332 18.165C18.9012 18.165 18.2152 18.368 17.3752 18.774C16.5352 19.18 15.6812 19.712 14.8132 20.37L14.1832 18.27C16.2692 17.08 18.2432 16.485 20.1052 16.485C21.5612 16.485 22.7302 16.884 23.6122 17.682C24.4942 18.466 25.1382 19.726 25.5442 21.462C25.9502 23.184 26.1532 25.466 26.1532 28.308C25.8872 28.322 25.4112 28.336 24.7252 28.35C24.0532 28.378 23.3252 28.392 22.5412 28.392C22.5412 27.944 22.5342 27.503 22.5202 27.069C21.0782 27.993 19.6432 28.455 18.2152 28.455ZM17.6482 25.158C17.6482 25.592 17.8162 25.935 18.1522 26.187C18.5022 26.439 18.9642 26.565 19.5382 26.565C20.5462 26.565 21.5192 26.131 22.4572 25.263C22.3732 23.779 22.2122 22.526 21.9742 21.504C21.4282 21.616 20.8962 21.798 20.3782 22.05C19.8742 22.302 19.4122 22.603 18.9922 22.953C18.5862 23.289 18.2572 23.653 18.0052 24.045C17.7672 24.423 17.6482 24.794 17.6482 25.158Z" fill="white"/>
<path d="M28.3615 28.392C28.3475 27.944 28.3335 27.328 28.3195 26.544C28.3055 25.746 28.2915 24.829 28.2775 23.793C28.2775 22.743 28.2705 21.616 28.2565 20.412C28.2565 19.194 28.2565 17.941 28.2565 16.653C28.5645 16.653 28.9425 16.66 29.3905 16.674C29.8385 16.674 30.2865 16.681 30.7345 16.695C31.1965 16.709 31.5745 16.723 31.8685 16.737C31.8685 17.087 31.8685 17.444 31.8685 17.808C33.0585 16.926 34.2695 16.485 35.5015 16.485C36.6355 16.485 37.5525 16.884 38.2525 17.682C38.9525 18.48 39.4565 19.754 39.7645 21.504C40.0865 23.254 40.2475 25.55 40.2475 28.392C39.9255 28.392 39.5405 28.385 39.0925 28.371C38.6445 28.371 38.2035 28.364 37.7695 28.35C37.3355 28.336 36.9575 28.322 36.6355 28.308C36.6355 25.83 36.5655 23.849 36.4255 22.365C36.2855 20.881 36.0545 19.81 35.7325 19.152C35.4105 18.494 34.9765 18.165 34.4305 18.165C33.9825 18.165 33.5275 18.354 33.0655 18.732C32.6035 19.11 32.2045 19.607 31.8685 20.223C31.8545 21.413 31.8405 22.54 31.8265 23.604C31.8265 24.668 31.8195 25.613 31.8055 26.439C31.7915 27.251 31.7775 27.874 31.7635 28.308C31.3295 28.322 30.7975 28.336 30.1675 28.35C29.5515 28.378 28.9495 28.392 28.3615 28.392Z" fill="white"/>
<path d="M46.3765 28.455C45.4945 28.455 44.6965 28.203 43.9825 27.699C43.2825 27.195 42.7295 26.502 42.3235 25.62C41.9175 24.738 41.7145 23.744 41.7145 22.638C41.7145 21.49 41.9245 20.454 42.3445 19.53C42.7785 18.606 43.3595 17.871 44.0875 17.325C44.8155 16.765 45.6205 16.485 46.5025 16.485C47.3005 16.485 48.1405 16.716 49.0225 17.178C49.0225 15.316 49.0225 13.741 49.0225 12.453C49.3445 12.453 49.7225 12.46 50.1565 12.474C50.6045 12.474 51.0525 12.481 51.5005 12.495C51.9485 12.509 52.3265 12.523 52.6345 12.537C52.6345 13.251 52.6345 14.105 52.6345 15.099C52.6345 16.079 52.6275 17.129 52.6135 18.249C52.6135 19.369 52.6065 20.482 52.5925 21.588C52.5925 22.68 52.5855 23.702 52.5715 24.654C52.5715 25.606 52.5645 26.411 52.5505 27.069C52.5505 27.727 52.5435 28.168 52.5295 28.392C51.9275 28.392 51.3115 28.378 50.6815 28.35C50.0515 28.336 49.5335 28.322 49.1275 28.308C49.1275 28.126 49.1205 27.867 49.1065 27.531C48.2385 28.147 47.3285 28.455 46.3765 28.455ZM44.8855 21.966C44.8855 22.876 44.9905 23.695 45.2005 24.423C45.4245 25.137 45.7185 25.704 46.0825 26.124C46.4605 26.53 46.8805 26.733 47.3425 26.733C47.9725 26.733 48.5535 26.362 49.0855 25.62C49.0715 24.794 49.0575 23.863 49.0435 22.827C49.0435 21.777 49.0435 20.713 49.0435 19.635C48.8055 19.173 48.5045 18.816 48.1405 18.564C47.7905 18.298 47.4055 18.165 46.9855 18.165C46.3275 18.165 45.8095 18.501 45.4315 19.173C45.0675 19.831 44.8855 20.762 44.8855 21.966Z" fill="white"/>
<path d="M58.4433 28.392C57.9253 28.392 57.3373 28.378 56.6793 28.35C56.0353 28.336 55.4893 28.322 55.0413 28.308C55.0273 27.986 55.0133 27.482 54.9993 26.796C54.9993 26.096 54.9923 25.277 54.9783 24.339C54.9783 23.401 54.9713 22.407 54.9573 21.357C54.9573 20.293 54.9503 19.229 54.9363 18.165C54.9363 17.087 54.9363 16.065 54.9363 15.099C54.9363 14.119 54.9363 13.265 54.9363 12.537C55.2443 12.523 55.6153 12.509 56.0493 12.495C56.4833 12.481 56.9243 12.474 57.3723 12.474C57.8343 12.46 58.2263 12.453 58.5483 12.453C58.5483 13.111 58.5483 13.881 58.5483 14.763C58.5483 15.631 58.5413 16.548 58.5273 17.514C59.0173 17.192 59.5283 16.94 60.0603 16.758C60.6063 16.576 61.1383 16.485 61.6563 16.485C63.3083 16.485 64.5263 17.444 65.3103 19.362C66.0943 21.28 66.4863 24.262 66.4863 28.308C66.1363 28.336 65.6883 28.357 65.1423 28.371C64.5963 28.385 63.8403 28.392 62.8743 28.392C62.8743 21.574 62.1393 18.165 60.6693 18.165C60.3053 18.165 59.9273 18.347 59.5353 18.711C59.1573 19.075 58.8213 19.544 58.5273 20.118C58.5133 21.084 58.4993 22.022 58.4853 22.932C58.4853 23.828 58.4783 24.654 58.4643 25.41C58.4643 26.166 58.4573 26.81 58.4433 27.342C58.4433 27.86 58.4433 28.21 58.4433 28.392Z" fill="white"/>
<path d="M68.163 31.122L67.953 29.148C68.695 29.106 69.36 29.008 69.948 28.854C70.55 28.714 71.096 28.49 71.5861 28.182C70.998 27.006 70.403 25.753 69.801 24.423C69.199 23.093 68.625 21.784 68.079 20.496C67.5471 19.194 67.085 18.004 66.693 16.926C67.197 16.842 67.827 16.758 68.583 16.674C69.3391 16.59 70.081 16.52 70.8091 16.464C71.159 17.542 71.621 18.837 72.195 20.349C72.769 21.861 73.392 23.45 74.064 25.116C74.526 24.178 74.967 23.009 75.387 21.609C75.807 20.209 76.262 18.522 76.752 16.548L79.293 16.842C78.607 19.362 77.886 21.518 77.1301 23.31C76.388 25.088 75.576 26.544 74.694 27.678C73.826 28.812 72.853 29.652 71.775 30.198C70.697 30.744 69.493 31.052 68.163 31.122Z" fill="white"/>
<path d="M84.3775 28.455C83.1875 28.455 82.2145 28.168 81.4585 27.594C80.7165 27.006 80.3455 26.243 80.3455 25.305C80.3455 24.451 80.6535 23.66 81.2695 22.932C81.8995 22.204 82.7675 21.588 83.8735 21.084C84.9795 20.566 86.2465 20.209 87.6745 20.013C87.1705 18.781 86.4775 18.165 85.5955 18.165C85.0635 18.165 84.3775 18.368 83.5375 18.774C82.6975 19.18 81.8435 19.712 80.9755 20.37L80.3455 18.27C82.4315 17.08 84.4055 16.485 86.2675 16.485C87.7235 16.485 88.8925 16.884 89.7745 17.682C90.6565 18.466 91.3005 19.726 91.7065 21.462C92.1125 23.184 92.3155 25.466 92.3155 28.308C92.0495 28.322 91.5735 28.336 90.8875 28.35C90.2155 28.378 89.4875 28.392 88.7035 28.392C88.7035 27.944 88.6965 27.503 88.6825 27.069C87.2405 27.993 85.8055 28.455 84.3775 28.455ZM83.8105 25.158C83.8105 25.592 83.9785 25.935 84.3145 26.187C84.6645 26.439 85.1265 26.565 85.7005 26.565C86.7085 26.565 87.6815 26.131 88.6195 25.263C88.5355 23.779 88.3745 22.526 88.1365 21.504C87.5905 21.616 87.0585 21.798 86.5405 22.05C86.0365 22.302 85.5745 22.603 85.1545 22.953C84.7485 23.289 84.4195 23.653 84.1675 24.045C83.9295 24.423 83.8105 24.794 83.8105 25.158Z" fill="white"/>
<path d="M29.0937 48.342C28.7437 48.342 28.3097 48.335 27.7917 48.321C27.2877 48.321 26.7697 48.314 26.2377 48.3C25.7197 48.286 25.2647 48.272 24.8727 48.258C24.8727 47.628 24.8727 46.858 24.8727 45.948C24.8867 45.024 24.8937 44.037 24.8937 42.987C24.9077 41.923 24.9147 40.866 24.9147 39.816C24.9287 38.752 24.9427 37.758 24.9567 36.834C24.9707 35.896 24.9847 35.098 24.9987 34.44C23.9487 34.454 22.9267 34.468 21.9327 34.482C20.9387 34.482 20.0287 34.482 19.2027 34.482L19.2867 32.382C20.1827 32.382 21.1487 32.389 22.1847 32.403C23.2207 32.403 24.2777 32.41 25.3557 32.424C26.4337 32.424 27.4767 32.431 28.4847 32.445C29.5067 32.445 30.4447 32.452 31.2987 32.466C32.1527 32.466 32.8737 32.473 33.4617 32.487C34.0637 32.487 34.4697 32.494 34.6797 32.508L34.7427 34.272C33.9727 34.3 33.0907 34.328 32.0967 34.356C31.1027 34.37 30.0597 34.384 28.9677 34.398C28.9817 35.028 28.9957 35.784 29.0097 36.666C29.0237 37.548 29.0307 38.507 29.0307 39.543C29.0447 40.565 29.0517 41.601 29.0517 42.651C29.0657 43.701 29.0727 44.716 29.0727 45.696C29.0867 46.676 29.0937 47.558 29.0937 48.342Z" fill="white"/>
<path d="M36.3289 35.175V32.34H39.8988V35.175H36.3289ZM36.4129 48.342C36.3989 47.88 36.3848 47.257 36.3708 46.473C36.3568 45.675 36.3429 44.765 36.3289 43.743C36.3289 42.707 36.3218 41.601 36.3078 40.425C36.3078 39.249 36.3078 38.045 36.3078 36.813C36.9379 36.813 37.5959 36.82 38.2818 36.834C38.9818 36.848 39.5279 36.869 39.9198 36.897C39.9198 37.919 39.9128 38.99 39.8988 40.11C39.8988 41.23 39.8919 42.322 39.8779 43.386C39.8779 44.436 39.8708 45.388 39.8568 46.242C39.8428 47.096 39.8289 47.768 39.8149 48.258C39.1709 48.286 38.5549 48.307 37.9669 48.321C37.3789 48.335 36.8609 48.342 36.4129 48.342Z" fill="white"/>
<path d="M45.8573 48.342C45.5493 48.342 45.1713 48.335 44.7233 48.321C44.2753 48.321 43.8413 48.314 43.4213 48.3C43.0153 48.286 42.6933 48.272 42.4553 48.258C42.4553 46.508 42.4553 44.856 42.4553 43.302C42.4693 41.748 42.4833 40.39 42.4973 39.228C42.5253 38.052 42.5463 37.177 42.5603 36.603C43.0083 36.603 43.5333 36.61 44.1353 36.624C44.7373 36.638 45.2763 36.659 45.7523 36.687C45.7663 36.981 45.7803 37.38 45.7943 37.884C46.9423 36.918 48.0903 36.435 49.2383 36.435C49.8263 36.435 50.3373 36.561 50.7713 36.813C51.2053 37.065 51.5693 37.471 51.8633 38.031C52.9693 36.967 54.1733 36.435 55.4753 36.435C56.9733 36.435 58.0793 37.212 58.7933 38.766C59.5213 40.32 59.8853 42.714 59.8853 45.948C59.8853 46.326 59.8783 46.697 59.8643 47.061C59.8643 47.411 59.8503 47.796 59.8223 48.216C59.4303 48.272 58.9053 48.314 58.2473 48.342C57.5893 48.37 56.9103 48.384 56.2103 48.384C56.2523 47.796 56.2803 47.166 56.2943 46.494C56.3223 45.822 56.3363 45.157 56.3363 44.499C56.3363 42.329 56.2033 40.726 55.9373 39.69C55.6853 38.64 55.2933 38.115 54.7613 38.115C54.3973 38.115 53.9983 38.332 53.5643 38.766C53.1443 39.2 52.8083 39.739 52.5563 40.383C52.6683 41.041 52.7453 41.804 52.7873 42.672C52.8433 43.526 52.8713 44.485 52.8713 45.549C52.8713 46.473 52.8503 47.376 52.8083 48.258C52.5283 48.272 52.1713 48.286 51.7373 48.3C51.3173 48.314 50.8763 48.321 50.4143 48.321C49.9663 48.335 49.5603 48.342 49.1963 48.342C49.2383 47.6 49.2663 46.802 49.2803 45.948C49.3083 45.094 49.3223 44.282 49.3223 43.512C49.3223 42.182 49.2803 41.125 49.1963 40.341C49.1263 39.543 49.0003 38.976 48.8183 38.64C48.6503 38.29 48.4123 38.115 48.1043 38.115C47.7263 38.115 47.3203 38.339 46.8863 38.787C46.4663 39.235 46.1093 39.788 45.8153 40.446C45.8293 41.524 45.8363 42.742 45.8363 44.1C45.8503 45.444 45.8573 46.858 45.8573 48.342Z" fill="white"/>
<path d="M67.3329 48.405C66.1989 48.405 65.1769 48.146 64.2669 47.628C63.3709 47.096 62.6569 46.382 62.1249 45.486C61.6069 44.576 61.3479 43.547 61.3479 42.399C61.3479 41.251 61.5999 40.229 62.1039 39.333C62.6219 38.437 63.3219 37.73 64.2039 37.212C65.0999 36.694 66.1149 36.435 67.2489 36.435C68.3129 36.435 69.2649 36.673 70.1049 37.149C70.9589 37.611 71.6449 38.262 72.1629 39.102C72.6949 39.942 73.0099 40.929 73.1079 42.063L64.7709 43.617C65.0369 44.527 65.4569 45.269 66.0309 45.843C66.6049 46.403 67.2489 46.683 67.9629 46.683C68.6209 46.683 69.2719 46.459 69.9159 46.011C70.5599 45.549 71.0569 44.961 71.4069 44.247L72.8979 45.507C72.2119 46.431 71.3859 47.145 70.4199 47.649C69.4539 48.153 68.4249 48.405 67.3329 48.405ZM64.4979 41.559C64.4979 41.643 64.4979 41.713 64.4979 41.769L69.3909 41.097C69.2929 40.201 69.0059 39.48 68.5299 38.934C68.0539 38.388 67.4729 38.115 66.7869 38.115C66.0729 38.115 65.5129 38.423 65.1069 39.039C64.7009 39.641 64.4979 40.481 64.4979 41.559Z" fill="white"/>
<path d="M42.3764 7.69998V4.26361H43.4704V7.69998H42.3764ZM42.9245 3.86315C42.7709 3.86315 42.6389 3.81244 42.5285 3.71102C42.4182 3.60811 42.363 3.48432 42.363 3.33964C42.363 3.19646 42.4182 3.07416 42.5285 2.97274C42.6389 2.86983 42.7709 2.81837 42.9245 2.81837C43.0796 2.81837 43.2116 2.86983 43.3205 2.97274C43.4309 3.07416 43.4861 3.19646 43.4861 3.33964C43.4861 3.48432 43.4309 3.60811 43.3205 3.71102C43.2116 3.81244 43.0796 3.86315 42.9245 3.86315Z" fill="white"/>
<path d="M46.1064 4.26361V5.06901H43.9385V4.26361H46.1064ZM44.3927 3.44032H45.4867V6.6194C45.4867 6.68652 45.4971 6.74096 45.518 6.78272C45.5404 6.82299 45.5725 6.85207 45.6142 6.86997C45.656 6.88638 45.7059 6.89458 45.7641 6.89458C45.8059 6.89458 45.8499 6.89085 45.8961 6.88339C45.9438 6.87444 45.9796 6.86699 46.0035 6.86102L46.1691 7.65076C46.1168 7.66567 46.043 7.68432 45.9476 7.70669C45.8536 7.72906 45.741 7.74323 45.6097 7.7492C45.3532 7.76113 45.1332 7.7313 44.9498 7.65971C44.7678 7.58662 44.6284 7.47327 44.5314 7.31965C44.436 7.16603 44.3897 6.97288 44.3927 6.74021V3.44032Z" fill="white"/>
<path d="M49.6216 5.31287L48.6171 5.33971C48.6067 5.26812 48.5783 5.20473 48.5321 5.14955C48.4859 5.09287 48.4255 5.04888 48.3509 5.01755C48.2778 4.98474 48.1928 4.96834 48.0959 4.96834C47.9691 4.96834 47.8609 4.99369 47.7715 5.0444C47.6835 5.09511 47.6402 5.16372 47.6417 5.25022C47.6402 5.31734 47.6671 5.37551 47.7222 5.42473C47.7789 5.47395 47.8796 5.51347 48.0243 5.5433L48.6865 5.66858C49.0295 5.73421 49.2846 5.84309 49.4516 5.99522C49.6201 6.14735 49.7052 6.3487 49.7066 6.59927C49.7052 6.83492 49.6351 7.04 49.4964 7.2145C49.3591 7.389 49.1712 7.52473 48.9326 7.62167C48.6939 7.71713 48.421 7.76486 48.1138 7.76486C47.6231 7.76486 47.236 7.66418 46.9526 7.46283C46.6707 7.25999 46.5097 6.98854 46.4694 6.64848L47.55 6.62164C47.5738 6.74692 47.6357 6.84238 47.7357 6.908C47.8356 6.97363 47.9631 7.00644 48.1182 7.00644C48.2584 7.00644 48.3725 6.98034 48.4605 6.92814C48.5485 6.87594 48.5933 6.80658 48.5948 6.72008C48.5933 6.64252 48.559 6.58062 48.4918 6.53439C48.4247 6.48666 48.3196 6.44937 48.1764 6.42253L47.5768 6.30843C47.2323 6.24579 46.9758 6.1302 46.8072 5.96166C46.6387 5.79163 46.5552 5.57537 46.5566 5.31287C46.5552 5.08318 46.6163 4.88705 46.7401 4.72448C46.8639 4.56042 47.0399 4.43513 47.2681 4.34863C47.4963 4.26212 47.7655 4.21887 48.0757 4.21887C48.5411 4.21887 48.908 4.31656 49.1764 4.51194C49.4449 4.70584 49.5933 4.97281 49.6216 5.31287Z" fill="white"/>
</svg>
