<svg width="177" height="682" viewBox="0 0 177 682" fill="none" xmlns="http://www.w3.org/2000/svg">
<g style="mix-blend-mode:color-burn">
<g opacity="0.2">
<path d="M170.826 166.739C183.377 146.988 170.826 13.2002 170.826 13.2002C167.237 -34.4045 2.88755 67.0808 8.28203 82.3401C13.6765 97.5994 158.253 186.511 170.826 166.739Z" fill="#BB5F2A"/>
<path d="M170.826 215.246C178.004 205.36 86.4055 168.544 70.2436 153.908C54.0816 139.272 12.774 117.35 8.1532 123.647C6.75622 125.538 7.35795 128.548 8.86239 131.857C12.9674 140.862 21.2634 147.159 30.8058 149.867C66.504 159.947 164.4 224.058 170.826 215.246Z" fill="#BB5F2A"/>
<path d="M128.165 231.623C145.229 232.526 149.721 243.53 149.721 243.53C149.721 243.53 152.128 246.796 155.459 249.182C161.563 253.566 168.569 244.798 163.11 239.64C159.457 236.18 154.148 232.075 147.013 228.7C131.754 221.522 45.0981 170.349 30.7199 171.682C16.3633 173.036 5.38088 155.627 7.35814 174.39C8.15334 181.783 52.4699 181.955 70.8885 198.998C89.2856 216.063 89.2856 216.063 89.2856 216.063C89.2856 216.063 111.1 230.72 128.165 231.623Z" fill="#BB5F2A"/>
<path d="M170.826 378.585C164.4 369.774 66.504 433.863 30.8058 443.964C21.2634 446.65 12.9674 452.948 8.86239 461.974C7.35795 465.263 6.75622 468.293 8.1532 470.163C12.774 476.46 54.0816 454.538 70.2436 439.902C86.4055 425.266 178.004 388.45 170.826 378.585Z" fill="#BB5F2A"/>
<path d="M30.7199 422.128C45.0981 423.482 131.754 372.288 147.013 365.109C154.148 361.757 159.457 357.63 163.11 354.192C168.569 349.034 161.563 340.243 155.459 344.628C152.128 347.035 149.721 350.301 149.721 350.301C149.721 350.301 145.229 361.284 128.165 362.187C111.1 363.089 89.2856 377.747 89.2856 377.747C89.2856 377.747 89.2856 377.747 70.8885 394.812C52.4699 411.876 8.15334 412.026 7.35814 419.441C5.38088 438.182 16.3633 420.774 30.7199 422.128Z" fill="#BB5F2A"/>
<path d="M120.083 321.202C120.083 321.202 116.709 321.202 98.1832 320.192C84.6862 319.461 58.638 338.245 45.5279 348.475C40.2194 352.602 33.6642 354.772 26.9157 354.579L25.1105 354.536C12.6667 354.192 7.61592 313.465 14.3429 259.241C21.0699 205.016 63.1727 247.785 82.0212 256.877C94.9164 263.088 117.397 281.743 130.335 292.918C135.73 297.582 135.966 305.835 130.851 310.779L120.083 321.202ZM168.526 295.261C163.132 280.002 18.5555 191.09 5.98266 210.862C-6.56865 230.613 5.98265 364.401 5.98265 364.401C9.57181 412.006 173.921 310.52 168.526 295.261Z" fill="#BB5F2A"/>
<path d="M92.2729 299.817C92.2729 299.817 94.8304 293.262 79.1628 279.787C63.5166 266.311 34.5454 241.896 31.6869 267.665C28.8285 293.412 32.0092 315.657 30.8487 329.627C29.6666 343.596 56.596 314.969 67.7074 313.121C78.8187 311.272 93.2615 309.575 92.2729 299.817Z" fill="#BB5F2A"/>
<path d="M170.826 597.781C183.377 578.03 170.826 444.221 170.826 444.221C167.237 396.638 2.88755 498.102 8.28203 513.361C13.6765 528.642 158.253 617.532 170.826 597.781Z" fill="#BB5F2A"/>
<path d="M170.826 646.268C178.004 636.403 86.4055 599.566 70.2436 584.93C54.0816 570.294 12.774 548.393 8.1532 554.669C6.75622 556.56 7.35795 559.591 8.86239 562.879C12.9674 571.884 21.2634 578.202 30.8058 580.889C66.504 590.99 164.4 655.079 170.826 646.268Z" fill="#BB5F2A"/>
<path d="M163.11 670.661C159.457 667.222 154.148 663.095 147.013 659.743C131.754 652.564 45.0981 601.37 30.7199 602.724C16.3633 604.057 5.38088 586.67 7.35814 605.411C8.15334 612.826 52.4699 612.976 70.8885 630.041C89.2856 647.106 89.2856 647.105 89.2856 647.105C89.2856 647.105 111.1 661.763 128.165 662.666C145.229 663.547 149.721 674.551 149.721 674.551C149.721 674.551 152.128 677.818 155.459 680.225C161.563 684.588 168.569 675.819 163.11 670.661Z" fill="#BB5F2A"/>
</g>
</g>
</svg>
