<?xml version="1.0" encoding="UTF-8"?>
<svg version="1.1" xmlns="http://www.w3.org/2000/svg" width="339" height="543">
<path d="M0 0 C3.65822777 0.0001022 7.31626402 -0.01365152 10.9744463 -0.03077221 C13.84444516 -0.04199736 16.7143988 -0.04391617 19.58441734 -0.04339027 C21.5748324 -0.04510411 23.56523337 -0.05585296 25.55561829 -0.06694031 C36.6702543 -0.03934017 48.38787738 0.29260087 58.56469727 5.18530273 C61.87113927 10.14496575 61.3964725 15.42065692 60.56469727 21.18530273 C56.78145899 38.85612908 47.6627339 55.17814526 39.56469727 71.18530273 C38.83694092 72.64033203 38.83694092 72.64033203 38.09448242 74.12475586 C28.11646552 94.0304138 16.51500493 112.97080737 4.18969727 131.49780273 C3.46516357 132.58786621 2.74062988 133.67792969 1.99414062 134.80102539 C-17.22769157 163.40465524 -17.22769157 163.40465524 -26.43530273 169.18530273 C-35.65145122 167.92855521 -41.8007271 158.85184289 -47.09521484 151.98046875 C-48.55262709 150.05652576 -49.99619655 148.12297023 -51.43530273 146.18530273 C-51.90452148 145.55897949 -52.37374023 144.93265625 -52.85717773 144.28735352 C-76.18777256 112.93686672 -97.9971161 75.37703468 -107.43530273 37.18530273 C-107.63510742 36.3822168 -107.83491211 35.57913086 -108.04077148 34.75170898 C-108.60522418 31.07997211 -108.65951602 27.45786565 -108.68530273 23.74780273 C-108.70592773 23.00981445 -108.72655273 22.27182617 -108.74780273 21.51147461 C-108.78225316 16.66688348 -108.16073092 13.35324358 -105.43530273 9.18530273 C-97.58402147 2.07897015 -81.12766561 3.50939262 -70.98120117 2.80761719 C-68.33527306 2.62453057 -65.68997213 2.43394846 -63.04467773 2.24194336 C-58.66930293 1.9274449 -54.29294321 1.63189322 -49.91549683 1.3477478 C-48.34311493 1.24476163 -46.77091935 1.1388551 -45.19900513 1.02896118 C-30.14758859 -0.0155485 -15.07992676 -0.00215971 0 0 Z " fill="#B75C28" transform="translate(108.435302734375,-0.185302734375)"/>
<path d="M0 0 C0.13277344 0.75925781 0.26554687 1.51851563 0.40234375 2.30078125 C0.66724609 3.79158203 0.66724609 3.79158203 0.9375 5.3125 C1.19853516 6.79169922 1.19853516 6.79169922 1.46484375 8.30078125 C1.95746847 11.08189213 1.95746847 11.08189213 3 14 C6.96998457 16.21852079 10.51783613 16.4001932 15 16 C18.86740445 14.28115358 20.3667823 12.82678624 22 9 C22.42151885 7.42841122 22.7968834 5.84370918 23.125 4.25 C23.29257813 3.45078125 23.46015625 2.6515625 23.6328125 1.828125 C23.81457031 0.92320312 23.81457031 0.92320312 24 0 C47.99006257 0.77387299 69.01439776 14.92661729 85.109375 31.7421875 C98.00900669 45.84317195 105.14275611 64.32286897 108 83 C106.31913434 84.68086566 103.9875257 84.44536084 101.6875 84.75 C97.96155983 85.41206719 96.32650653 85.72791123 93.375 88.1875 C91.69037217 91.63332966 91.06746487 94.15450217 91 98 C92.50151421 102.23518526 92.50151421 102.23518526 95.78515625 105.09765625 C98.26352951 106.10736387 100.61950705 106.64043551 103.25 107.125 C104.14203125 107.29257812 105.0340625 107.46015625 105.953125 107.6328125 C106.96632813 107.81457031 106.96632813 107.81457031 108 108 C104.84018231 126.57356254 98.4025074 143.51740751 86 158 C85.00033203 159.21623047 85.00033203 159.21623047 83.98046875 160.45703125 C68.92545684 178.11615333 46.91933732 189.14252418 24 192 C23.79503906 191.16855469 23.59007812 190.33710937 23.37890625 189.48046875 C23.10949219 188.39378906 22.84007812 187.30710937 22.5625 186.1875 C22.29566406 185.10855469 22.02882813 184.02960938 21.75390625 182.91796875 C21.23922588 180.9259157 20.65062825 178.95188476 20 177 C15.38158188 174.80075328 11.92467432 174.74644654 7 176 C4.00990148 177.22429421 4.00990148 177.22429421 2 180 C1.26908377 182.87745759 0.81222996 185.68974047 0.45703125 188.63671875 C0.23080078 189.80654297 0.23080078 189.80654297 0 191 C-4.84894642 193.42447321 -13.94693779 189.52833043 -19 188 C-33.23833475 183.00515152 -45.11736152 175.44733294 -56 165 C-56.7115625 164.34 -57.423125 163.68 -58.15625 163 C-72.72685104 149.10188824 -83.08819373 128.19650885 -84 108 C-83.25234375 107.82984375 -82.5046875 107.6596875 -81.734375 107.484375 C-80.74953125 107.24203125 -79.7646875 106.9996875 -78.75 106.75 C-77.77546875 106.51796875 -76.8009375 106.2859375 -75.796875 106.046875 C-72.01889279 104.63276993 -69.80316455 102.6063291 -68 99 C-67.74809118 94.54961093 -67.66735809 90.88773652 -70 87 C-74.19497598 84.45759031 -79.20439053 84.39702213 -84 84 C-83.54407167 64.06349755 -73.34609739 44.41938494 -60 30 C-59.30390625 29.22398437 -58.6078125 28.44796875 -57.890625 27.6484375 C-43.75002403 12.63049997 -21.04224992 -0.48935465 0 0 Z M-48.30078125 36.1484375 C-57.6063713 45.97923452 -66.91094398 59.35665884 -69 73 C-68.48050781 73.3403125 -67.96101563 73.680625 -67.42578125 74.03125 C-61.18630772 78.36774177 -56.485641 83.33409246 -55 91 C-54.17798578 97.92648049 -55.41667781 103.99150118 -59 110 C-61.94476804 113.20665453 -65.08886063 116.04443032 -69 118 C-63.87719028 138.31149118 -50.91343883 156.08508449 -33 167 C-30.27957493 168.51858633 -27.5263525 169.96155529 -24.75 171.375 C-24.07654541 171.72103271 -23.40309082 172.06706543 -22.70922852 172.42358398 C-18.80764007 174.34953808 -15.38177844 175.52371973 -11 176 C-10.5875 175.39671875 -10.175 174.7934375 -9.75 174.171875 C-5.14891873 167.80430718 -1.32006236 164.24921005 6.37890625 162.44140625 C13.45830631 161.36675554 20.02979009 162.3954826 26.078125 166.36328125 C29.51753203 169.15960587 31.99720899 171.99441798 34 176 C39.1717768 175.43070364 43.12115066 173.77175363 47.6875 171.4375 C48.39084473 171.07962402 49.09418945 170.72174805 49.81884766 170.35302734 C69.05956556 160.32184237 83.50319355 144.45508728 91 124 C91.8448457 120.56214337 91.8448457 120.56214337 92 118 C91.46890625 117.63648438 90.9378125 117.27296875 90.390625 116.8984375 C84.06008412 112.39312556 79.91368678 108.10225511 78.2578125 100.19921875 C77.32610269 92.25145177 79.03808844 85.3228242 84 79 C86.51770444 76.73872842 89.14225807 74.80824862 92 73 C88.69897166 53.68547249 74.72485906 37.1544018 59.18359375 26.0390625 C51.37908429 21.04034601 43.19818739 16.65567373 34 15 C33.62488281 15.53109375 33.24976563 16.0621875 32.86328125 16.609375 C28.08428757 23.20607156 24.28605697 27.34278861 16 29 C9.05471367 29.85361061 3.05782735 28.53801801 -3 25 C-6.26549092 22.03749278 -8.5654872 18.65176919 -11 15 C-23.66086195 15 -39.75177464 28.07505323 -48.30078125 36.1484375 Z " fill="#B75D27" transform="translate(159,351)"/>
<path d="M0 0 C16.89461892 5.58057548 30.22546908 32.97138165 39.08447266 46.54980469 C40.24329559 48.32468691 41.41405236 50.09178167 42.58984375 51.85546875 C42.83035278 54.49406433 42.83035278 54.49406433 42.81689453 57.70385742 C42.81666794 59.50538521 42.81666794 59.50538521 42.81643677 61.3433075 C42.8061142 62.6402504 42.79579163 63.9371933 42.78515625 65.2734375 C42.7814253 66.61436248 42.77857872 67.95529019 42.77658081 69.29621887 C42.76895074 72.82261708 42.74930778 76.34885009 42.72717285 79.87518311 C42.70670085 83.47470871 42.6975762 87.07426106 42.6875 90.67382812 C42.6660612 97.73444251 42.63193288 104.79494484 42.58984375 111.85546875 C33.93952173 103.45910526 24.29604517 87.90400011 22.58984375 75.85546875 C22.63268 72.64220751 22.83062145 69.45310707 23.02514648 66.24560547 C24.02097675 53.61977061 24.02097675 53.61977061 18.64404297 42.72924805 C14.065979 38.48510207 10.08295673 35.92850714 3.58984375 35.85546875 C-7.86238145 39.99534146 -16.1956396 54.38877477 -23.41015625 63.85546875 C-24.10890869 64.76087402 -24.10890869 64.76087402 -24.82177734 65.68457031 C-30.54233469 73.11556047 -35.59804288 80.62303391 -40.06469727 88.87231445 C-42.62675948 93.57447231 -45.44129981 98.00578296 -48.47265625 102.41796875 C-51.8935962 107.42907242 -55.03479621 112.51075243 -57.91015625 117.85546875 C-58.23636963 118.45431885 -58.56258301 119.05316895 -58.89868164 119.67016602 C-62.15425042 125.87038333 -64.04921355 131.82583847 -63.41015625 138.85546875 C-61.65377428 143.56996773 -59.67086255 146.19252731 -55.41015625 148.85546875 C-47.85112109 152.17385193 -40.52327029 153.70577257 -32.34765625 154.54296875 C-31.25783447 154.66325439 -30.1680127 154.78354004 -29.04516602 154.9074707 C-19.84462754 155.88843781 -10.65853155 156.58785239 -1.41015625 156.85546875 C-0.12753906 156.89671875 1.15507812 156.93796875 2.4765625 156.98046875 C15.80831297 157.19614924 29.4654851 156.27540863 42.58984375 153.85546875 C42.58984375 157.81546875 42.58984375 161.77546875 42.58984375 165.85546875 C38.98598775 166.17191987 35.38181286 166.48363817 31.77734375 166.79296875 C30.79185547 166.87998047 29.80636719 166.96699219 28.79101562 167.05664062 C9.63555228 168.68817851 -9.46578372 169.0708785 -28.68066406 169.09570312 C-31.58736582 169.10010833 -34.49377416 169.11411182 -37.40039062 169.13671875 C-75.58441598 169.42753367 -75.58441598 169.42753367 -87.41015625 163.85546875 C-90.39993045 159.52075053 -89.99179406 154.90054457 -89.41015625 149.85546875 C-79.95670531 104.09674344 -47.88155582 56.80689939 -20.41015625 19.85546875 C-19.6828833 18.87682861 -19.6828833 18.87682861 -18.94091797 17.87841797 C-5.30374204 -0.3180526 -5.30374204 -0.3180526 0 0 Z " fill="#B75C28" transform="translate(296.41015625,7.14453125)"/>
<path d="M0 0 C5.96118297 4.93997261 11.41486302 10.28529862 16.87109375 15.7734375 C17.793423 16.6971817 18.71575226 17.6209259 19.66603088 18.57266235 C22.09633814 21.00675431 24.52362496 23.44383597 26.95025635 25.8815918 C29.43569364 28.3773311 31.92402932 30.87017708 34.41210938 33.36328125 C39.27755096 38.2393886 44.13980198 43.11866631 49 48 C47.4819272 51.5747899 45.38425289 53.85811724 42.64208984 56.58496094 C41.74130707 57.48559265 40.84052429 58.38622437 39.91244507 59.31414795 C38.92871592 60.28766481 37.9448775 61.26107125 36.9609375 62.234375 C35.95444872 63.23713161 34.94840211 64.24033222 33.94277954 65.24395752 C31.30037853 67.87873813 28.65202572 70.50745611 26.00238037 73.13494873 C23.29743948 75.81939688 20.59818179 78.50954622 17.8984375 81.19921875 C12.60449826 86.47173618 7.30425717 91.73786057 2 97 C-1.61692773 95.47102424 -3.9203522 93.32184367 -6.67675781 90.55029297 C-7.59741028 89.62948944 -8.51806274 88.70868591 -9.46661377 87.75997925 C-10.4622253 86.75415535 -11.45772648 85.7482222 -12.453125 84.7421875 C-13.47830193 83.71327851 -14.50392275 82.68481163 -15.52996826 81.6567688 C-18.22393164 78.95518419 -20.91183368 76.24764659 -23.59851074 73.53881836 C-26.34328304 70.77355511 -29.09375472 68.01397367 -31.84375 65.25390625 C-37.23475573 59.84147726 -42.61936964 54.42274562 -48 49 C-43.06002739 43.03881703 -37.71470138 37.58513698 -32.2265625 32.12890625 C-31.3028183 31.206577 -30.3790741 30.28424774 -29.42733765 29.33396912 C-26.99324569 26.90366186 -24.55616403 24.47637504 -22.1184082 22.04974365 C-19.6226689 19.56430636 -17.12982292 17.07597068 -14.63671875 14.58789062 C-9.7606114 9.72244904 -4.88133369 4.86019802 0 0 Z M-13.375 37.4375 C-16.51039513 42.38177694 -17.60123159 46.08788932 -17 52 C-15.02558672 57.88958505 -12.03965145 61.46152132 -7 65 C-1.98137589 66.6728747 3.27960118 67.03347349 8.29296875 65.12890625 C12.99374768 62.43896709 16.38667306 59.25599594 18 54 C18.82083833 48.05599827 18.53399376 43.01599114 15 38 C10.69634087 33.6759926 7.57340323 31.21808502 1.3125 30.6875 C-4.68461915 30.77585535 -9.23695983 33.19056404 -13.375 37.4375 Z " fill="#B75C28" transform="translate(170,398)"/>
<path d="M0 0 C5.92596063 4.79120221 7.24576335 11.85429921 8.56640625 19.11328125 C10.24999469 27.95476771 13.6637526 33.82683439 19 41 C20.25229962 42.70064769 21.49644135 44.40592642 22.72607422 46.12304688 C23.87421623 47.72424452 25.04394367 49.30989975 26.21484375 50.89453125 C28.21108524 54.36720517 28.77002942 57.02199821 29 61 C27.23971692 62.76028308 24.74165957 62.13674932 22.35375977 62.14526367 C21.14482559 62.15164352 19.93589142 62.15802338 18.69032288 62.16459656 C17.37068039 62.16570938 16.0510379 62.1668222 14.69140625 62.16796875 C13.32673609 62.17118238 11.96206628 62.17454653 10.59739685 62.17805481 C7.72646285 62.18405767 4.85555898 62.18589389 1.98461914 62.18530273 C-1.67003853 62.18520186 -5.32449862 62.19877083 -8.97910976 62.21607494 C-11.80437581 62.22728073 -14.62959569 62.22921922 -17.45488167 62.22869301 C-19.44987049 62.23042854 -21.4448449 62.24122833 -23.43980408 62.25224304 C-42.37213368 62.20516667 -42.37213368 62.20516667 -47.1875 57.4375 C-49.21574429 53.59082979 -49.59207606 51.79714988 -48.8203125 47.6015625 C-45.24082031 36.2494587 -37.58355013 26.93611183 -30 18 C-29.52981445 17.44328613 -29.05962891 16.88657227 -28.57519531 16.31298828 C-12.02306271 -3.07419817 -12.02306271 -3.07419817 0 0 Z " fill="#B85C28" transform="translate(304,84)"/>
<path d="M0 0 C0.75023437 0.23203125 1.50046875 0.4640625 2.2734375 0.703125 C1.75863705 6.24948697 0.71361857 10.9960676 -1.4765625 16.140625 C-1.77675293 16.85524902 -2.07694336 17.56987305 -2.38623047 18.30615234 C-8.80184834 33.14285348 -16.73708123 47.33071817 -24.7890625 61.328125 C-30.86797656 71.91025592 -36.47210794 82.72035016 -42.0390625 93.578125 C-42.46140167 94.39984192 -42.88374084 95.22155884 -43.31887817 96.06817627 C-54.44730017 117.38718312 -54.44730017 117.38718312 -63.2890625 139.703125 C-66.86494136 149.88078483 -71.40083262 156.9642143 -80.7265625 162.703125 C-84.22040529 163.86773926 -87.06311639 163.83880819 -90.7265625 163.703125 C-91.7265625 162.703125 -91.7265625 162.703125 -92.1640625 159.078125 C-91.78121258 138.75517495 -73.62162457 115.00059898 -60.8515625 100.203125 C-49.69419396 86.42970011 -42.65147196 68.68257498 -34.8203125 52.90625 C-8.07574852 -0.87930786 -8.07574852 -0.87930786 0 0 Z " fill="#B75B26" transform="translate(213.7265625,5.296875)"/>
<path d="M0 0 C2 2 2 2 2.5 4.6875 C1.44526646 11.6751097 -4.83990023 15.91171773 -10.16796875 20.03125 C-14.77296659 24.9799044 -15.48783647 31.07307098 -16.3125 37.5 C-18.74483663 53.7288963 -25.8116109 70.94498287 -38.0625 82.21484375 C-41.3303814 85.2257748 -44.14321294 88.60431902 -47 92 C-47.5878125 92.66386719 -48.175625 93.32773438 -48.78125 94.01171875 C-58.30376767 105.30926712 -61.43259683 119.45418269 -64.6875 133.5 C-65.25287196 135.91341492 -65.82201621 138.3257447 -66.39985657 140.73620605 C-66.75483351 142.21917613 -67.10266585 143.70388282 -67.44181824 145.19055176 C-68.45897663 149.46648878 -69.7810918 153.19843227 -72 157 C-74.98594424 158.49297212 -77.70853624 158.11755228 -81 158 C-81.66 157.67 -82.32 157.34 -83 157 C-83.3986676 153.11299087 -82.92989297 150.59278511 -81.1875 147.1875 C-79.11456796 142.89048462 -78.37117384 138.67765741 -77.6875 134 C-73.50950579 107.77987797 -56.40002141 81.89084234 -43.64550781 58.96142578 C-41.43995095 54.99207789 -39.24938186 51.01451319 -37.05848694 47.0370636 C-35.33300886 43.9050925 -33.60578581 40.77411835 -31.8737793 37.64575195 C-28.80252181 32.09672846 -25.74361235 26.5425111 -22.74609375 20.953125 C-22.25568604 20.04385254 -21.76527832 19.13458008 -21.26000977 18.19775391 C-20.37447168 16.55280408 -19.4954002 14.90434598 -18.62475586 13.25146484 C-10.36678127 -2.03633204 -10.36678127 -2.03633204 0 0 Z " fill="#B75C27" transform="translate(248,12)"/>
<path d="M0 0 C3.34995471 2.7544072 5.44896185 4.82832266 6.09375 9.234375 C6.29637533 13.72590304 5.76526632 16.74881651 2.8125 20.3125 C-0.75118349 23.26526632 -3.77409696 23.79637533 -8.265625 23.59375 C-12.58651705 22.96142433 -14.7113611 20.83875878 -17.5625 17.6875 C-19.71523688 13.21643109 -19.54579684 10.03171083 -18.1875 5.3125 C-14.0606478 -1.6147162 -7.22333848 -3.82412037 0 0 Z M-10.5 7 C-12.46837944 9.18972477 -12.46837944 9.18972477 -12.0625 11.9375 C-11.32282087 14.45655125 -11.32282087 14.45655125 -9.1875 16.3125 C-5.59070934 15.98923447 -5.59070934 15.98923447 -2.1875 15.3125 C-0.99904703 10.68226382 -0.99904703 10.68226382 -2.375 6.375 C-5.55168497 4.51280536 -7.62561009 4.90247223 -10.5 7 Z " fill="#B85D26" transform="translate(177.1875,435.6875)"/>
<path d="M0 0 C0.66 0.33 1.32 0.66 2 1 C-0.31 3.64 -2.62 6.28 -5 9 C-5.33 8.01 -5.66 7.02 -6 6 C-2.83636364 1.41818182 -2.83636364 1.41818182 0 0 Z " fill="#AF541F" transform="translate(165,435)"/>
<path d="M0 0 C0.99 0.33 1.98 0.66 3 1 C-0.96 4.465 -0.96 4.465 -5 8 C-5.33 7.34 -5.66 6.68 -6 6 C-2.25 1.125 -2.25 1.125 0 0 Z " fill="#B1581F" transform="translate(241,11)"/>
<path d="M0 0 C0.99 0.33 1.98 0.66 3 1 C-0.96 4.465 -0.96 4.465 -5 8 C-5.33 7.34 -5.66 6.68 -6 6 C-2.25 1.125 -2.25 1.125 0 0 Z " fill="#B0541B" transform="translate(7,6)"/>
</svg>
