<svg width="93" height="56" viewBox="0 0 93 56" fill="none" xmlns="http://www.w3.org/2000/svg">
<path d="M18.1389 28C18.1389 12.536 30.6749 0 46.1389 0C61.6029 0 74.1389 12.536 74.1389 28C74.1389 43.464 61.6029 56 46.1389 56C30.6749 56 18.1389 43.464 18.1389 28Z" fill="#BB5F2A"/>
<path d="M62.2391 5.25C57.9111 8.5228 52.2869 10.5 46.1391 10.5C39.9912 10.5 34.367 8.5228 30.0391 5.25C34.367 1.9772 39.9912 0 46.1391 0C52.2869 0 57.9111 1.9772 62.2391 5.25Z" fill="#762A00"/>
<rect opacity="0.2" x="30.739" y="24.5" width="30.8" height="30.8" rx="15.4" fill="white"/>
<rect opacity="0.2" x="36.689" y="36.75" width="18.9" height="18.9" rx="9.45" fill="white"/>
<path d="M6.573 28.4549C5.803 28.4549 5.005 28.3499 4.179 28.1399C3.367 27.9299 2.59 27.6429 1.848 27.2789C1.12 26.9009 0.504 26.4739 0 25.9979C0.322 25.5359 0.679 25.0739 1.071 24.6119C1.463 24.1359 1.897 23.6669 2.373 23.2049C2.919 23.7929 3.521 24.3389 4.179 24.8429C4.837 25.3329 5.495 25.7319 6.153 26.0399C6.825 26.3479 7.441 26.5019 8.001 26.5019C8.505 26.5019 8.953 26.3689 9.345 26.1029C9.751 25.8229 9.954 25.4239 9.954 24.9059C9.954 24.4159 9.765 23.9819 9.387 23.6039C9.009 23.2119 8.512 22.8549 7.896 22.5329C7.294 22.1969 6.65 21.8679 5.964 21.5459C5.362 21.2659 4.767 20.9719 4.179 20.6639C3.591 20.3559 3.052 20.0199 2.562 19.6559C2.086 19.2919 1.701 18.8859 1.407 18.4379C1.127 17.9759 0.987 17.4579 0.987 16.8839C0.987 16.3099 1.134 15.7499 1.428 15.2039C1.736 14.6579 2.163 14.1679 2.709 13.7339C3.255 13.2859 3.899 12.9359 4.641 12.6839C5.397 12.4179 6.223 12.2849 7.119 12.2849C8.141 12.2849 9.17 12.4599 10.206 12.8099C11.256 13.1599 12.166 13.6639 12.936 14.3219C12.684 14.7979 12.341 15.2669 11.907 15.7289C11.487 16.1909 11.074 16.5829 10.668 16.9049C9.814 16.0929 8.967 15.4139 8.127 14.8679C7.287 14.3079 6.496 14.0279 5.754 14.0279C5.208 14.0279 4.795 14.1679 4.515 14.4479C4.249 14.7139 4.116 15.0009 4.116 15.3089C4.116 15.6449 4.27 15.9529 4.578 16.2329C4.886 16.5129 5.292 16.7859 5.796 17.0519C6.3 17.3179 6.853 17.5909 7.455 17.8709C8.085 18.1649 8.722 18.4799 9.366 18.8159C10.024 19.1519 10.626 19.5369 11.172 19.9709C11.732 20.3909 12.18 20.8739 12.516 21.4199C12.852 21.9659 13.02 22.5889 13.02 23.2889C13.02 23.9889 12.845 24.6539 12.495 25.2839C12.159 25.8999 11.69 26.4459 11.088 26.9219C10.5 27.3979 9.814 27.7759 9.03 28.0559C8.26 28.3219 7.441 28.4549 6.573 28.4549Z" fill="white"/>
<path d="M18.2152 28.4549C17.0252 28.4549 16.0522 28.1679 15.2962 27.5939C14.5542 27.0059 14.1832 26.2429 14.1832 25.3049C14.1832 24.4509 14.4912 23.6599 15.1072 22.9319C15.7372 22.2039 16.6052 21.5879 17.7112 21.0839C18.8172 20.5659 20.0842 20.2089 21.5122 20.0129C21.0082 18.7809 20.3152 18.1649 19.4332 18.1649C18.9012 18.1649 18.2152 18.3679 17.3752 18.7739C16.5352 19.1799 15.6812 19.7119 14.8132 20.3699L14.1832 18.2699C16.2692 17.0799 18.2432 16.4849 20.1052 16.4849C21.5612 16.4849 22.7302 16.8839 23.6122 17.6819C24.4942 18.4659 25.1382 19.7259 25.5442 21.4619C25.9502 23.1839 26.1532 25.4659 26.1532 28.3079C25.8872 28.3219 25.4112 28.3359 24.7252 28.3499C24.0532 28.3779 23.3252 28.3919 22.5412 28.3919C22.5412 27.9439 22.5342 27.5029 22.5202 27.0689C21.0782 27.9929 19.6432 28.4549 18.2152 28.4549ZM17.6482 25.1579C17.6482 25.5919 17.8162 25.9349 18.1522 26.1869C18.5022 26.4389 18.9642 26.5649 19.5382 26.5649C20.5462 26.5649 21.5192 26.1309 22.4572 25.2629C22.3732 23.7789 22.2122 22.5259 21.9742 21.5039C21.4282 21.6159 20.8962 21.7979 20.3782 22.0499C19.8742 22.3019 19.4122 22.6029 18.9922 22.9529C18.5862 23.2889 18.2572 23.6529 18.0052 24.0449C17.7672 24.4229 17.6482 24.7939 17.6482 25.1579Z" fill="white"/>
<path d="M28.3615 28.3919C28.3475 27.9439 28.3335 27.3279 28.3195 26.5439C28.3055 25.7459 28.2915 24.8289 28.2775 23.7929C28.2775 22.7429 28.2705 21.6159 28.2565 20.4119C28.2565 19.1939 28.2565 17.9409 28.2565 16.6529C28.5645 16.6529 28.9425 16.6599 29.3905 16.6739C29.8385 16.6739 30.2865 16.6809 30.7345 16.6949C31.1965 16.7089 31.5745 16.7229 31.8685 16.7369C31.8685 17.0869 31.8685 17.4439 31.8685 17.8079C33.0585 16.9259 34.2695 16.4849 35.5015 16.4849C36.6355 16.4849 37.5525 16.8839 38.2525 17.6819C38.9525 18.4799 39.4565 19.7539 39.7645 21.5039C40.0865 23.2539 40.2475 25.5499 40.2475 28.3919C39.9255 28.3919 39.5405 28.3849 39.0925 28.3709C38.6445 28.3709 38.2035 28.3639 37.7695 28.3499C37.3355 28.3359 36.9575 28.3219 36.6355 28.3079C36.6355 25.8299 36.5655 23.8489 36.4255 22.3649C36.2855 20.8809 36.0545 19.8099 35.7325 19.1519C35.4105 18.4939 34.9765 18.1649 34.4305 18.1649C33.9825 18.1649 33.5275 18.3539 33.0655 18.7319C32.6035 19.1099 32.2045 19.6069 31.8685 20.2229C31.8545 21.4129 31.8405 22.5399 31.8265 23.6039C31.8265 24.6679 31.8195 25.6129 31.8055 26.4389C31.7915 27.2509 31.7775 27.8739 31.7635 28.3079C31.3295 28.3219 30.7975 28.3359 30.1675 28.3499C29.5515 28.3779 28.9495 28.3919 28.3615 28.3919Z" fill="white"/>
<path d="M46.3765 28.4549C45.4945 28.4549 44.6965 28.2029 43.9825 27.6989C43.2825 27.1949 42.7295 26.5019 42.3235 25.6199C41.9175 24.7379 41.7145 23.7439 41.7145 22.6379C41.7145 21.4899 41.9245 20.4539 42.3445 19.5299C42.7785 18.6059 43.3595 17.8709 44.0875 17.3249C44.8155 16.7649 45.6205 16.4849 46.5025 16.4849C47.3005 16.4849 48.1405 16.7159 49.0225 17.1779C49.0225 15.3159 49.0225 13.7409 49.0225 12.4529C49.3445 12.4529 49.7225 12.4599 50.1565 12.4739C50.6045 12.4739 51.0525 12.4809 51.5005 12.4949C51.9485 12.5089 52.3265 12.5229 52.6345 12.5369C52.6345 13.2509 52.6345 14.1049 52.6345 15.0989C52.6345 16.0789 52.6275 17.1289 52.6135 18.2489C52.6135 19.3689 52.6065 20.4819 52.5925 21.5879C52.5925 22.6799 52.5855 23.7019 52.5715 24.6539C52.5715 25.6059 52.5645 26.4109 52.5505 27.0689C52.5505 27.7269 52.5435 28.1679 52.5295 28.3919C51.9275 28.3919 51.3115 28.3779 50.6815 28.3499C50.0515 28.3359 49.5335 28.3219 49.1275 28.3079C49.1275 28.1259 49.1205 27.8669 49.1065 27.5309C48.2385 28.1469 47.3285 28.4549 46.3765 28.4549ZM44.8855 21.9659C44.8855 22.8759 44.9905 23.6949 45.2005 24.4229C45.4245 25.1369 45.7185 25.7039 46.0825 26.1239C46.4605 26.5299 46.8805 26.7329 47.3425 26.7329C47.9725 26.7329 48.5535 26.3619 49.0855 25.6199C49.0715 24.7939 49.0575 23.8629 49.0435 22.8269C49.0435 21.7769 49.0435 20.7129 49.0435 19.6349C48.8055 19.1729 48.5045 18.8159 48.1405 18.5639C47.7905 18.2979 47.4055 18.1649 46.9855 18.1649C46.3275 18.1649 45.8095 18.5009 45.4315 19.1729C45.0675 19.8309 44.8855 20.7619 44.8855 21.9659Z" fill="white"/>
<path d="M58.4433 28.3919C57.9253 28.3919 57.3373 28.3779 56.6793 28.3499C56.0353 28.3359 55.4893 28.3219 55.0413 28.3079C55.0273 27.9859 55.0133 27.4819 54.9993 26.7959C54.9993 26.0959 54.9923 25.2769 54.9783 24.3389C54.9783 23.4009 54.9713 22.4069 54.9573 21.3569C54.9573 20.2929 54.9503 19.2289 54.9363 18.1649C54.9363 17.0869 54.9363 16.0649 54.9363 15.0989C54.9363 14.1189 54.9363 13.2649 54.9363 12.5369C55.2443 12.5229 55.6153 12.5089 56.0493 12.4949C56.4833 12.4809 56.9243 12.4739 57.3723 12.4739C57.8343 12.4599 58.2263 12.4529 58.5483 12.4529C58.5483 13.1109 58.5483 13.8809 58.5483 14.7629C58.5483 15.6309 58.5413 16.5479 58.5273 17.5139C59.0173 17.1919 59.5283 16.9399 60.0603 16.7579C60.6063 16.5759 61.1383 16.4849 61.6563 16.4849C63.3083 16.4849 64.5263 17.4439 65.3103 19.3619C66.0943 21.2799 66.4863 24.2619 66.4863 28.3079C66.1363 28.3359 65.6883 28.3569 65.1423 28.3709C64.5963 28.3849 63.8403 28.3919 62.8743 28.3919C62.8743 21.5739 62.1393 18.1649 60.6693 18.1649C60.3053 18.1649 59.9273 18.3469 59.5353 18.7109C59.1573 19.0749 58.8213 19.5439 58.5273 20.1179C58.5133 21.0839 58.4993 22.0219 58.4853 22.9319C58.4853 23.8279 58.4783 24.6539 58.4643 25.4099C58.4643 26.1659 58.4573 26.8099 58.4433 27.3419C58.4433 27.8599 58.4433 28.2099 58.4433 28.3919Z" fill="white"/>
<path d="M68.163 31.1219L67.953 29.1479C68.695 29.1059 69.36 29.0079 69.948 28.8539C70.55 28.7139 71.096 28.4899 71.5861 28.1819C70.998 27.0059 70.403 25.7529 69.801 24.4229C69.199 23.0929 68.625 21.7839 68.079 20.4959C67.5471 19.1939 67.085 18.0039 66.693 16.9259C67.197 16.8419 67.827 16.7579 68.583 16.6739C69.3391 16.5899 70.081 16.5199 70.8091 16.4639C71.159 17.5419 71.621 18.8369 72.195 20.3489C72.769 21.8609 73.392 23.4499 74.064 25.1159C74.526 24.1779 74.967 23.0089 75.387 21.6089C75.807 20.2089 76.262 18.5219 76.752 16.5479L79.293 16.8419C78.607 19.3619 77.886 21.5179 77.1301 23.3099C76.388 25.0879 75.576 26.5439 74.694 27.6779C73.826 28.8119 72.853 29.6519 71.775 30.1979C70.697 30.7439 69.493 31.0519 68.163 31.1219Z" fill="white"/>
<path d="M84.3775 28.4549C83.1875 28.4549 82.2145 28.1679 81.4585 27.5939C80.7165 27.0059 80.3455 26.2429 80.3455 25.3049C80.3455 24.4509 80.6535 23.6599 81.2695 22.9319C81.8995 22.2039 82.7675 21.5879 83.8735 21.0839C84.9795 20.5659 86.2465 20.2089 87.6745 20.0129C87.1705 18.7809 86.4775 18.1649 85.5955 18.1649C85.0635 18.1649 84.3775 18.3679 83.5375 18.7739C82.6975 19.1799 81.8435 19.7119 80.9755 20.3699L80.3455 18.2699C82.4315 17.0799 84.4055 16.4849 86.2675 16.4849C87.7235 16.4849 88.8925 16.8839 89.7745 17.6819C90.6565 18.4659 91.3005 19.7259 91.7065 21.4619C92.1125 23.1839 92.3155 25.4659 92.3155 28.3079C92.0495 28.3219 91.5735 28.3359 90.8875 28.3499C90.2155 28.3779 89.4875 28.3919 88.7035 28.3919C88.7035 27.9439 88.6965 27.5029 88.6825 27.0689C87.2405 27.9929 85.8055 28.4549 84.3775 28.4549ZM83.8105 25.1579C83.8105 25.5919 83.9785 25.9349 84.3145 26.1869C84.6645 26.4389 85.1265 26.5649 85.7005 26.5649C86.7085 26.5649 87.6815 26.1309 88.6195 25.2629C88.5355 23.7789 88.3745 22.5259 88.1365 21.5039C87.5905 21.6159 87.0585 21.7979 86.5405 22.0499C86.0365 22.3019 85.5745 22.6029 85.1545 22.9529C84.7485 23.2889 84.4195 23.6529 84.1675 24.0449C83.9295 24.4229 83.8105 24.7939 83.8105 25.1579Z" fill="white"/>
<path d="M29.0937 48.3419C28.7437 48.3419 28.3097 48.3349 27.7917 48.3209C27.2877 48.3209 26.7697 48.3139 26.2377 48.2999C25.7197 48.2859 25.2647 48.2719 24.8727 48.2579C24.8727 47.6279 24.8727 46.8579 24.8727 45.9479C24.8867 45.0239 24.8937 44.0369 24.8937 42.9869C24.9077 41.9229 24.9147 40.8659 24.9147 39.8159C24.9287 38.7519 24.9427 37.7579 24.9567 36.8339C24.9707 35.8959 24.9847 35.0979 24.9987 34.4399C23.9487 34.4539 22.9267 34.4679 21.9327 34.4819C20.9387 34.4819 20.0287 34.4819 19.2027 34.4819L19.2867 32.3819C20.1827 32.3819 21.1487 32.3889 22.1847 32.4029C23.2207 32.4029 24.2777 32.4099 25.3557 32.4239C26.4337 32.4239 27.4767 32.4309 28.4847 32.4449C29.5067 32.4449 30.4447 32.4519 31.2987 32.4659C32.1527 32.4659 32.8737 32.4729 33.4617 32.4869C34.0637 32.4869 34.4697 32.4939 34.6797 32.5079L34.7427 34.2719C33.9727 34.2999 33.0907 34.3279 32.0967 34.3559C31.1027 34.3699 30.0597 34.3839 28.9677 34.3979C28.9817 35.0279 28.9957 35.7839 29.0097 36.6659C29.0237 37.5479 29.0307 38.5069 29.0307 39.5429C29.0447 40.5649 29.0517 41.6009 29.0517 42.6509C29.0657 43.7009 29.0727 44.7159 29.0727 45.6959C29.0867 46.6759 29.0937 47.5579 29.0937 48.3419Z" fill="white"/>
<path d="M36.3289 35.1749V32.3399H39.8988V35.1749H36.3289ZM36.4129 48.3419C36.3989 47.8799 36.3848 47.2569 36.3708 46.4729C36.3568 45.6749 36.3429 44.7649 36.3289 43.7429C36.3289 42.7069 36.3218 41.6009 36.3078 40.4249C36.3078 39.2489 36.3078 38.0449 36.3078 36.8129C36.9379 36.8129 37.5959 36.8199 38.2818 36.8339C38.9818 36.8479 39.5279 36.8689 39.9198 36.8969C39.9198 37.9189 39.9128 38.9899 39.8988 40.1099C39.8988 41.2299 39.8919 42.3219 39.8779 43.3859C39.8779 44.4359 39.8708 45.3879 39.8568 46.2419C39.8428 47.0959 39.8289 47.7679 39.8149 48.2579C39.1709 48.2859 38.5549 48.3069 37.9669 48.3209C37.3789 48.3349 36.8609 48.3419 36.4129 48.3419Z" fill="white"/>
<path d="M45.8573 48.3419C45.5493 48.3419 45.1713 48.3349 44.7233 48.3209C44.2753 48.3209 43.8413 48.3139 43.4213 48.2999C43.0153 48.2859 42.6933 48.2719 42.4553 48.2579C42.4553 46.5079 42.4553 44.8559 42.4553 43.3019C42.4693 41.7479 42.4833 40.3899 42.4973 39.2279C42.5253 38.0519 42.5463 37.1769 42.5603 36.6029C43.0083 36.6029 43.5333 36.6099 44.1353 36.6239C44.7373 36.6379 45.2763 36.6589 45.7523 36.6869C45.7663 36.9809 45.7803 37.3799 45.7943 37.8839C46.9423 36.9179 48.0903 36.4349 49.2383 36.4349C49.8263 36.4349 50.3373 36.5609 50.7713 36.8129C51.2053 37.0649 51.5693 37.4709 51.8633 38.0309C52.9693 36.9669 54.1733 36.4349 55.4753 36.4349C56.9733 36.4349 58.0793 37.2119 58.7933 38.7659C59.5213 40.3199 59.8853 42.7139 59.8853 45.9479C59.8853 46.3259 59.8783 46.6969 59.8643 47.0609C59.8643 47.4109 59.8503 47.7959 59.8223 48.2159C59.4303 48.2719 58.9053 48.3139 58.2473 48.3419C57.5893 48.3699 56.9103 48.3839 56.2103 48.3839C56.2523 47.7959 56.2803 47.1659 56.2943 46.4939C56.3223 45.8219 56.3363 45.1569 56.3363 44.4989C56.3363 42.3289 56.2033 40.7259 55.9373 39.6899C55.6853 38.6399 55.2933 38.1149 54.7613 38.1149C54.3973 38.1149 53.9983 38.3319 53.5643 38.7659C53.1443 39.1999 52.8083 39.7389 52.5563 40.3829C52.6683 41.0409 52.7453 41.8039 52.7873 42.6719C52.8433 43.5259 52.8713 44.4849 52.8713 45.5489C52.8713 46.4729 52.8503 47.3759 52.8083 48.2579C52.5283 48.2719 52.1713 48.2859 51.7373 48.2999C51.3173 48.3139 50.8763 48.3209 50.4143 48.3209C49.9663 48.3349 49.5603 48.3419 49.1963 48.3419C49.2383 47.5999 49.2663 46.8019 49.2803 45.9479C49.3083 45.0939 49.3223 44.2819 49.3223 43.5119C49.3223 42.1819 49.2803 41.1249 49.1963 40.3409C49.1263 39.5429 49.0003 38.9759 48.8183 38.6399C48.6503 38.2899 48.4123 38.1149 48.1043 38.1149C47.7263 38.1149 47.3203 38.3389 46.8863 38.7869C46.4663 39.2349 46.1093 39.7879 45.8153 40.4459C45.8293 41.5239 45.8363 42.7419 45.8363 44.0999C45.8503 45.4439 45.8573 46.8579 45.8573 48.3419Z" fill="white"/>
<path d="M67.3329 48.4049C66.1989 48.4049 65.1769 48.1459 64.2669 47.6279C63.3709 47.0959 62.6569 46.3819 62.1249 45.4859C61.6069 44.5759 61.3479 43.5469 61.3479 42.3989C61.3479 41.2509 61.5999 40.2289 62.1039 39.3329C62.6219 38.4369 63.3219 37.7299 64.2039 37.2119C65.0999 36.6939 66.1149 36.4349 67.2489 36.4349C68.3129 36.4349 69.2649 36.6729 70.1049 37.1489C70.9589 37.6109 71.6449 38.2619 72.1629 39.1019C72.6949 39.9419 73.0099 40.9289 73.1079 42.0629L64.7709 43.6169C65.0369 44.5269 65.4569 45.2689 66.0309 45.8429C66.6049 46.4029 67.2489 46.6829 67.9629 46.6829C68.6209 46.6829 69.2719 46.4589 69.9159 46.0109C70.5599 45.5489 71.0569 44.9609 71.4069 44.2469L72.8979 45.5069C72.2119 46.4309 71.3859 47.1449 70.4199 47.6489C69.4539 48.1529 68.4249 48.4049 67.3329 48.4049ZM64.4979 41.5589C64.4979 41.6429 64.4979 41.7129 64.4979 41.7689L69.3909 41.0969C69.2929 40.2009 69.0059 39.4799 68.5299 38.9339C68.0539 38.3879 67.4729 38.1149 66.7869 38.1149C66.0729 38.1149 65.5129 38.4229 65.1069 39.0389C64.7009 39.6409 64.4979 40.4809 64.4979 41.5589Z" fill="white"/>
<path d="M42.3765 7.69996V4.2636H43.4705V7.69996H42.3765ZM42.9246 3.86314C42.771 3.86314 42.639 3.81243 42.5286 3.71101C42.4182 3.6081 42.363 3.4843 42.363 3.33963C42.363 3.19645 42.4182 3.07415 42.5286 2.97273C42.639 2.86982 42.771 2.81836 42.9246 2.81836C43.0797 2.81836 43.2117 2.86982 43.3206 2.97273C43.4309 3.07415 43.4861 3.19645 43.4861 3.33963C43.4861 3.4843 43.4309 3.6081 43.3206 3.71101C43.2117 3.81243 43.0797 3.86314 42.9246 3.86314Z" fill="white"/>
<path d="M46.1065 4.2636V5.069H43.9386V4.2636H46.1065ZM44.3928 3.44031H45.4867V6.61939C45.4867 6.68651 45.4972 6.74094 45.5181 6.78271C45.5404 6.82298 45.5725 6.85206 45.6143 6.86996C45.656 6.88636 45.706 6.89457 45.7642 6.89457C45.8059 6.89457 45.8499 6.89084 45.8962 6.88338C45.9439 6.87443 45.9797 6.86697 46.0035 6.86101L46.1691 7.65075C46.1169 7.66566 46.0431 7.6843 45.9476 7.70668C45.8537 7.72905 45.741 7.74322 45.6098 7.74918C45.3533 7.76112 45.1333 7.73129 44.9498 7.65969C44.7679 7.58661 44.6284 7.47326 44.5315 7.31964C44.436 7.16602 44.3898 6.97287 44.3928 6.7402V3.44031Z" fill="white"/>
<path d="M49.6217 5.31286L48.6172 5.3397C48.6067 5.26811 48.5784 5.20472 48.5322 5.14954C48.4859 5.09286 48.4255 5.04886 48.3509 5.01754C48.2779 4.98473 48.1928 4.96832 48.0959 4.96832C47.9691 4.96832 47.861 4.99368 47.7715 5.04439C47.6835 5.0951 47.6403 5.16371 47.6417 5.25021C47.6403 5.31733 47.6671 5.3755 47.7223 5.42472C47.779 5.47393 47.8796 5.51346 48.0243 5.54329L48.6865 5.66857C49.0296 5.7342 49.2846 5.84308 49.4517 5.99521C49.6202 6.14734 49.7052 6.34869 49.7067 6.59925C49.7052 6.83491 49.6351 7.03999 49.4964 7.21449C49.3592 7.38899 49.1713 7.52472 48.9326 7.62166C48.694 7.71712 48.421 7.76484 48.1138 7.76484C47.6231 7.76484 47.2361 7.66417 46.9527 7.46282C46.6708 7.25998 46.5097 6.98853 46.4694 6.64847L47.55 6.62163C47.5739 6.74691 47.6358 6.84237 47.7357 6.90799C47.8356 6.97362 47.9632 7.00643 48.1183 7.00643C48.2585 7.00643 48.3726 6.98033 48.4606 6.92813C48.5486 6.87592 48.5933 6.80657 48.5948 6.72006C48.5933 6.64251 48.559 6.58061 48.4919 6.53438C48.4248 6.48665 48.3196 6.44936 48.1764 6.42251L47.5769 6.30842C47.2323 6.24577 46.9758 6.13018 46.8073 5.96165C46.6387 5.79162 46.5552 5.57536 46.5567 5.31286C46.5552 5.08317 46.6164 4.88704 46.7401 4.72447C46.8639 4.56041 47.0399 4.43512 47.2681 4.34862C47.4963 4.26211 47.7655 4.21886 48.0758 4.21886C48.5411 4.21886 48.908 4.31655 49.1765 4.51193C49.4449 4.70582 49.5933 4.9728 49.6217 5.31286Z" fill="white"/>
</svg>
