<svg width="221" height="194" viewBox="0 0 221 194" fill="none" xmlns="http://www.w3.org/2000/svg">
<path d="M106.044 81.3665C99.0437 81.3665 68.5435 66.8665 60.0437 64.8665C46.8827 61.7695 37.0437 71.8665 19.5438 62.8664C-4.56955 50.465 -3.10936 23.2735 6.54378 9.86638C15.5438 -2.63355 36.5438 -0.633573 43.0438 1.86643C49.5438 4.36643 60.0151 10.1586 63.0439 18.8665C67.0439 30.3665 81.5438 23.3665 102.544 23.3665C115.084 23.3665 151.429 14.6771 157.044 48.3665C159.044 60.3665 160.223 69.2668 150.544 75.8665C139.544 83.3665 113.044 81.3665 106.044 81.3665Z" fill="#FFD6C4"/>
<path d="M97.1769 58.6542H107.185C107.569 58.6542 107.851 58.7022 108.031 58.7982C108.211 58.8822 108.331 59.0202 108.391 59.2122C108.451 59.4042 108.481 59.6562 108.481 59.9682C108.481 60.2802 108.451 60.5322 108.391 60.7242C108.331 60.9042 108.229 61.0302 108.085 61.1022C107.869 61.2102 107.563 61.2642 107.167 61.2642H103.729V70.3182C103.729 70.5942 103.717 70.7982 103.693 70.9302C103.681 71.0622 103.627 71.2182 103.531 71.3982C103.447 71.5662 103.291 71.6862 103.063 71.7582C102.835 71.8302 102.535 71.8662 102.163 71.8662C101.791 71.8662 101.491 71.8302 101.263 71.7582C101.047 71.6862 100.891 71.5662 100.795 71.3982C100.711 71.2182 100.657 71.0622 100.633 70.9302C100.621 70.7862 100.615 70.5762 100.615 70.3002V61.2642H97.1589C96.7749 61.2642 96.4929 61.2222 96.3129 61.1382C96.1329 61.0422 96.0129 60.8982 95.9529 60.7062C95.8929 60.5142 95.8629 60.2622 95.8629 59.9502C95.8629 59.6382 95.8929 59.3922 95.9529 59.2122C96.0129 59.0202 96.1149 58.8882 96.2589 58.8162C96.4749 58.7082 96.7809 58.6542 97.1769 58.6542ZM109.659 63.9642C109.659 63.6882 109.665 63.4842 109.677 63.3522C109.701 63.2082 109.755 63.0462 109.839 62.8662C110.007 62.5542 110.475 62.3982 111.243 62.3982C111.819 62.3982 112.227 62.5002 112.467 62.7042C112.671 62.8722 112.779 63.1302 112.791 63.4782C112.803 63.5982 112.809 63.7722 112.809 64.0002V70.3002C112.809 70.5762 112.797 70.7862 112.773 70.9302C112.761 71.0622 112.707 71.2182 112.611 71.3982C112.455 71.7102 111.993 71.8662 111.225 71.8662C110.469 71.8662 110.007 71.7042 109.839 71.3802C109.755 71.2002 109.701 71.0442 109.677 70.9122C109.665 70.7802 109.659 70.5702 109.659 70.2822V63.9642ZM112.611 60.6342C112.527 60.8022 112.371 60.9222 112.143 60.9942C111.915 61.0662 111.609 61.1022 111.225 61.1022C110.853 61.1022 110.553 61.0662 110.325 60.9942C110.097 60.9222 109.935 60.7962 109.839 60.6162C109.755 60.4362 109.701 60.2802 109.677 60.1482C109.665 60.0042 109.659 59.7942 109.659 59.5182C109.659 59.2422 109.665 59.0382 109.677 58.9062C109.701 58.7622 109.755 58.6062 109.839 58.4382C110.007 58.1142 110.475 57.9522 111.243 57.9522C111.999 57.9522 112.455 58.1142 112.611 58.4382C112.707 58.6182 112.761 58.7802 112.773 58.9242C112.797 59.0562 112.809 59.2602 112.809 59.5362C112.809 59.8122 112.797 60.0222 112.773 60.1662C112.761 60.2982 112.707 60.4542 112.611 60.6342ZM117.523 63.6402C118.087 62.7882 118.765 62.3622 119.557 62.3622C120.781 62.3622 121.693 62.8842 122.293 63.9282C122.425 63.7482 122.581 63.5622 122.761 63.3702C122.953 63.1662 123.253 62.9502 123.661 62.7222C124.069 62.4822 124.489 62.3622 124.921 62.3622C125.881 62.3622 126.685 62.7342 127.333 63.4782C127.981 64.2102 128.305 65.4282 128.305 67.1322V70.2822C128.305 70.5582 128.293 70.7682 128.269 70.9122C128.257 71.0442 128.203 71.2002 128.107 71.3802C127.951 71.7042 127.489 71.8662 126.721 71.8662C125.965 71.8662 125.503 71.6982 125.335 71.3622C125.251 71.1822 125.197 71.0262 125.173 70.8942C125.161 70.7502 125.155 70.5402 125.155 70.2642V67.1142C125.155 66.0702 124.783 65.5482 124.039 65.5482C123.619 65.5482 123.331 65.6862 123.175 65.9622C123.031 66.2382 122.959 66.6282 122.959 67.1322V70.2822C122.959 70.5702 122.947 70.7802 122.923 70.9122C122.911 71.0442 122.857 71.2002 122.761 71.3802C122.593 71.7042 122.125 71.8662 121.357 71.8662C120.601 71.8662 120.139 71.6982 119.971 71.3622C119.887 71.1822 119.833 71.0262 119.809 70.8942C119.797 70.7502 119.791 70.5402 119.791 70.2642V67.1142C119.791 66.0702 119.419 65.5482 118.675 65.5482C117.955 65.5482 117.595 66.0702 117.595 67.1142V70.3002C117.595 70.5762 117.583 70.7862 117.559 70.9302C117.547 71.0622 117.493 71.2182 117.397 71.3982C117.217 71.7102 116.749 71.8662 115.993 71.8662C115.237 71.8662 114.775 71.7042 114.607 71.3802C114.523 71.2002 114.469 71.0442 114.445 70.9122C114.433 70.7802 114.427 70.5702 114.427 70.2822V63.9462C114.427 63.6702 114.433 63.4662 114.445 63.3342C114.469 63.1902 114.529 63.0342 114.625 62.8662C114.805 62.5422 115.231 62.3802 115.903 62.3802C116.575 62.3802 117.013 62.4882 117.217 62.7042C117.421 62.9202 117.523 63.2322 117.523 63.6402ZM139.061 65.9982C139.061 66.7302 138.875 67.2762 138.503 67.6362C138.143 67.9842 137.741 68.1582 137.297 68.1582H133.031C133.031 68.4942 133.229 68.7762 133.625 69.0042C134.021 69.2322 134.417 69.3462 134.813 69.3462C135.509 69.3462 136.055 69.2742 136.451 69.1302L136.649 69.0582C136.937 68.9262 137.177 68.8602 137.369 68.8602C137.753 68.8602 138.083 69.1302 138.359 69.6702C138.515 69.9942 138.593 70.2702 138.593 70.4982C138.593 71.5662 137.315 72.1002 134.759 72.1002C133.871 72.1002 133.079 71.9502 132.383 71.6502C131.699 71.3382 131.165 70.9302 130.781 70.4262C130.025 69.4542 129.647 68.3682 129.647 67.1682C129.647 65.6562 130.133 64.4502 131.105 63.5502C132.089 62.6382 133.313 62.1822 134.777 62.1822C136.445 62.1822 137.669 62.7702 138.449 63.9462C138.857 64.5702 139.061 65.2542 139.061 65.9982ZM135.263 66.5202C135.719 66.5202 135.947 66.3282 135.947 65.9442C135.947 65.6682 135.839 65.4462 135.623 65.2782C135.419 65.1102 135.119 65.0262 134.723 65.0262C134.339 65.0262 133.955 65.1882 133.571 65.5122C133.187 65.8242 132.995 66.1602 132.995 66.5202H135.263ZM140.596 69.1302C140.716 68.8902 140.896 68.7282 141.136 68.6442C141.388 68.5602 141.772 68.5182 142.288 68.5182C142.816 68.5182 143.194 68.6322 143.422 68.8602C143.662 69.0882 143.782 69.4482 143.782 69.9402V70.2282C143.782 70.5162 143.77 70.7322 143.746 70.8762C143.734 71.0082 143.68 71.1702 143.584 71.3622C143.392 71.7102 142.93 71.8842 142.198 71.8842C141.478 71.8842 140.998 71.7702 140.758 71.5422C140.53 71.3022 140.416 70.8462 140.416 70.1742C140.416 69.7062 140.476 69.3582 140.596 69.1302ZM143.008 67.0242C142.78 67.0842 142.474 67.1142 142.09 67.1142C141.706 67.1142 141.4 67.0842 141.172 67.0242C140.944 66.9642 140.782 66.8562 140.686 66.7002C140.602 66.5442 140.548 66.4062 140.524 66.2862C140.512 66.1662 140.506 65.9802 140.506 65.7282V60.0222C140.506 59.7702 140.512 59.5842 140.524 59.4642C140.548 59.3322 140.608 59.1882 140.704 59.0322C140.8 58.8762 140.962 58.7682 141.19 58.7082C141.418 58.6362 141.724 58.6002 142.108 58.6002C142.492 58.6002 142.798 58.6362 143.026 58.7082C143.254 58.7682 143.41 58.8822 143.494 59.0502C143.59 59.2062 143.644 59.3502 143.656 59.4822C143.68 59.6022 143.692 59.7882 143.692 60.0402V65.7462C143.692 65.9982 143.68 66.1842 143.656 66.3042C143.644 66.4242 143.59 66.5622 143.494 66.7182C143.398 66.8622 143.236 66.9642 143.008 67.0242Z" fill="#494949"/>
<path d="M18.5902 20.2562C18.5902 19.9802 18.5962 19.7762 18.6082 19.6442C18.6322 19.5002 18.6922 19.3382 18.7882 19.1582C18.9562 18.8342 19.4242 18.6722 20.1922 18.6722C21.0322 18.6722 21.5302 18.8942 21.6862 19.3382C21.7462 19.5422 21.7762 19.8542 21.7762 20.2742V30.2822C21.7762 30.5702 21.7642 30.7802 21.7402 30.9122C21.7282 31.0442 21.6742 31.2002 21.5782 31.3802C21.4102 31.7042 20.9422 31.8662 20.1742 31.8662C19.3342 31.8662 18.8422 31.6382 18.6982 31.1822C18.6262 30.9902 18.5902 30.6842 18.5902 30.2642V20.2562ZM28.9013 25.5662L27.7313 25.4942V27.9782C27.7313 28.3022 27.7793 28.5362 27.8753 28.6802C27.9833 28.8242 28.1753 28.8962 28.4513 28.8962C28.7393 28.8962 28.9553 28.9082 29.0993 28.9322C29.2553 28.9442 29.4173 28.9982 29.5853 29.0942C29.8613 29.2502 29.9993 29.6522 29.9993 30.3002C29.9993 31.0562 29.8313 31.5182 29.4953 31.6862C29.3153 31.7702 29.1533 31.8242 29.0093 31.8482C28.8773 31.8602 28.6793 31.8662 28.4153 31.8662C27.1673 31.8662 26.2193 31.5842 25.5713 31.0202C24.9233 30.4562 24.5993 29.5022 24.5993 28.1582V25.4942C24.3713 25.5302 24.1253 25.5482 23.8613 25.5482C23.5973 25.5482 23.3753 25.4462 23.1953 25.2422C23.0273 25.0382 22.9433 24.6902 22.9433 24.1982C22.9433 23.7062 22.9733 23.3522 23.0333 23.1362C23.0933 22.9082 23.1773 22.7462 23.2853 22.6502C23.4773 22.4942 23.7173 22.4162 24.0053 22.4162L24.5993 22.4882V20.6342C24.5993 20.3582 24.6053 20.1542 24.6173 20.0222C24.6413 19.8902 24.7013 19.7462 24.7973 19.5902C24.9533 19.2902 25.4153 19.1402 26.1833 19.1402C26.9993 19.1402 27.4853 19.3622 27.6413 19.8062C27.7013 19.9982 27.7313 20.3042 27.7313 20.7242V22.4882C28.2593 22.4402 28.6553 22.4162 28.9193 22.4162C29.1953 22.4162 29.3993 22.4282 29.5313 22.4522C29.6753 22.4642 29.8373 22.5182 30.0173 22.6142C30.3293 22.7702 30.4853 23.2322 30.4853 24.0002C30.4853 24.7562 30.3233 25.2182 29.9993 25.3862C29.8193 25.4702 29.6573 25.5242 29.5133 25.5482C29.3813 25.5602 29.1773 25.5662 28.9013 25.5662ZM34.2332 20.7062C34.2332 21.3902 34.1012 22.2782 33.8372 23.3702C33.5732 24.4622 33.2252 25.0082 32.7932 25.0082C32.3732 25.0082 32.0312 24.4622 31.7672 23.3702C31.5152 22.2782 31.3892 21.3002 31.3892 20.4362C31.3892 19.6802 31.4912 19.2062 31.6952 19.0142C31.9472 18.7862 32.2772 18.6722 32.6852 18.6722C33.1052 18.6722 33.4172 18.7202 33.6212 18.8162C33.8372 18.9002 33.9872 19.0382 34.0712 19.2302C34.1792 19.5302 34.2332 20.0222 34.2332 20.7062ZM35.0225 31.0202C34.7945 30.8762 34.6805 30.6482 34.6805 30.3362C34.6805 30.0242 34.9085 29.5502 35.3645 28.9142C35.4965 28.7102 35.7065 28.6082 35.9945 28.6082C36.2945 28.6082 36.6965 28.7582 37.2005 29.0582C37.7045 29.3462 38.1605 29.4902 38.5685 29.4902C39.3005 29.4902 39.6665 29.3462 39.6665 29.0582C39.6665 28.8302 39.2645 28.6622 38.4605 28.5542C37.7045 28.4462 36.9545 28.1642 36.2105 27.7082C35.8625 27.4922 35.5745 27.1562 35.3465 26.7002C35.1185 26.2322 35.0045 25.6802 35.0045 25.0442C35.0045 23.1482 36.3065 22.2002 38.9105 22.2002C39.7625 22.2002 40.6385 22.4042 41.5385 22.8122C41.9585 23.0042 42.1685 23.2442 42.1685 23.5322C42.1685 23.8202 42.0365 24.1742 41.7725 24.5942C41.5085 25.0142 41.2385 25.2242 40.9625 25.2242C40.8185 25.2242 40.5485 25.1342 40.1525 24.9542C39.7685 24.7742 39.3485 24.6842 38.8925 24.6842C38.1845 24.6842 37.8305 24.8162 37.8305 25.0802C37.8305 25.4402 38.2385 25.6742 39.0545 25.7822C39.8465 25.8662 40.6145 26.0942 41.3585 26.4662C41.7065 26.6342 41.9945 26.9282 42.2225 27.3482C42.4625 27.7562 42.5825 28.2722 42.5825 28.8962C42.5825 29.5202 42.4625 30.0542 42.2225 30.4982C41.9945 30.9302 41.6705 31.2542 41.2505 31.4702C40.4825 31.8422 39.5165 32.0282 38.3525 32.0282C37.2005 32.0282 36.0905 31.6922 35.0225 31.0202Z" fill="#494949"/>
<path d="M30.6743 38.6562C31.1249 39.5749 31.3503 40.5975 31.3503 41.7242C31.3503 42.8509 31.1249 43.8735 30.6743 44.7922C30.2236 45.6935 29.6429 46.4129 28.9323 46.9502C27.4936 48.0595 26.0029 48.6142 24.4603 48.6142H21.2103V51.5522C21.2103 51.9509 21.1929 52.2542 21.1583 52.4622C21.1409 52.6529 21.0629 52.8782 20.9243 53.1382C20.6816 53.6062 20.0056 53.8402 18.8963 53.8402C17.6829 53.8402 16.9723 53.5195 16.7643 52.8782C16.6603 52.5835 16.6083 52.1329 16.6083 51.5262V37.0962C16.6083 36.6975 16.6169 36.4029 16.6343 36.2122C16.6689 36.0042 16.7556 35.7702 16.8943 35.5102C17.1369 35.0422 17.8129 34.8082 18.9223 34.8082H24.4863C26.0116 34.8082 27.4936 35.3629 28.9323 36.4722C29.6429 37.0095 30.2236 37.7375 30.6743 38.6562ZM24.4863 44.0122C25.0063 44.0122 25.5176 43.8215 26.0203 43.4402C26.5229 43.0589 26.7743 42.4869 26.7743 41.7242C26.7743 40.9615 26.5229 40.3895 26.0203 40.0082C25.5176 39.6095 24.9976 39.4102 24.4603 39.4102H21.2103V44.0122H24.4863ZM47.882 50.6422C48.142 51.2662 48.272 51.7169 48.272 51.9942C48.272 52.6529 47.7347 53.2075 46.66 53.6582C46.1053 53.9009 45.6547 54.0222 45.308 54.0222C44.9787 54.0222 44.7013 53.9442 44.476 53.7882C44.268 53.6149 44.112 53.4415 44.008 53.2682C43.8347 52.9389 43.1587 51.3702 41.98 48.5622L41.174 48.6142H37.898V51.5522C37.898 51.9509 37.8807 52.2542 37.846 52.4622C37.8287 52.6529 37.7507 52.8782 37.612 53.1382C37.3693 53.6062 36.6933 53.8402 35.584 53.8402C34.3707 53.8402 33.66 53.5195 33.452 52.8782C33.348 52.5835 33.296 52.1329 33.296 51.5262V37.0962C33.296 36.6975 33.3047 36.4029 33.322 36.2122C33.3567 36.0042 33.4433 35.7702 33.582 35.5102C33.8247 35.0422 34.5007 34.8082 35.61 34.8082H41.226C42.7513 34.8082 44.2333 35.3629 45.672 36.4722C46.3653 37.0095 46.9373 37.7375 47.388 38.6562C47.8387 39.5749 48.064 40.5975 48.064 41.7242C48.064 43.6829 47.414 45.2949 46.114 46.5602C46.4953 47.4789 47.0847 48.8395 47.882 50.6422ZM37.898 44.0122H41.226C41.7287 44.0122 42.2313 43.8215 42.734 43.4402C43.2367 43.0589 43.488 42.4869 43.488 41.7242C43.488 40.9615 43.2367 40.3895 42.734 40.0082C42.2313 39.6095 41.7113 39.4102 41.174 39.4102H37.898V44.0122ZM54.5603 49.2642H62.5683C62.967 49.2642 63.2617 49.2815 63.4523 49.3162C63.6603 49.3335 63.8943 49.4115 64.1543 49.5502C64.6223 49.7929 64.8563 50.4689 64.8563 51.5782C64.8563 52.7915 64.5357 53.5022 63.8943 53.7102C63.5997 53.8142 63.149 53.8662 62.5423 53.8662H52.2463C51.033 53.8662 50.3223 53.5369 50.1143 52.8782C50.0103 52.6009 49.9583 52.1589 49.9583 51.5522V37.0962C49.9583 36.2122 50.123 35.6142 50.4523 35.3022C50.7817 34.9729 51.4057 34.8082 52.3243 34.8082H62.5683C62.967 34.8082 63.2617 34.8255 63.4523 34.8602C63.6603 34.8775 63.8943 34.9555 64.1543 35.0942C64.6223 35.3369 64.8563 36.0129 64.8563 37.1222C64.8563 38.3355 64.5357 39.0462 63.8943 39.2542C63.5997 39.3582 63.149 39.4102 62.5423 39.4102H54.5603V42.0362H59.7083C60.107 42.0362 60.4017 42.0535 60.5923 42.0882C60.8003 42.1055 61.0343 42.1835 61.2943 42.3222C61.7623 42.5649 61.9963 43.2409 61.9963 44.3502C61.9963 45.5635 61.667 46.2742 61.0083 46.4822C60.7137 46.5862 60.263 46.6382 59.6563 46.6382H54.5603V49.2642ZM78.7064 48.8742L79.1744 48.5362C79.7638 48.1895 80.1798 48.0162 80.4224 48.0162C80.9598 48.0162 81.5404 48.5015 82.1644 49.4722C82.5458 50.0789 82.7364 50.5642 82.7364 50.9282C82.7364 51.2922 82.6151 51.5955 82.3724 51.8382C82.1471 52.0809 81.8784 52.2975 81.5664 52.4882C81.2544 52.6789 80.9511 52.8609 80.6564 53.0342C80.3791 53.2075 79.7984 53.4329 78.9144 53.7102C78.0304 53.9875 77.1724 54.1262 76.3404 54.1262C75.5258 54.1262 74.6938 54.0222 73.8444 53.8142C73.0124 53.5889 72.1458 53.2249 71.2444 52.7222C70.3604 52.2022 69.5631 51.5782 68.8524 50.8502C68.1418 50.1049 67.5524 49.1602 67.0844 48.0162C66.6338 46.8549 66.4084 45.5982 66.4084 44.2462C66.4084 42.8942 66.6338 41.6722 67.0844 40.5802C67.5351 39.4709 68.1071 38.5609 68.8004 37.8502C69.5111 37.1222 70.3171 36.5155 71.2184 36.0302C72.9171 35.0942 74.6244 34.6262 76.3404 34.6262C77.1551 34.6262 77.9784 34.7562 78.8104 35.0162C79.6598 35.2589 80.3011 35.5102 80.7344 35.7702L81.3584 36.1342C81.6704 36.3249 81.9131 36.4809 82.0864 36.6022C82.5371 36.9662 82.7624 37.3822 82.7624 37.8502C82.7624 38.3009 82.5804 38.7775 82.2164 39.2802C81.5404 40.2162 80.9338 40.6842 80.3964 40.6842C80.0844 40.6842 79.6424 40.4935 79.0704 40.1122C78.3424 39.5229 77.3718 39.2282 76.1584 39.2282C75.0318 39.2282 73.9224 39.6182 72.8304 40.3982C72.3104 40.7795 71.8771 41.3169 71.5304 42.0102C71.1838 42.7035 71.0104 43.4922 71.0104 44.3762C71.0104 45.2429 71.1838 46.0229 71.5304 46.7162C71.8771 47.4095 72.3191 47.9555 72.8564 48.3542C73.9138 49.1169 75.0144 49.4982 76.1584 49.4982C76.6958 49.4982 77.1984 49.4289 77.6664 49.2902C78.1518 49.1515 78.4984 49.0129 78.7064 48.8742ZM84.7049 37.0962C84.7049 36.6975 84.7136 36.4029 84.7309 36.2122C84.7656 36.0042 84.8522 35.7702 84.9909 35.5102C85.2336 35.0422 85.9096 34.8082 87.0189 34.8082C88.2322 34.8082 88.9516 35.1289 89.1769 35.7702C89.2636 36.0649 89.3069 36.5155 89.3069 37.1222V51.5782C89.3069 51.9942 89.2896 52.2975 89.2549 52.4882C89.2376 52.6789 89.1596 52.9042 89.0209 53.1642C88.7782 53.6322 88.1022 53.8662 86.9929 53.8662C85.7796 53.8662 85.0689 53.5369 84.8609 52.8782C84.7569 52.6009 84.7049 52.1589 84.7049 51.5522V37.0962ZM100.587 34.5742C103.152 34.5742 105.379 35.5015 107.269 37.3562C109.158 39.2109 110.103 41.5162 110.103 44.2722C110.103 47.0109 109.201 49.3509 107.399 51.2922C105.596 53.2162 103.377 54.1782 100.743 54.1782C98.108 54.1782 95.8633 53.2249 94.0086 51.3182C92.1713 49.4115 91.2526 47.1409 91.2526 44.5062C91.2526 43.0675 91.5126 41.7242 92.0326 40.4762C92.5526 39.2109 93.246 38.1535 94.1126 37.3042C94.9793 36.4549 95.976 35.7875 97.1026 35.3022C98.2293 34.8169 99.3906 34.5742 100.587 34.5742ZM95.8546 44.3762C95.8546 45.9189 96.3486 47.1755 97.3366 48.1462C98.342 49.0995 99.46 49.5762 100.691 49.5762C101.921 49.5762 103.031 49.1082 104.019 48.1722C105.007 47.2362 105.501 45.9795 105.501 44.4022C105.501 42.8249 104.998 41.5595 103.993 40.6062C103.005 39.6529 101.895 39.1762 100.665 39.1762C99.434 39.1762 98.3246 39.6615 97.3366 40.6322C96.3486 41.5855 95.8546 42.8335 95.8546 44.3762ZM124.517 35.5102C124.69 35.2329 124.941 35.0422 125.271 34.9382C125.6 34.8342 126.007 34.7822 126.493 34.7822C126.995 34.7822 127.394 34.8255 127.689 34.9122C127.983 34.9989 128.209 35.1029 128.365 35.2242C128.521 35.3455 128.633 35.5275 128.703 35.7702C128.807 36.0649 128.859 36.5155 128.859 37.1222V44.9742C128.859 47.2622 128.148 49.3422 126.727 51.2142C126.033 52.0982 125.141 52.8175 124.049 53.3722C122.957 53.9095 121.743 54.1782 120.409 54.1782C119.091 54.1782 117.887 53.9009 116.795 53.3462C115.72 52.7915 114.845 52.0635 114.169 51.1622C112.765 49.3249 112.063 47.2449 112.063 44.9222V37.0962C112.063 36.6802 112.071 36.3769 112.089 36.1862C112.123 35.9782 112.21 35.7442 112.349 35.4842C112.487 35.2242 112.721 35.0422 113.051 34.9382C113.38 34.8342 113.822 34.7822 114.377 34.7822C114.931 34.7822 115.373 34.8342 115.703 34.9382C116.032 35.0422 116.257 35.2242 116.379 35.4842C116.587 35.8829 116.691 36.4289 116.691 37.1222V44.9222C116.691 45.9795 116.951 46.9849 117.471 47.9382C117.731 48.4235 118.121 48.8135 118.641 49.1082C119.161 49.4029 119.776 49.5502 120.487 49.5502C121.752 49.5502 122.697 49.0822 123.321 48.1462C123.945 47.2102 124.257 46.1269 124.257 44.8962V36.9402C124.257 36.2642 124.343 35.7875 124.517 35.5102ZM130.687 51.1882C130.236 50.6335 130.011 50.1395 130.011 49.7062C130.011 49.2555 130.384 48.6662 131.129 47.9382C131.562 47.5222 132.022 47.3142 132.507 47.3142C132.992 47.3142 133.668 47.7475 134.535 48.6142C134.778 48.9089 135.124 49.1949 135.575 49.4722C136.026 49.7322 136.442 49.8622 136.823 49.8622C138.435 49.8622 139.241 49.2035 139.241 47.8862C139.241 47.4875 139.016 47.1582 138.565 46.8982C138.132 46.6209 137.586 46.4215 136.927 46.3002C136.268 46.1789 135.558 45.9882 134.795 45.7282C134.032 45.4509 133.322 45.1302 132.663 44.7662C132.004 44.4022 131.45 43.8302 130.999 43.0502C130.566 42.2529 130.349 41.2995 130.349 40.1902C130.349 38.6649 130.912 37.3389 132.039 36.2122C133.183 35.0682 134.734 34.4962 136.693 34.4962C137.733 34.4962 138.678 34.6349 139.527 34.9122C140.394 35.1722 140.992 35.4409 141.321 35.7182L141.971 36.2122C142.508 36.7149 142.777 37.1395 142.777 37.4862C142.777 37.8329 142.569 38.3095 142.153 38.9162C141.564 39.7829 140.957 40.2162 140.333 40.2162C139.969 40.2162 139.518 40.0429 138.981 39.6962C138.929 39.6615 138.825 39.5749 138.669 39.4362C138.53 39.2975 138.4 39.1849 138.279 39.0982C137.915 38.8729 137.447 38.7602 136.875 38.7602C136.32 38.7602 135.852 38.8989 135.471 39.1762C135.107 39.4362 134.925 39.8089 134.925 40.2942C134.925 40.7622 135.142 41.1435 135.575 41.4382C136.026 41.7329 136.58 41.9322 137.239 42.0362C137.898 42.1402 138.617 42.3049 139.397 42.5302C140.177 42.7382 140.896 42.9982 141.555 43.3102C142.214 43.6222 142.76 44.1682 143.193 44.9482C143.644 45.7109 143.869 46.6555 143.869 47.7822C143.869 48.9089 143.644 49.9055 143.193 50.7722C142.742 51.6215 142.153 52.2802 141.425 52.7482C140.021 53.6669 138.522 54.1262 136.927 54.1262C136.112 54.1262 135.341 54.0309 134.613 53.8402C133.885 53.6322 133.296 53.3809 132.845 53.0862C131.926 52.5315 131.285 51.9942 130.921 51.4742L130.687 51.1882Z" fill="#D03801"/>
<path d="M148.044 133.922C131.044 124.366 104.044 125.866 88.5436 127.866C72.0121 129.999 61.9071 140.857 40.0437 131.866C9.91795 119.478 15.1289 92.815 27.189 79.4215C38.433 66.9342 54.9229 69.8689 63.0436 72.3663C71.1643 74.8638 78.0436 77.3663 84.0436 83.8663C92.5413 93.0721 113.544 90.9215 145.689 90.9215C161.355 90.9215 212.768 97.9215 218.39 116.239C220.644 123.583 225.336 140.57 207.689 144.922C171.189 153.922 172.8 147.836 148.044 133.922Z" fill="#FFD6C4"/>
<path d="M171.928 125.709H181.936C182.32 125.709 182.602 125.757 182.782 125.853C182.962 125.937 183.082 126.075 183.142 126.267C183.202 126.459 183.232 126.711 183.232 127.023C183.232 127.335 183.202 127.587 183.142 127.779C183.082 127.959 182.98 128.085 182.836 128.157C182.62 128.265 182.314 128.319 181.918 128.319H178.48V137.373C178.48 137.649 178.468 137.853 178.444 137.985C178.432 138.117 178.378 138.273 178.282 138.453C178.198 138.621 178.042 138.741 177.814 138.813C177.586 138.885 177.286 138.921 176.914 138.921C176.542 138.921 176.242 138.885 176.014 138.813C175.798 138.741 175.642 138.621 175.546 138.453C175.462 138.273 175.408 138.117 175.384 137.985C175.372 137.841 175.366 137.631 175.366 137.355V128.319H171.91C171.526 128.319 171.244 128.277 171.064 128.193C170.884 128.097 170.764 127.953 170.704 127.761C170.644 127.569 170.614 127.317 170.614 127.005C170.614 126.693 170.644 126.447 170.704 126.267C170.764 126.075 170.866 125.943 171.01 125.871C171.226 125.763 171.532 125.709 171.928 125.709ZM188.404 130.443C188.476 129.771 188.95 129.435 189.826 129.435C190.294 129.435 190.642 129.471 190.87 129.543C191.098 129.615 191.254 129.741 191.338 129.921C191.434 130.101 191.488 130.263 191.5 130.407C191.524 130.539 191.536 130.743 191.536 131.019V137.319C191.536 137.595 191.524 137.805 191.5 137.949C191.488 138.081 191.44 138.237 191.356 138.417C191.188 138.729 190.774 138.885 190.114 138.885C189.466 138.885 189.028 138.807 188.8 138.651C188.584 138.483 188.458 138.243 188.422 137.931C187.978 138.567 187.234 138.885 186.19 138.885C185.158 138.885 184.198 138.411 183.31 137.463C182.422 136.515 181.978 135.417 181.978 134.169C181.978 132.909 182.422 131.811 183.31 130.875C184.21 129.927 185.194 129.453 186.262 129.453C186.67 129.453 187.042 129.525 187.378 129.669C187.714 129.813 187.948 129.951 188.08 130.083C188.212 130.203 188.32 130.323 188.404 130.443ZM185.128 134.187C185.128 134.583 185.284 134.943 185.596 135.267C185.908 135.579 186.286 135.735 186.73 135.735C187.174 135.735 187.54 135.573 187.828 135.249C188.128 134.925 188.278 134.571 188.278 134.187C188.278 133.791 188.134 133.425 187.846 133.089C187.57 132.753 187.192 132.585 186.712 132.585C186.244 132.585 185.86 132.753 185.56 133.089C185.272 133.425 185.128 133.791 185.128 134.187ZM198.73 134.169L201.124 136.149C201.424 136.401 201.61 136.593 201.682 136.725C201.766 136.857 201.808 136.983 201.808 137.103C201.808 137.391 201.622 137.781 201.25 138.273C200.842 138.777 200.482 139.029 200.17 139.029C199.906 139.029 199.54 138.855 199.072 138.507L198.892 138.381C198.616 138.153 198.19 137.757 197.614 137.193C197.038 136.617 196.6 136.209 196.3 135.969V137.355C196.3 137.631 196.288 137.841 196.264 137.985C196.252 138.117 196.198 138.273 196.102 138.453C195.946 138.765 195.484 138.921 194.716 138.921C193.96 138.921 193.498 138.759 193.33 138.435C193.246 138.255 193.192 138.099 193.168 137.967C193.156 137.823 193.15 137.613 193.15 137.337V126.555C193.15 126.279 193.156 126.075 193.168 125.943C193.192 125.799 193.246 125.637 193.33 125.457C193.498 125.133 193.966 124.971 194.734 124.971C195.31 124.971 195.718 125.073 195.958 125.277C196.162 125.445 196.27 125.709 196.282 126.069C196.294 126.177 196.3 126.345 196.3 126.573V132.279C196.516 132.099 196.84 131.793 197.272 131.361C197.716 130.929 198.046 130.623 198.262 130.443L198.478 130.299C198.898 129.975 199.258 129.813 199.558 129.813C199.858 129.813 200.2 130.059 200.584 130.551C200.98 131.031 201.178 131.409 201.178 131.685C201.178 131.961 200.956 132.285 200.512 132.657L198.73 134.169ZM211.58 133.053C211.58 133.785 211.394 134.331 211.022 134.691C210.662 135.039 210.26 135.213 209.816 135.213H205.55C205.55 135.549 205.748 135.831 206.144 136.059C206.54 136.287 206.936 136.401 207.332 136.401C208.028 136.401 208.574 136.329 208.97 136.185L209.168 136.113C209.456 135.981 209.696 135.915 209.888 135.915C210.272 135.915 210.602 136.185 210.878 136.725C211.034 137.049 211.112 137.325 211.112 137.553C211.112 138.621 209.834 139.155 207.278 139.155C206.39 139.155 205.598 139.005 204.902 138.705C204.218 138.393 203.684 137.985 203.3 137.481C202.544 136.509 202.166 135.423 202.166 134.223C202.166 132.711 202.652 131.505 203.624 130.605C204.608 129.693 205.832 129.237 207.296 129.237C208.964 129.237 210.188 129.825 210.968 131.001C211.376 131.625 211.58 132.309 211.58 133.053ZM207.782 133.575C208.238 133.575 208.466 133.383 208.466 132.999C208.466 132.723 208.358 132.501 208.142 132.333C207.938 132.165 207.638 132.081 207.242 132.081C206.858 132.081 206.474 132.243 206.09 132.567C205.706 132.879 205.514 133.215 205.514 133.575H207.782Z" fill="#494949"/>
<path d="M37.1702 89.9654H40.3382C40.9862 89.9894 41.3822 90.1574 41.5262 90.4694C41.6462 90.6974 41.7062 91.0334 41.7062 91.4774V95.4374C41.7062 95.8214 41.5382 96.1874 41.2022 96.5354C40.1942 97.5794 38.6822 98.1014 36.6662 98.1014C34.8782 98.1014 33.3242 97.4294 32.0042 96.0854C30.6842 94.7294 30.0242 93.0974 30.0242 91.1894C30.0242 89.2814 30.6962 87.6914 32.0402 86.4194C33.3842 85.1354 34.9682 84.4934 36.7922 84.4934C38.2082 84.4934 39.5462 84.9614 40.8062 85.8974C41.1302 86.1374 41.2922 86.4074 41.2922 86.7074C41.2922 86.9954 41.1542 87.3314 40.8782 87.7154C40.4102 88.3514 39.9842 88.6694 39.6002 88.6694C39.3722 88.6694 39.0062 88.5074 38.5022 88.1834C37.9982 87.8474 37.3982 87.6794 36.7022 87.6794C35.7902 87.6794 34.9802 88.0034 34.2722 88.6514C33.5642 89.2874 33.2102 90.1274 33.2102 91.1714C33.2102 92.2034 33.5702 93.0854 34.2902 93.8174C35.0102 94.5374 35.8262 94.8974 36.7382 94.8974C37.3982 94.8974 37.9922 94.7894 38.5202 94.5734V92.6114H37.0982C36.7262 92.6114 36.4622 92.5634 36.3062 92.4674C36.1502 92.3714 36.0482 92.2334 36.0002 92.0534C35.9522 91.8614 35.9282 91.6094 35.9282 91.2974C35.9282 90.9734 35.9522 90.7154 36.0002 90.5234C36.0602 90.3314 36.1622 90.1994 36.3062 90.1274C36.5222 90.0194 36.8102 89.9654 37.1702 89.9654ZM43.3238 90.0194C43.3238 89.7434 43.3298 89.5394 43.3418 89.4074C43.3658 89.2634 43.4198 89.1014 43.5038 88.9214C43.6718 88.6094 44.1398 88.4534 44.9078 88.4534C45.4838 88.4534 45.8918 88.5554 46.1318 88.7594C46.3358 88.9274 46.4438 89.1854 46.4558 89.5334C46.4678 89.6534 46.4738 89.8274 46.4738 90.0554V96.3554C46.4738 96.6314 46.4618 96.8414 46.4378 96.9854C46.4258 97.1174 46.3718 97.2734 46.2758 97.4534C46.1198 97.7654 45.6578 97.9214 44.8898 97.9214C44.1338 97.9214 43.6718 97.7594 43.5038 97.4354C43.4198 97.2554 43.3658 97.0994 43.3418 96.9674C43.3298 96.8354 43.3238 96.6254 43.3238 96.3374V90.0194ZM46.2758 86.6894C46.1918 86.8574 46.0358 86.9774 45.8078 87.0494C45.5798 87.1214 45.2738 87.1574 44.8898 87.1574C44.5178 87.1574 44.2178 87.1214 43.9898 87.0494C43.7618 86.9774 43.5998 86.8514 43.5038 86.6714C43.4198 86.4914 43.3658 86.3354 43.3418 86.2034C43.3298 86.0594 43.3238 85.8494 43.3238 85.5734C43.3238 85.2974 43.3298 85.0934 43.3418 84.9614C43.3658 84.8174 43.4198 84.6614 43.5038 84.4934C43.6718 84.1694 44.1398 84.0074 44.9078 84.0074C45.6638 84.0074 46.1198 84.1694 46.2758 84.4934C46.3718 84.6734 46.4258 84.8354 46.4378 84.9794C46.4618 85.1114 46.4738 85.3154 46.4738 85.5914C46.4738 85.8674 46.4618 86.0774 46.4378 86.2214C46.4258 86.3534 46.3718 86.5094 46.2758 86.6894ZM57.6497 88.6514C58.2737 89.0234 58.5857 89.4194 58.5857 89.8394C58.5857 90.0794 58.4657 90.4094 58.2257 90.8294L54.4997 97.2194C54.3797 97.4234 54.1877 97.6094 53.9237 97.7774C53.6597 97.9334 53.3957 98.0114 53.1317 98.0114C52.8797 98.0114 52.6337 97.9514 52.3937 97.8314C52.1657 97.6994 52.0037 97.5674 51.9077 97.4354L51.7457 97.2374L48.0017 90.8294C47.7617 90.4334 47.6417 90.1094 47.6417 89.8574C47.6417 89.4254 47.9537 89.0234 48.5777 88.6514C49.0337 88.3874 49.3937 88.2554 49.6577 88.2554C49.9217 88.2554 50.1257 88.3394 50.2697 88.5074C50.4257 88.6634 50.5877 88.9034 50.7557 89.2274L53.1137 93.7634L55.4717 89.2274C55.6037 88.9994 55.6997 88.8374 55.7597 88.7414C55.8317 88.6334 55.9397 88.5314 56.0837 88.4354C56.2277 88.3274 56.4197 88.2734 56.6597 88.2734C56.8997 88.2734 57.2297 88.3994 57.6497 88.6514ZM68.3493 92.0534C68.3493 92.7854 68.1633 93.3314 67.7913 93.6914C67.4313 94.0394 67.0293 94.2134 66.5853 94.2134H62.3193C62.3193 94.5494 62.5173 94.8314 62.9133 95.0594C63.3093 95.2874 63.7053 95.4014 64.1013 95.4014C64.7973 95.4014 65.3433 95.3294 65.7393 95.1854L65.9373 95.1134C66.2253 94.9814 66.4653 94.9154 66.6573 94.9154C67.0413 94.9154 67.3713 95.1854 67.6473 95.7254C67.8033 96.0494 67.8813 96.3254 67.8813 96.5534C67.8813 97.6214 66.6033 98.1554 64.0473 98.1554C63.1593 98.1554 62.3673 98.0054 61.6713 97.7054C60.9873 97.3934 60.4533 96.9854 60.0693 96.4814C59.3133 95.5094 58.9353 94.4234 58.9353 93.2234C58.9353 91.7114 59.4213 90.5054 60.3933 89.6054C61.3773 88.6934 62.6013 88.2374 64.0653 88.2374C65.7333 88.2374 66.9573 88.8254 67.7373 90.0014C68.1453 90.6254 68.3493 91.3094 68.3493 92.0534ZM64.5513 92.5754C65.0073 92.5754 65.2353 92.3834 65.2353 91.9994C65.2353 91.7234 65.1273 91.5014 64.9113 91.3334C64.7073 91.1654 64.4073 91.0814 64.0113 91.0814C63.6273 91.0814 63.2433 91.2434 62.8593 91.5674C62.4753 91.8794 62.2833 92.2154 62.2833 92.5754H64.5513Z" fill="#494949"/>
<path d="M31.7976 101.837H46.2536C46.8083 101.837 47.2156 101.907 47.4756 102.045C47.7356 102.167 47.9089 102.366 47.9956 102.643C48.0822 102.921 48.1256 103.285 48.1256 103.735C48.1256 104.186 48.0822 104.55 47.9956 104.827C47.9089 105.087 47.7616 105.269 47.5536 105.373C47.2416 105.529 46.7996 105.607 46.2276 105.607H41.2616V118.685C41.2616 119.084 41.2442 119.379 41.2096 119.569C41.1922 119.76 41.1142 119.985 40.9756 120.245C40.8542 120.488 40.6289 120.661 40.2996 120.765C39.9702 120.869 39.5369 120.921 38.9996 120.921C38.4622 120.921 38.0289 120.869 37.6996 120.765C37.3876 120.661 37.1622 120.488 37.0236 120.245C36.9022 119.985 36.8242 119.76 36.7896 119.569C36.7722 119.361 36.7636 119.058 36.7636 118.659V105.607H31.7716C31.2169 105.607 30.8096 105.547 30.5496 105.425C30.2896 105.287 30.1162 105.079 30.0296 104.801C29.9429 104.524 29.8996 104.16 29.8996 103.709C29.8996 103.259 29.9429 102.903 30.0296 102.643C30.1162 102.366 30.2636 102.175 30.4716 102.071C30.7836 101.915 31.2256 101.837 31.7976 101.837ZM54.4292 116.319H62.4372C62.8358 116.319 63.1305 116.337 63.3212 116.371C63.5292 116.389 63.7632 116.467 64.0232 116.605C64.4912 116.848 64.7252 117.524 64.7252 118.633C64.7252 119.847 64.4045 120.557 63.7632 120.765C63.4685 120.869 63.0178 120.921 62.4112 120.921H52.1152C50.9018 120.921 50.1912 120.592 49.9832 119.933C49.8792 119.656 49.8272 119.214 49.8272 118.607V104.151C49.8272 103.267 49.9918 102.669 50.3212 102.357C50.6505 102.028 51.2745 101.863 52.1932 101.863H62.4372C62.8358 101.863 63.1305 101.881 63.3212 101.915C63.5292 101.933 63.7632 102.011 64.0232 102.149C64.4912 102.392 64.7252 103.068 64.7252 104.177C64.7252 105.391 64.4045 106.101 63.7632 106.309C63.4685 106.413 63.0178 106.465 62.4112 106.465H54.4292V109.091H59.5772C59.9758 109.091 60.2705 109.109 60.4612 109.143C60.6692 109.161 60.9032 109.239 61.1632 109.377C61.6312 109.62 61.8652 110.296 61.8652 111.405C61.8652 112.619 61.5358 113.329 60.8772 113.537C60.5825 113.641 60.1318 113.693 59.5252 113.693H54.4292V116.319ZM78.9652 102.669C79.1386 102.357 79.3899 102.149 79.7192 102.045C80.0486 101.941 80.4559 101.889 80.9412 101.889C81.4439 101.889 81.8426 101.933 82.1372 102.019C82.4492 102.106 82.6746 102.21 82.8132 102.331C82.9692 102.453 83.0819 102.635 83.1512 102.877C83.2552 103.155 83.3072 103.597 83.3072 104.203V118.633C83.3072 119.049 83.2899 119.353 83.2552 119.543C83.2379 119.734 83.1599 119.959 83.0212 120.219C82.7786 120.687 82.1026 120.921 80.9932 120.921C80.3172 120.921 79.8492 120.869 79.5892 120.765C79.3292 120.661 79.1126 120.497 78.9392 120.271C75.0392 115.071 72.4739 111.674 71.2432 110.079V118.633C71.2432 119.049 71.2259 119.353 71.1912 119.543C71.1739 119.734 71.0959 119.959 70.9572 120.219C70.7146 120.687 70.0386 120.921 68.9292 120.921C67.8546 120.921 67.1959 120.687 66.9532 120.219C66.8146 119.959 66.7279 119.725 66.6932 119.517C66.6759 119.309 66.6672 119.006 66.6672 118.607V104.099C66.6672 103.441 66.7452 102.964 66.9012 102.669C67.0746 102.357 67.3259 102.149 67.6552 102.045C67.9846 101.941 68.4092 101.889 68.9292 101.889C69.4492 101.889 69.8566 101.941 70.1512 102.045C70.4632 102.132 70.6799 102.236 70.8012 102.357C70.8706 102.409 71.0699 102.635 71.3992 103.033C75.0566 108.008 77.5006 111.293 78.7312 112.887V104.099C78.7312 103.441 78.8092 102.964 78.9652 102.669ZM112.73 102.591C112.869 102.851 112.947 103.085 112.964 103.293C112.999 103.501 113.016 103.805 113.016 104.203V118.633C113.016 119.829 112.687 120.531 112.028 120.739C111.699 120.843 111.283 120.895 110.78 120.895C110.278 120.895 109.879 120.852 109.584 120.765C109.29 120.679 109.064 120.575 108.908 120.453C108.752 120.332 108.631 120.159 108.544 119.933C108.458 119.639 108.414 119.188 108.414 118.581V109.871C107.981 110.409 107.348 111.267 106.516 112.445C105.684 113.607 105.156 114.335 104.93 114.629C104.705 114.924 104.549 115.132 104.462 115.253C104.376 115.357 104.159 115.513 103.812 115.721C103.483 115.912 103.119 116.007 102.72 116.007C102.339 116.007 101.984 115.921 101.654 115.747C101.342 115.557 101.117 115.375 100.978 115.201L100.77 114.915C100.424 114.482 99.739 113.563 98.7163 112.159C97.6936 110.738 97.139 109.975 97.0523 109.871V118.633C97.0523 119.032 97.035 119.335 97.0003 119.543C96.983 119.734 96.905 119.951 96.7663 120.193C96.5063 120.661 95.8303 120.895 94.7383 120.895C93.681 120.895 93.0223 120.661 92.7623 120.193C92.6236 119.951 92.537 119.725 92.5023 119.517C92.485 119.309 92.4763 118.997 92.4763 118.581V104.151C92.4763 103.753 92.485 103.458 92.5023 103.267C92.537 103.059 92.6236 102.825 92.7623 102.565C93.0223 102.115 93.6983 101.889 94.7903 101.889C95.2583 101.889 95.657 101.95 95.9863 102.071C96.333 102.175 96.5583 102.288 96.6623 102.409L96.8183 102.565L102.72 110.313C105.667 106.413 107.634 103.839 108.622 102.591C108.917 102.123 109.61 101.889 110.702 101.889C111.812 101.889 112.488 102.123 112.73 102.591ZM115.359 109.507C115.359 109.109 115.368 108.814 115.385 108.623C115.42 108.415 115.498 108.181 115.619 107.921C115.862 107.471 116.538 107.245 117.647 107.245C118.479 107.245 119.069 107.393 119.415 107.687C119.71 107.93 119.866 108.303 119.883 108.805C119.901 108.979 119.909 109.23 119.909 109.559V118.659C119.909 119.058 119.892 119.361 119.857 119.569C119.84 119.76 119.762 119.985 119.623 120.245C119.398 120.696 118.731 120.921 117.621 120.921C116.529 120.921 115.862 120.687 115.619 120.219C115.498 119.959 115.42 119.734 115.385 119.543C115.368 119.353 115.359 119.049 115.359 118.633V109.507ZM119.623 104.697C119.502 104.94 119.277 105.113 118.947 105.217C118.618 105.321 118.176 105.373 117.621 105.373C117.084 105.373 116.651 105.321 116.321 105.217C115.992 105.113 115.758 104.931 115.619 104.671C115.498 104.411 115.42 104.186 115.385 103.995C115.368 103.787 115.359 103.484 115.359 103.085C115.359 102.687 115.368 102.392 115.385 102.201C115.42 101.993 115.498 101.768 115.619 101.525C115.862 101.057 116.538 100.823 117.647 100.823C118.739 100.823 119.398 101.057 119.623 101.525C119.762 101.785 119.84 102.019 119.857 102.227C119.892 102.418 119.909 102.713 119.909 103.111C119.909 103.51 119.892 103.813 119.857 104.021C119.84 104.212 119.762 104.437 119.623 104.697ZM129.864 107.219C131.598 107.219 133.036 107.887 134.18 109.221C135.342 110.539 135.922 112.151 135.922 114.057V118.633C135.922 119.032 135.905 119.335 135.87 119.543C135.853 119.734 135.784 119.951 135.662 120.193C135.42 120.661 134.744 120.895 133.634 120.895C132.404 120.895 131.693 120.575 131.502 119.933C131.398 119.639 131.346 119.197 131.346 118.607V114.031C131.346 113.321 131.138 112.766 130.722 112.367C130.324 111.969 129.778 111.769 129.084 111.769C128.408 111.769 127.854 111.977 127.42 112.393C127.004 112.809 126.796 113.355 126.796 114.031V118.633C126.796 119.032 126.779 119.335 126.744 119.543C126.727 119.734 126.649 119.951 126.51 120.193C126.285 120.661 125.618 120.895 124.508 120.895C123.416 120.895 122.749 120.661 122.506 120.193C122.385 119.933 122.307 119.708 122.272 119.517C122.255 119.309 122.246 119.006 122.246 118.607V109.403C122.246 109.022 122.255 108.736 122.272 108.545C122.307 108.337 122.394 108.112 122.532 107.869C122.775 107.436 123.442 107.219 124.534 107.219C125.592 107.219 126.242 107.419 126.484 107.817C126.658 108.112 126.744 108.467 126.744 108.883C126.814 108.762 126.97 108.589 127.212 108.363C127.455 108.138 127.689 107.956 127.914 107.817C128.504 107.419 129.154 107.219 129.864 107.219ZM144.358 120.869C142.607 120.869 141.151 120.211 139.99 118.893C138.846 117.559 138.274 115.938 138.274 114.031V109.481C138.274 109.065 138.283 108.762 138.3 108.571C138.335 108.381 138.413 108.155 138.534 107.895C138.777 107.427 139.453 107.193 140.562 107.193C141.775 107.193 142.486 107.523 142.694 108.181C142.798 108.459 142.85 108.901 142.85 109.507V114.057C142.85 114.768 143.049 115.323 143.448 115.721C143.864 116.12 144.41 116.319 145.086 116.319C145.779 116.319 146.334 116.111 146.75 115.695C147.183 115.279 147.4 114.733 147.4 114.057V109.455C147.4 109.057 147.409 108.762 147.426 108.571C147.461 108.363 147.547 108.129 147.686 107.869C147.911 107.419 148.579 107.193 149.688 107.193C150.78 107.193 151.447 107.427 151.69 107.895C151.811 108.155 151.881 108.389 151.898 108.597C151.933 108.788 151.95 109.083 151.95 109.481V118.685C151.95 119.067 151.933 119.361 151.898 119.569C151.881 119.76 151.803 119.977 151.664 120.219C151.404 120.67 150.737 120.895 149.662 120.895C148.605 120.895 147.955 120.687 147.712 120.271C147.539 119.977 147.452 119.621 147.452 119.205C147.383 119.327 147.227 119.5 146.984 119.725C146.741 119.951 146.507 120.141 146.282 120.297C145.693 120.679 145.051 120.869 144.358 120.869ZM162.257 111.821L160.567 111.717V115.305C160.567 115.773 160.637 116.111 160.775 116.319C160.931 116.527 161.209 116.631 161.607 116.631C162.023 116.631 162.335 116.649 162.543 116.683C162.769 116.701 163.003 116.779 163.245 116.917C163.644 117.143 163.843 117.723 163.843 118.659C163.843 119.751 163.601 120.419 163.115 120.661C162.855 120.783 162.621 120.861 162.413 120.895C162.223 120.913 161.937 120.921 161.555 120.921C159.753 120.921 158.383 120.514 157.447 119.699C156.511 118.885 156.043 117.507 156.043 115.565V111.717C155.714 111.769 155.359 111.795 154.977 111.795C154.596 111.795 154.275 111.648 154.015 111.353C153.773 111.059 153.651 110.556 153.651 109.845C153.651 109.135 153.695 108.623 153.781 108.311C153.868 107.982 153.989 107.748 154.145 107.609C154.423 107.384 154.769 107.271 155.185 107.271L156.043 107.375V104.697C156.043 104.299 156.052 104.004 156.069 103.813C156.104 103.623 156.191 103.415 156.329 103.189C156.555 102.756 157.222 102.539 158.331 102.539C159.51 102.539 160.212 102.86 160.437 103.501C160.524 103.779 160.567 104.221 160.567 104.827V107.375C161.33 107.306 161.902 107.271 162.283 107.271C162.682 107.271 162.977 107.289 163.167 107.323C163.375 107.341 163.609 107.419 163.869 107.557C164.32 107.783 164.545 108.45 164.545 109.559C164.545 110.651 164.311 111.319 163.843 111.561C163.583 111.683 163.349 111.761 163.141 111.795C162.951 111.813 162.656 111.821 162.257 111.821ZM178.941 112.445C178.941 113.503 178.673 114.291 178.135 114.811C177.615 115.314 177.035 115.565 176.393 115.565H170.231C170.231 116.051 170.517 116.458 171.089 116.787C171.661 117.117 172.233 117.281 172.805 117.281C173.811 117.281 174.599 117.177 175.171 116.969L175.457 116.865C175.873 116.675 176.22 116.579 176.497 116.579C177.052 116.579 177.529 116.969 177.927 117.749C178.153 118.217 178.265 118.616 178.265 118.945C178.265 120.488 176.419 121.259 172.727 121.259C171.445 121.259 170.301 121.043 169.295 120.609C168.307 120.159 167.536 119.569 166.981 118.841C165.889 117.437 165.343 115.869 165.343 114.135C165.343 111.951 166.045 110.209 167.449 108.909C168.871 107.592 170.639 106.933 172.753 106.933C175.163 106.933 176.931 107.783 178.057 109.481C178.647 110.383 178.941 111.371 178.941 112.445ZM173.455 113.199C174.114 113.199 174.443 112.922 174.443 112.367C174.443 111.969 174.287 111.648 173.975 111.405C173.681 111.163 173.247 111.041 172.675 111.041C172.121 111.041 171.566 111.275 171.011 111.743C170.457 112.194 170.179 112.679 170.179 113.199H173.455ZM181.002 119.699C180.672 119.491 180.508 119.162 180.508 118.711C180.508 118.261 180.837 117.576 181.496 116.657C181.686 116.363 181.99 116.215 182.406 116.215C182.839 116.215 183.42 116.432 184.148 116.865C184.876 117.281 185.534 117.489 186.124 117.489C187.181 117.489 187.71 117.281 187.71 116.865C187.71 116.536 187.129 116.293 185.968 116.137C184.876 115.981 183.792 115.574 182.718 114.915C182.215 114.603 181.799 114.118 181.47 113.459C181.14 112.783 180.976 111.986 180.976 111.067C180.976 108.329 182.856 106.959 186.618 106.959C187.848 106.959 189.114 107.254 190.414 107.843C191.02 108.121 191.324 108.467 191.324 108.883C191.324 109.299 191.133 109.811 190.752 110.417C190.37 111.024 189.98 111.327 189.582 111.327C189.374 111.327 188.984 111.197 188.412 110.937C187.857 110.677 187.25 110.547 186.592 110.547C185.569 110.547 185.058 110.738 185.058 111.119C185.058 111.639 185.647 111.977 186.826 112.133C187.97 112.255 189.079 112.584 190.154 113.121C190.656 113.364 191.072 113.789 191.402 114.395C191.748 114.985 191.922 115.73 191.922 116.631C191.922 117.533 191.748 118.304 191.402 118.945C191.072 119.569 190.604 120.037 189.998 120.349C188.888 120.887 187.493 121.155 185.812 121.155C184.148 121.155 182.544 120.67 181.002 119.699ZM197.908 116.631C198.203 116.926 198.35 117.533 198.35 118.451V118.555C198.35 118.971 198.333 119.283 198.298 119.491C198.281 119.682 198.194 119.916 198.038 120.193C197.778 120.696 197.12 120.947 196.062 120.947C195.022 120.947 194.329 120.783 193.982 120.453C193.653 120.124 193.488 119.5 193.488 118.581V118.477C193.488 118.079 193.497 117.775 193.514 117.567C193.549 117.359 193.636 117.125 193.774 116.865C194.034 116.345 194.684 116.085 195.724 116.085C196.782 116.085 197.51 116.267 197.908 116.631ZM204.338 116.631C204.633 116.926 204.78 117.533 204.78 118.451V118.555C204.78 118.971 204.763 119.283 204.728 119.491C204.711 119.682 204.624 119.916 204.468 120.193C204.208 120.696 203.55 120.947 202.492 120.947C201.452 120.947 200.759 120.783 200.412 120.453C200.083 120.124 199.918 119.5 199.918 118.581V118.477C199.918 118.079 199.927 117.775 199.944 117.567C199.979 117.359 200.066 117.125 200.204 116.865C200.464 116.345 201.114 116.085 202.154 116.085C203.212 116.085 203.94 116.267 204.338 116.631ZM210.768 116.631C211.063 116.926 211.21 117.533 211.21 118.451V118.555C211.21 118.971 211.193 119.283 211.158 119.491C211.141 119.682 211.054 119.916 210.898 120.193C210.638 120.696 209.98 120.947 208.922 120.947C207.882 120.947 207.189 120.783 206.842 120.453C206.513 120.124 206.348 119.5 206.348 118.581V118.477C206.348 118.079 206.357 117.775 206.374 117.567C206.409 117.359 206.496 117.125 206.634 116.865C206.894 116.345 207.544 116.085 208.584 116.085C209.642 116.085 210.37 116.267 210.768 116.631Z" fill="#D03801"/>
<path d="M147.544 193.367C140.044 193.367 121.237 191.817 111.544 190.867C92.5 189 96.0001 189.581 81.3042 187.133C66.6084 184.684 51.6069 151.039 65 141.367C74.0001 134.867 100.84 132.133 107.804 132.133C119.044 132.133 141.515 132.659 144.544 141.367C148.544 152.867 162.544 157.367 183.544 157.367C196.084 157.367 199.304 166.687 199.304 179.633C199.304 191.367 185.759 193.367 174.044 193.367H147.544Z" fill="#FFD6C4"/>
<path d="M83.1617 142.049H97.6177C98.1724 142.049 98.5797 142.118 98.8397 142.257C99.0997 142.378 99.273 142.577 99.3597 142.855C99.4463 143.132 99.4897 143.496 99.4897 143.947C99.4897 144.397 99.4463 144.761 99.3597 145.039C99.273 145.299 99.1257 145.481 98.9177 145.585C98.6057 145.741 98.1637 145.819 97.5917 145.819H92.6257V158.897C92.6257 159.295 92.6083 159.59 92.5737 159.781C92.5563 159.971 92.4783 160.197 92.3397 160.457C92.2183 160.699 91.993 160.873 91.6637 160.977C91.3343 161.081 90.901 161.133 90.3637 161.133C89.8263 161.133 89.393 161.081 89.0637 160.977C88.7517 160.873 88.5263 160.699 88.3877 160.457C88.2663 160.197 88.1883 159.971 88.1537 159.781C88.1363 159.573 88.1277 159.269 88.1277 158.871V145.819H83.1357C82.581 145.819 82.1737 145.758 81.9137 145.637C81.6537 145.498 81.4803 145.29 81.3937 145.013C81.307 144.735 81.2637 144.371 81.2637 143.921C81.2637 143.47 81.307 143.115 81.3937 142.855C81.4803 142.577 81.6277 142.387 81.8357 142.283C82.1477 142.127 82.5897 142.049 83.1617 142.049ZM108.586 141.841C111.152 141.841 113.379 142.768 115.268 144.623C117.158 146.477 118.102 148.783 118.102 151.539C118.102 154.277 117.201 156.617 115.398 158.559C113.596 160.483 111.377 161.445 108.742 161.445C106.108 161.445 103.863 160.491 102.008 158.585C100.171 156.678 99.2524 154.407 99.2524 151.773C99.2524 150.334 99.5124 148.991 100.032 147.743C100.552 146.477 101.246 145.42 102.112 144.571C102.979 143.721 103.976 143.054 105.102 142.569C106.229 142.083 107.39 141.841 108.586 141.841ZM103.854 151.643C103.854 153.185 104.348 154.442 105.336 155.413C106.342 156.366 107.46 156.843 108.69 156.843C109.921 156.843 111.03 156.375 112.018 155.439C113.006 154.503 113.5 153.246 113.5 151.669C113.5 150.091 112.998 148.826 111.992 147.873C111.004 146.919 109.895 146.443 108.664 146.443C107.434 146.443 106.324 146.928 105.336 147.899C104.348 148.852 103.854 150.1 103.854 151.643ZM132.361 142.881C132.534 142.569 132.785 142.361 133.115 142.257C133.444 142.153 133.851 142.101 134.337 142.101C134.839 142.101 135.238 142.144 135.533 142.231C135.845 142.317 136.07 142.421 136.209 142.543C136.365 142.664 136.477 142.846 136.547 143.089C136.651 143.366 136.703 143.808 136.703 144.415V158.845C136.703 159.261 136.685 159.564 136.651 159.755C136.633 159.945 136.555 160.171 136.417 160.431C136.174 160.899 135.498 161.133 134.389 161.133C133.713 161.133 133.245 161.081 132.985 160.977C132.725 160.873 132.508 160.708 132.335 160.483C128.435 155.283 125.869 151.885 124.639 150.291V158.845C124.639 159.261 124.621 159.564 124.587 159.755C124.569 159.945 124.491 160.171 124.353 160.431C124.11 160.899 123.434 161.133 122.325 161.133C121.25 161.133 120.591 160.899 120.349 160.431C120.21 160.171 120.123 159.937 120.089 159.729C120.071 159.521 120.063 159.217 120.063 158.819V144.311C120.063 143.652 120.141 143.175 120.297 142.881C120.47 142.569 120.721 142.361 121.051 142.257C121.38 142.153 121.805 142.101 122.325 142.101C122.845 142.101 123.252 142.153 123.547 142.257C123.859 142.343 124.075 142.447 124.197 142.569C124.266 142.621 124.465 142.846 124.795 143.245C128.452 148.219 130.896 151.504 132.127 153.099V144.311C132.127 143.652 132.205 143.175 132.361 142.881Z" fill="#D03801"/>
<path d="M81.4824 177.399C81.4824 175.959 81.9864 174.771 82.9944 173.835C84.0024 172.899 85.1544 172.431 86.4504 172.431C87.7464 172.431 88.8924 172.899 89.8884 173.835C90.8844 174.759 91.3824 175.941 91.3824 177.381C91.3824 178.377 91.1244 179.265 90.6084 180.045C90.0924 180.813 89.4624 181.383 88.7184 181.755C87.9864 182.115 87.2244 182.295 86.4324 182.295C85.6404 182.295 84.8724 182.103 84.1284 181.719C83.3844 181.323 82.7544 180.747 82.2384 179.991C81.7344 179.223 81.4824 178.359 81.4824 177.399ZM85.2444 178.695C85.6284 178.983 86.0184 179.127 86.4144 179.127C86.8104 179.127 87.2064 178.977 87.6024 178.677C87.9984 178.377 88.1964 177.933 88.1964 177.345C88.1964 176.757 88.0104 176.319 87.6384 176.031C87.2664 175.743 86.8644 175.599 86.4324 175.599C86.0004 175.599 85.5984 175.749 85.2264 176.049C84.8544 176.349 84.6684 176.793 84.6684 177.381C84.6684 177.957 84.8604 178.395 85.2444 178.695ZM97.9178 172.665C98.7458 172.665 99.2318 172.893 99.3758 173.349C99.4478 173.577 99.4838 173.877 99.4838 174.249C99.4838 174.621 99.4418 174.921 99.3578 175.149C99.2858 175.365 99.1658 175.521 98.9978 175.617C98.7458 175.761 98.3798 175.833 97.8998 175.833L96.7478 175.761V180.585C96.7478 181.041 96.6878 181.383 96.5678 181.611C96.4598 181.827 96.2858 181.971 96.0458 182.043C95.8178 182.115 95.5178 182.151 95.1458 182.151C94.7738 182.151 94.4738 182.115 94.2458 182.043C94.0298 181.959 93.8738 181.833 93.7778 181.665C93.6818 181.485 93.6218 181.323 93.5978 181.179C93.5858 181.035 93.5798 180.825 93.5798 180.549V175.779H92.9318C92.6198 175.755 92.3978 175.683 92.2658 175.563C92.0378 175.335 91.9238 174.897 91.9238 174.249C91.9238 173.265 92.2778 172.773 92.9858 172.773H93.5798V171.819C93.5798 170.895 93.9098 170.061 94.5698 169.317C95.2298 168.561 96.1838 168.183 97.4318 168.183C97.7078 168.183 97.9118 168.195 98.0438 168.219C98.1878 168.231 98.3498 168.285 98.5298 168.381C98.8538 168.537 99.0158 168.999 99.0158 169.767C99.0158 170.343 98.9138 170.757 98.7098 171.009C98.5418 171.201 98.2778 171.309 97.9178 171.333C97.8098 171.333 97.6418 171.333 97.4138 171.333C96.9698 171.333 96.7478 171.483 96.7478 171.783V172.773L97.9178 172.665ZM114.786 175.059C115.494 175.899 115.848 176.841 115.848 177.885C115.824 179.085 115.41 180.093 114.606 180.909C113.814 181.713 112.848 182.115 111.708 182.115H106.974C106.134 182.115 105.642 181.887 105.498 181.431C105.426 181.227 105.39 180.915 105.39 180.495V170.505C105.39 170.217 105.396 170.007 105.408 169.875C105.432 169.743 105.492 169.587 105.588 169.407C105.756 169.083 106.224 168.921 106.992 168.921H111.528C112.632 168.921 113.556 169.305 114.3 170.073C115.08 170.853 115.47 171.789 115.47 172.881C115.47 173.673 115.242 174.399 114.786 175.059ZM112.662 177.705C112.662 177.417 112.626 177.189 112.554 177.021C112.494 176.853 112.386 176.733 112.23 176.661C111.99 176.565 111.654 176.517 111.222 176.517C110.79 176.517 110.466 176.433 110.25 176.265C110.034 176.097 109.926 175.755 109.926 175.239C109.926 174.711 110.034 174.363 110.25 174.195C110.478 174.027 110.85 173.943 111.366 173.943C111.846 173.943 112.134 173.817 112.23 173.565C112.266 173.433 112.284 173.217 112.284 172.917C112.284 172.617 112.182 172.407 111.978 172.287C111.786 172.167 111.492 172.107 111.096 172.107H108.576V178.929H111.528C112.284 178.929 112.662 178.521 112.662 177.705ZM126.351 176.265C126.351 176.997 126.165 177.543 125.793 177.903C125.433 178.251 125.031 178.425 124.587 178.425H120.321C120.321 178.761 120.519 179.043 120.915 179.271C121.311 179.499 121.707 179.613 122.103 179.613C122.799 179.613 123.345 179.541 123.741 179.397L123.939 179.325C124.227 179.193 124.467 179.127 124.659 179.127C125.043 179.127 125.373 179.397 125.649 179.937C125.805 180.261 125.883 180.537 125.883 180.765C125.883 181.833 124.605 182.367 122.049 182.367C121.161 182.367 120.369 182.217 119.673 181.917C118.989 181.605 118.455 181.197 118.071 180.693C117.315 179.721 116.937 178.635 116.937 177.435C116.937 175.923 117.423 174.717 118.395 173.817C119.379 172.905 120.603 172.449 122.067 172.449C123.735 172.449 124.959 173.037 125.739 174.213C126.147 174.837 126.351 175.521 126.351 176.265ZM122.553 176.787C123.009 176.787 123.237 176.595 123.237 176.211C123.237 175.935 123.129 175.713 122.913 175.545C122.709 175.377 122.409 175.293 122.013 175.293C121.629 175.293 121.245 175.455 120.861 175.779C120.477 176.091 120.285 176.427 120.285 176.787H122.553ZM132.979 172.647C134.179 172.647 135.175 173.109 135.967 174.033C136.771 174.945 137.173 176.061 137.173 177.381V180.549C137.173 180.825 137.161 181.035 137.137 181.179C137.125 181.311 137.077 181.461 136.993 181.629C136.825 181.953 136.357 182.115 135.589 182.115C134.737 182.115 134.245 181.893 134.113 181.449C134.041 181.245 134.005 180.939 134.005 180.531V177.363C134.005 176.871 133.861 176.487 133.573 176.211C133.297 175.935 132.919 175.797 132.439 175.797C131.971 175.797 131.587 175.941 131.287 176.229C130.999 176.517 130.855 176.895 130.855 177.363V180.549C130.855 180.825 130.843 181.035 130.819 181.179C130.807 181.311 130.753 181.461 130.657 181.629C130.501 181.953 130.039 182.115 129.271 182.115C128.515 182.115 128.053 181.953 127.885 181.629C127.801 181.449 127.747 181.293 127.723 181.161C127.711 181.017 127.705 180.807 127.705 180.531V174.159C127.705 173.895 127.711 173.697 127.723 173.565C127.747 173.421 127.807 173.265 127.903 173.097C128.071 172.797 128.533 172.647 129.289 172.647C130.021 172.647 130.471 172.785 130.639 173.061C130.759 173.265 130.819 173.511 130.819 173.799C130.867 173.715 130.975 173.595 131.143 173.439C131.311 173.283 131.473 173.157 131.629 173.061C132.037 172.785 132.487 172.647 132.979 172.647ZM147.945 176.265C147.945 176.997 147.759 177.543 147.387 177.903C147.027 178.251 146.625 178.425 146.181 178.425H141.915C141.915 178.761 142.113 179.043 142.509 179.271C142.905 179.499 143.301 179.613 143.697 179.613C144.393 179.613 144.939 179.541 145.335 179.397L145.533 179.325C145.821 179.193 146.061 179.127 146.253 179.127C146.637 179.127 146.967 179.397 147.243 179.937C147.399 180.261 147.477 180.537 147.477 180.765C147.477 181.833 146.199 182.367 143.643 182.367C142.755 182.367 141.963 182.217 141.267 181.917C140.583 181.605 140.049 181.197 139.665 180.693C138.909 179.721 138.531 178.635 138.531 177.435C138.531 175.923 139.017 174.717 139.989 173.817C140.973 172.905 142.197 172.449 143.661 172.449C145.329 172.449 146.553 173.037 147.333 174.213C147.741 174.837 147.945 175.521 147.945 176.265ZM144.147 176.787C144.603 176.787 144.831 176.595 144.831 176.211C144.831 175.935 144.723 175.713 144.507 175.545C144.303 175.377 144.003 175.293 143.607 175.293C143.223 175.293 142.839 175.455 142.455 175.779C142.071 176.091 141.879 176.427 141.879 176.787H144.147ZM154.668 172.665C155.496 172.665 155.982 172.893 156.126 173.349C156.198 173.577 156.234 173.877 156.234 174.249C156.234 174.621 156.192 174.921 156.108 175.149C156.036 175.365 155.916 175.521 155.748 175.617C155.496 175.761 155.13 175.833 154.65 175.833L153.498 175.761V180.585C153.498 181.041 153.438 181.383 153.318 181.611C153.21 181.827 153.036 181.971 152.796 182.043C152.568 182.115 152.268 182.151 151.896 182.151C151.524 182.151 151.224 182.115 150.996 182.043C150.78 181.959 150.624 181.833 150.528 181.665C150.432 181.485 150.372 181.323 150.348 181.179C150.336 181.035 150.33 180.825 150.33 180.549V175.779H149.682C149.37 175.755 149.148 175.683 149.016 175.563C148.788 175.335 148.674 174.897 148.674 174.249C148.674 173.265 149.028 172.773 149.736 172.773H150.33V171.819C150.33 170.895 150.66 170.061 151.32 169.317C151.98 168.561 152.934 168.183 154.182 168.183C154.458 168.183 154.662 168.195 154.794 168.219C154.938 168.231 155.1 168.285 155.28 168.381C155.604 168.537 155.766 168.999 155.766 169.767C155.766 170.343 155.664 170.757 155.46 171.009C155.292 171.201 155.028 171.309 154.668 171.333C154.56 171.333 154.392 171.333 154.164 171.333C153.72 171.333 153.498 171.483 153.498 171.783V172.773L154.668 172.665ZM157.296 174.231C157.296 173.955 157.302 173.751 157.314 173.619C157.338 173.475 157.392 173.313 157.476 173.133C157.644 172.821 158.112 172.665 158.88 172.665C159.456 172.665 159.864 172.767 160.104 172.971C160.308 173.139 160.416 173.397 160.428 173.745C160.44 173.865 160.446 174.039 160.446 174.267V180.567C160.446 180.843 160.434 181.053 160.41 181.197C160.398 181.329 160.344 181.485 160.248 181.665C160.092 181.977 159.63 182.133 158.862 182.133C158.106 182.133 157.644 181.971 157.476 181.647C157.392 181.467 157.338 181.311 157.314 181.179C157.302 181.047 157.296 180.837 157.296 180.549V174.231ZM160.248 170.901C160.164 171.069 160.008 171.189 159.78 171.261C159.552 171.333 159.246 171.369 158.862 171.369C158.49 171.369 158.19 171.333 157.962 171.261C157.734 171.189 157.572 171.063 157.476 170.883C157.392 170.703 157.338 170.547 157.314 170.415C157.302 170.271 157.296 170.061 157.296 169.785C157.296 169.509 157.302 169.305 157.314 169.173C157.338 169.029 157.392 168.873 157.476 168.705C157.644 168.381 158.112 168.219 158.88 168.219C159.636 168.219 160.092 168.381 160.248 168.705C160.344 168.885 160.398 169.047 160.41 169.191C160.434 169.323 160.446 169.527 160.446 169.803C160.446 170.079 160.434 170.289 160.41 170.433C160.398 170.565 160.344 170.721 160.248 170.901ZM167.573 175.833L166.403 175.761V178.245C166.403 178.569 166.451 178.803 166.547 178.947C166.655 179.091 166.847 179.163 167.123 179.163C167.411 179.163 167.627 179.175 167.771 179.199C167.927 179.211 168.089 179.265 168.257 179.361C168.533 179.517 168.671 179.919 168.671 180.567C168.671 181.323 168.503 181.785 168.167 181.953C167.987 182.037 167.825 182.091 167.681 182.115C167.549 182.127 167.351 182.133 167.087 182.133C165.839 182.133 164.891 181.851 164.243 181.287C163.595 180.723 163.271 179.769 163.271 178.425V175.761C163.043 175.797 162.797 175.815 162.533 175.815C162.269 175.815 162.047 175.713 161.867 175.509C161.699 175.305 161.615 174.957 161.615 174.465C161.615 173.973 161.645 173.619 161.705 173.403C161.765 173.175 161.849 173.013 161.957 172.917C162.149 172.761 162.389 172.683 162.677 172.683L163.271 172.755V170.901C163.271 170.625 163.277 170.421 163.289 170.289C163.313 170.157 163.373 170.013 163.469 169.857C163.625 169.557 164.087 169.407 164.855 169.407C165.671 169.407 166.157 169.629 166.313 170.073C166.373 170.265 166.403 170.571 166.403 170.991V172.755C166.931 172.707 167.327 172.683 167.591 172.683C167.867 172.683 168.071 172.695 168.203 172.719C168.347 172.731 168.509 172.785 168.689 172.881C169.001 173.037 169.157 173.499 169.157 174.267C169.157 175.023 168.995 175.485 168.671 175.653C168.491 175.737 168.329 175.791 168.185 175.815C168.053 175.827 167.849 175.833 167.573 175.833ZM170.403 181.287C170.175 181.143 170.061 180.915 170.061 180.603C170.061 180.291 170.289 179.817 170.745 179.181C170.877 178.977 171.087 178.875 171.375 178.875C171.675 178.875 172.077 179.025 172.581 179.325C173.085 179.613 173.541 179.757 173.949 179.757C174.681 179.757 175.047 179.613 175.047 179.325C175.047 179.097 174.645 178.929 173.841 178.821C173.085 178.713 172.335 178.431 171.591 177.975C171.243 177.759 170.955 177.423 170.727 176.967C170.499 176.499 170.385 175.947 170.385 175.311C170.385 173.415 171.687 172.467 174.291 172.467C175.143 172.467 176.019 172.671 176.919 173.079C177.339 173.271 177.549 173.511 177.549 173.799C177.549 174.087 177.417 174.441 177.153 174.861C176.889 175.281 176.619 175.491 176.343 175.491C176.199 175.491 175.929 175.401 175.533 175.221C175.149 175.041 174.729 174.951 174.273 174.951C173.565 174.951 173.211 175.083 173.211 175.347C173.211 175.707 173.619 175.941 174.435 176.049C175.227 176.133 175.995 176.361 176.739 176.733C177.087 176.901 177.375 177.195 177.603 177.615C177.843 178.023 177.963 178.539 177.963 179.163C177.963 179.787 177.843 180.321 177.603 180.765C177.375 181.197 177.051 181.521 176.631 181.737C175.863 182.109 174.897 182.295 173.733 182.295C172.581 182.295 171.471 181.959 170.403 181.287ZM179.498 179.397C179.618 179.157 179.798 178.995 180.038 178.911C180.29 178.827 180.674 178.785 181.19 178.785C181.718 178.785 182.096 178.899 182.324 179.127C182.564 179.355 182.684 179.715 182.684 180.207V180.495C182.684 180.783 182.672 180.999 182.648 181.143C182.636 181.275 182.582 181.437 182.486 181.629C182.294 181.977 181.832 182.151 181.1 182.151C180.38 182.151 179.9 182.037 179.66 181.809C179.432 181.569 179.318 181.113 179.318 180.441C179.318 179.973 179.378 179.625 179.498 179.397ZM181.91 177.291C181.682 177.351 181.376 177.381 180.992 177.381C180.608 177.381 180.302 177.351 180.074 177.291C179.846 177.231 179.684 177.123 179.588 176.967C179.504 176.811 179.45 176.673 179.426 176.553C179.414 176.433 179.408 176.247 179.408 175.995V170.289C179.408 170.037 179.414 169.851 179.426 169.731C179.45 169.599 179.51 169.455 179.606 169.299C179.702 169.143 179.864 169.035 180.092 168.975C180.32 168.903 180.626 168.867 181.01 168.867C181.394 168.867 181.7 168.903 181.928 168.975C182.156 169.035 182.312 169.149 182.396 169.317C182.492 169.473 182.546 169.617 182.558 169.749C182.582 169.869 182.594 170.055 182.594 170.307V176.013C182.594 176.265 182.582 176.451 182.558 176.571C182.546 176.691 182.492 176.829 182.396 176.985C182.3 177.129 182.138 177.231 181.91 177.291Z" fill="#494949"/>
<path d="M75.4522 148.742L80.3122 158.786C80.5162 159.194 80.6182 159.5 80.6182 159.704C80.6182 160.136 80.2702 160.526 79.5742 160.874C79.1662 161.078 78.8422 161.18 78.6022 161.18C78.3742 161.18 78.1822 161.126 78.0262 161.018C77.8822 160.91 77.7742 160.796 77.7022 160.676C77.6422 160.556 77.5522 160.376 77.4322 160.136L76.4962 158.192H71.5102L70.5742 160.136C70.4542 160.376 70.3582 160.55 70.2862 160.658C70.2262 160.766 70.1182 160.88 69.9622 161C69.8182 161.108 69.6262 161.162 69.3862 161.162C69.1582 161.162 68.8402 161.06 68.4322 160.856C67.7362 160.52 67.3882 160.136 67.3882 159.704C67.3882 159.5 67.4902 159.194 67.6942 158.786L72.5542 148.724C72.6862 148.448 72.8842 148.226 73.1482 148.058C73.4242 147.89 73.7122 147.806 74.0122 147.806C74.6602 147.806 75.1402 148.118 75.4522 148.742ZM73.9942 153.062L72.8062 155.528H75.2002L73.9942 153.062Z" fill="#494949"/>
</svg>
