<svg width="221" height="194" viewBox="0 0 221 194" fill="none" xmlns="http://www.w3.org/2000/svg">
<path d="M106.044 81.3665C99.0437 81.3665 68.5435 66.8665 60.0437 64.8665C46.8827 61.7695 37.0437 71.8665 19.5438 62.8664C-4.56955 50.465 -3.10936 23.2735 6.54378 9.86638C15.5438 -2.63355 36.5438 -0.633573 43.0438 1.86643C49.5438 4.36643 60.0151 10.1586 63.0439 18.8665C67.0439 30.3665 81.5438 23.3665 102.544 23.3665C115.084 23.3665 151.429 14.6771 157.044 48.3665C159.044 60.3665 160.223 69.2668 150.544 75.8665C139.544 83.3665 113.044 81.3665 106.044 81.3665Z" fill="#FFD6C4"/>
<path d="M97.1769 58.6545H107.185C107.569 58.6545 107.851 58.7025 108.031 58.7985C108.211 58.8825 108.331 59.0205 108.391 59.2125C108.451 59.4045 108.481 59.6565 108.481 59.9685C108.481 60.2805 108.451 60.5325 108.391 60.7245C108.331 60.9045 108.229 61.0305 108.085 61.1025C107.869 61.2105 107.563 61.2645 107.167 61.2645H103.729V70.3185C103.729 70.5945 103.717 70.7985 103.693 70.9305C103.681 71.0625 103.627 71.2185 103.531 71.3985C103.447 71.5665 103.291 71.6865 103.063 71.7585C102.835 71.8305 102.535 71.8665 102.163 71.8665C101.791 71.8665 101.491 71.8305 101.263 71.7585C101.047 71.6865 100.891 71.5665 100.795 71.3985C100.711 71.2185 100.657 71.0625 100.633 70.9305C100.621 70.7865 100.615 70.5765 100.615 70.3005V61.2645H97.1589C96.7749 61.2645 96.4929 61.2225 96.3129 61.1385C96.1329 61.0425 96.0129 60.8985 95.9529 60.7065C95.8929 60.5145 95.8629 60.2625 95.8629 59.9505C95.8629 59.6385 95.8929 59.3925 95.9529 59.2125C96.0129 59.0205 96.1149 58.8885 96.2589 58.8165C96.4749 58.7085 96.7809 58.6545 97.1769 58.6545ZM109.659 63.9645C109.659 63.6885 109.665 63.4845 109.677 63.3525C109.701 63.2085 109.755 63.0465 109.839 62.8665C110.007 62.5545 110.475 62.3985 111.243 62.3985C111.819 62.3985 112.227 62.5005 112.467 62.7045C112.671 62.8725 112.779 63.1305 112.791 63.4785C112.803 63.5985 112.809 63.7725 112.809 64.0005V70.3005C112.809 70.5765 112.797 70.7865 112.773 70.9305C112.761 71.0625 112.707 71.2185 112.611 71.3985C112.455 71.7105 111.993 71.8665 111.225 71.8665C110.469 71.8665 110.007 71.7045 109.839 71.3805C109.755 71.2005 109.701 71.0445 109.677 70.9125C109.665 70.7805 109.659 70.5705 109.659 70.2825V63.9645ZM112.611 60.6345C112.527 60.8025 112.371 60.9225 112.143 60.9945C111.915 61.0665 111.609 61.1025 111.225 61.1025C110.853 61.1025 110.553 61.0665 110.325 60.9945C110.097 60.9225 109.935 60.7965 109.839 60.6165C109.755 60.4365 109.701 60.2805 109.677 60.1485C109.665 60.0045 109.659 59.7945 109.659 59.5185C109.659 59.2425 109.665 59.0385 109.677 58.9065C109.701 58.7625 109.755 58.6065 109.839 58.4385C110.007 58.1145 110.475 57.9525 111.243 57.9525C111.999 57.9525 112.455 58.1145 112.611 58.4385C112.707 58.6185 112.761 58.7805 112.773 58.9245C112.797 59.0565 112.809 59.2605 112.809 59.5365C112.809 59.8125 112.797 60.0225 112.773 60.1665C112.761 60.2985 112.707 60.4545 112.611 60.6345ZM117.523 63.6405C118.087 62.7885 118.765 62.3625 119.557 62.3625C120.781 62.3625 121.693 62.8845 122.293 63.9285C122.425 63.7485 122.581 63.5625 122.761 63.3705C122.953 63.1665 123.253 62.9505 123.661 62.7225C124.069 62.4825 124.489 62.3625 124.921 62.3625C125.881 62.3625 126.685 62.7345 127.333 63.4785C127.981 64.2105 128.305 65.4285 128.305 67.1325V70.2825C128.305 70.5585 128.293 70.7685 128.269 70.9125C128.257 71.0445 128.203 71.2005 128.107 71.3805C127.951 71.7045 127.489 71.8665 126.721 71.8665C125.965 71.8665 125.503 71.6985 125.335 71.3625C125.251 71.1825 125.197 71.0265 125.173 70.8945C125.161 70.7505 125.155 70.5405 125.155 70.2645V67.1145C125.155 66.0705 124.783 65.5485 124.039 65.5485C123.619 65.5485 123.331 65.6865 123.175 65.9625C123.031 66.2385 122.959 66.6285 122.959 67.1325V70.2825C122.959 70.5705 122.947 70.7805 122.923 70.9125C122.911 71.0445 122.857 71.2005 122.761 71.3805C122.593 71.7045 122.125 71.8665 121.357 71.8665C120.601 71.8665 120.139 71.6985 119.971 71.3625C119.887 71.1825 119.833 71.0265 119.809 70.8945C119.797 70.7505 119.791 70.5405 119.791 70.2645V67.1145C119.791 66.0705 119.419 65.5485 118.675 65.5485C117.955 65.5485 117.595 66.0705 117.595 67.1145V70.3005C117.595 70.5765 117.583 70.7865 117.559 70.9305C117.547 71.0625 117.493 71.2185 117.397 71.3985C117.217 71.7105 116.749 71.8665 115.993 71.8665C115.237 71.8665 114.775 71.7045 114.607 71.3805C114.523 71.2005 114.469 71.0445 114.445 70.9125C114.433 70.7805 114.427 70.5705 114.427 70.2825V63.9465C114.427 63.6705 114.433 63.4665 114.445 63.3345C114.469 63.1905 114.529 63.0345 114.625 62.8665C114.805 62.5425 115.231 62.3805 115.903 62.3805C116.575 62.3805 117.013 62.4885 117.217 62.7045C117.421 62.9205 117.523 63.2325 117.523 63.6405ZM139.061 65.9985C139.061 66.7305 138.875 67.2765 138.503 67.6365C138.143 67.9845 137.741 68.1585 137.297 68.1585H133.031C133.031 68.4945 133.229 68.7765 133.625 69.0045C134.021 69.2325 134.417 69.3465 134.813 69.3465C135.509 69.3465 136.055 69.2745 136.451 69.1305L136.649 69.0585C136.937 68.9265 137.177 68.8605 137.369 68.8605C137.753 68.8605 138.083 69.1305 138.359 69.6705C138.515 69.9945 138.593 70.2705 138.593 70.4985C138.593 71.5665 137.315 72.1005 134.759 72.1005C133.871 72.1005 133.079 71.9505 132.383 71.6505C131.699 71.3385 131.165 70.9305 130.781 70.4265C130.025 69.4545 129.647 68.3685 129.647 67.1685C129.647 65.6565 130.133 64.4505 131.105 63.5505C132.089 62.6385 133.313 62.1825 134.777 62.1825C136.445 62.1825 137.669 62.7705 138.449 63.9465C138.857 64.5705 139.061 65.2545 139.061 65.9985ZM135.263 66.5205C135.719 66.5205 135.947 66.3285 135.947 65.9445C135.947 65.6685 135.839 65.4465 135.623 65.2785C135.419 65.1105 135.119 65.0265 134.723 65.0265C134.339 65.0265 133.955 65.1885 133.571 65.5125C133.187 65.8245 132.995 66.1605 132.995 66.5205H135.263ZM140.596 69.1305C140.716 68.8905 140.896 68.7285 141.136 68.6445C141.388 68.5605 141.772 68.5185 142.288 68.5185C142.816 68.5185 143.194 68.6325 143.422 68.8605C143.662 69.0885 143.782 69.4485 143.782 69.9405V70.2285C143.782 70.5165 143.77 70.7325 143.746 70.8765C143.734 71.0085 143.68 71.1705 143.584 71.3625C143.392 71.7105 142.93 71.8845 142.198 71.8845C141.478 71.8845 140.998 71.7705 140.758 71.5425C140.53 71.3025 140.416 70.8465 140.416 70.1745C140.416 69.7065 140.476 69.3585 140.596 69.1305ZM143.008 67.0245C142.78 67.0845 142.474 67.1145 142.09 67.1145C141.706 67.1145 141.4 67.0845 141.172 67.0245C140.944 66.9645 140.782 66.8565 140.686 66.7005C140.602 66.5445 140.548 66.4065 140.524 66.2865C140.512 66.1665 140.506 65.9805 140.506 65.7285V60.0225C140.506 59.7705 140.512 59.5845 140.524 59.4645C140.548 59.3325 140.608 59.1885 140.704 59.0325C140.8 58.8765 140.962 58.7685 141.19 58.7085C141.418 58.6365 141.724 58.6005 142.108 58.6005C142.492 58.6005 142.798 58.6365 143.026 58.7085C143.254 58.7685 143.41 58.8825 143.494 59.0505C143.59 59.2065 143.644 59.3505 143.656 59.4825C143.68 59.6025 143.692 59.7885 143.692 60.0405V65.7465C143.692 65.9985 143.68 66.1845 143.656 66.3045C143.644 66.4245 143.59 66.5625 143.494 66.7185C143.398 66.8625 143.236 66.9645 143.008 67.0245Z" fill="#494949"/>
<path d="M18.5902 20.2565C18.5902 19.9805 18.5962 19.7765 18.6082 19.6445C18.6322 19.5005 18.6922 19.3385 18.7882 19.1585C18.9562 18.8345 19.4242 18.6725 20.1922 18.6725C21.0322 18.6725 21.5302 18.8945 21.6862 19.3385C21.7462 19.5425 21.7762 19.8545 21.7762 20.2745V30.2825C21.7762 30.5705 21.7642 30.7805 21.7402 30.9125C21.7282 31.0445 21.6742 31.2005 21.5782 31.3805C21.4102 31.7045 20.9422 31.8665 20.1742 31.8665C19.3342 31.8665 18.8422 31.6385 18.6982 31.1825C18.6262 30.9905 18.5902 30.6845 18.5902 30.2645V20.2565ZM28.9013 25.5665L27.7313 25.4945V27.9785C27.7313 28.3025 27.7793 28.5365 27.8753 28.6805C27.9833 28.8245 28.1753 28.8965 28.4513 28.8965C28.7393 28.8965 28.9553 28.9085 29.0993 28.9325C29.2553 28.9445 29.4173 28.9985 29.5853 29.0945C29.8613 29.2505 29.9993 29.6525 29.9993 30.3005C29.9993 31.0565 29.8313 31.5185 29.4953 31.6865C29.3153 31.7705 29.1533 31.8245 29.0093 31.8485C28.8773 31.8605 28.6793 31.8665 28.4153 31.8665C27.1673 31.8665 26.2193 31.5845 25.5713 31.0205C24.9233 30.4565 24.5993 29.5025 24.5993 28.1585V25.4945C24.3713 25.5305 24.1253 25.5485 23.8613 25.5485C23.5973 25.5485 23.3753 25.4465 23.1953 25.2425C23.0273 25.0385 22.9433 24.6905 22.9433 24.1985C22.9433 23.7065 22.9733 23.3525 23.0333 23.1365C23.0933 22.9085 23.1773 22.7465 23.2853 22.6505C23.4773 22.4945 23.7173 22.4165 24.0053 22.4165L24.5993 22.4885V20.6345C24.5993 20.3585 24.6053 20.1545 24.6173 20.0225C24.6413 19.8905 24.7013 19.7465 24.7973 19.5905C24.9533 19.2905 25.4153 19.1405 26.1833 19.1405C26.9993 19.1405 27.4853 19.3625 27.6413 19.8065C27.7013 19.9985 27.7313 20.3045 27.7313 20.7245V22.4885C28.2593 22.4405 28.6553 22.4165 28.9193 22.4165C29.1953 22.4165 29.3993 22.4285 29.5313 22.4525C29.6753 22.4645 29.8373 22.5185 30.0173 22.6145C30.3293 22.7705 30.4853 23.2325 30.4853 24.0005C30.4853 24.7565 30.3233 25.2185 29.9993 25.3865C29.8193 25.4705 29.6573 25.5245 29.5133 25.5485C29.3813 25.5605 29.1773 25.5665 28.9013 25.5665ZM34.2332 20.7065C34.2332 21.3905 34.1012 22.2785 33.8372 23.3705C33.5732 24.4625 33.2252 25.0085 32.7932 25.0085C32.3732 25.0085 32.0312 24.4625 31.7672 23.3705C31.5152 22.2785 31.3892 21.3005 31.3892 20.4365C31.3892 19.6805 31.4912 19.2065 31.6952 19.0145C31.9472 18.7865 32.2772 18.6725 32.6852 18.6725C33.1052 18.6725 33.4172 18.7205 33.6212 18.8165C33.8372 18.9005 33.9872 19.0385 34.0712 19.2305C34.1792 19.5305 34.2332 20.0225 34.2332 20.7065ZM35.0225 31.0205C34.7945 30.8765 34.6805 30.6485 34.6805 30.3365C34.6805 30.0245 34.9085 29.5505 35.3645 28.9145C35.4965 28.7105 35.7065 28.6085 35.9945 28.6085C36.2945 28.6085 36.6965 28.7585 37.2005 29.0585C37.7045 29.3465 38.1605 29.4905 38.5685 29.4905C39.3005 29.4905 39.6665 29.3465 39.6665 29.0585C39.6665 28.8305 39.2645 28.6625 38.4605 28.5545C37.7045 28.4465 36.9545 28.1645 36.2105 27.7085C35.8625 27.4925 35.5745 27.1565 35.3465 26.7005C35.1185 26.2325 35.0045 25.6805 35.0045 25.0445C35.0045 23.1485 36.3065 22.2005 38.9105 22.2005C39.7625 22.2005 40.6385 22.4045 41.5385 22.8125C41.9585 23.0045 42.1685 23.2445 42.1685 23.5325C42.1685 23.8205 42.0365 24.1745 41.7725 24.5945C41.5085 25.0145 41.2385 25.2245 40.9625 25.2245C40.8185 25.2245 40.5485 25.1345 40.1525 24.9545C39.7685 24.7745 39.3485 24.6845 38.8925 24.6845C38.1845 24.6845 37.8305 24.8165 37.8305 25.0805C37.8305 25.4405 38.2385 25.6745 39.0545 25.7825C39.8465 25.8665 40.6145 26.0945 41.3585 26.4665C41.7065 26.6345 41.9945 26.9285 42.2225 27.3485C42.4625 27.7565 42.5825 28.2725 42.5825 28.8965C42.5825 29.5205 42.4625 30.0545 42.2225 30.4985C41.9945 30.9305 41.6705 31.2545 41.2505 31.4705C40.4825 31.8425 39.5165 32.0285 38.3525 32.0285C37.2005 32.0285 36.0905 31.6925 35.0225 31.0205Z" fill="#494949"/>
<path d="M30.6743 38.6565C31.1249 39.5751 31.3503 40.5978 31.3503 41.7245C31.3503 42.8511 31.1249 43.8738 30.6743 44.7925C30.2236 45.6938 29.6429 46.4131 28.9323 46.9505C27.4936 48.0598 26.0029 48.6145 24.4603 48.6145H21.2103V51.5525C21.2103 51.9511 21.1929 52.2545 21.1583 52.4625C21.1409 52.6531 21.0629 52.8785 20.9243 53.1385C20.6816 53.6065 20.0056 53.8405 18.8963 53.8405C17.6829 53.8405 16.9723 53.5198 16.7643 52.8785C16.6603 52.5838 16.6083 52.1331 16.6083 51.5265V37.0965C16.6083 36.6978 16.6169 36.4031 16.6343 36.2125C16.6689 36.0045 16.7556 35.7705 16.8943 35.5105C17.1369 35.0425 17.8129 34.8085 18.9223 34.8085H24.4863C26.0116 34.8085 27.4936 35.3631 28.9323 36.4725C29.6429 37.0098 30.2236 37.7378 30.6743 38.6565ZM24.4863 44.0125C25.0063 44.0125 25.5176 43.8218 26.0203 43.4405C26.5229 43.0591 26.7743 42.4871 26.7743 41.7245C26.7743 40.9618 26.5229 40.3898 26.0203 40.0085C25.5176 39.6098 24.9976 39.4105 24.4603 39.4105H21.2103V44.0125H24.4863ZM47.882 50.6425C48.142 51.2665 48.272 51.7171 48.272 51.9945C48.272 52.6531 47.7347 53.2078 46.66 53.6585C46.1053 53.9011 45.6547 54.0225 45.308 54.0225C44.9787 54.0225 44.7013 53.9445 44.476 53.7885C44.268 53.6151 44.112 53.4418 44.008 53.2685C43.8347 52.9391 43.1587 51.3705 41.98 48.5625L41.174 48.6145H37.898V51.5525C37.898 51.9511 37.8807 52.2545 37.846 52.4625C37.8287 52.6531 37.7507 52.8785 37.612 53.1385C37.3693 53.6065 36.6933 53.8405 35.584 53.8405C34.3707 53.8405 33.66 53.5198 33.452 52.8785C33.348 52.5838 33.296 52.1331 33.296 51.5265V37.0965C33.296 36.6978 33.3047 36.4031 33.322 36.2125C33.3567 36.0045 33.4433 35.7705 33.582 35.5105C33.8247 35.0425 34.5007 34.8085 35.61 34.8085H41.226C42.7513 34.8085 44.2333 35.3631 45.672 36.4725C46.3653 37.0098 46.9373 37.7378 47.388 38.6565C47.8387 39.5751 48.064 40.5978 48.064 41.7245C48.064 43.6831 47.414 45.2951 46.114 46.5605C46.4953 47.4791 47.0847 48.8398 47.882 50.6425ZM37.898 44.0125H41.226C41.7287 44.0125 42.2313 43.8218 42.734 43.4405C43.2367 43.0591 43.488 42.4871 43.488 41.7245C43.488 40.9618 43.2367 40.3898 42.734 40.0085C42.2313 39.6098 41.7113 39.4105 41.174 39.4105H37.898V44.0125ZM54.5603 49.2645H62.5683C62.967 49.2645 63.2617 49.2818 63.4523 49.3165C63.6603 49.3338 63.8943 49.4118 64.1543 49.5505C64.6223 49.7931 64.8563 50.4691 64.8563 51.5785C64.8563 52.7918 64.5357 53.5025 63.8943 53.7105C63.5997 53.8145 63.149 53.8665 62.5423 53.8665H52.2463C51.033 53.8665 50.3223 53.5371 50.1143 52.8785C50.0103 52.6011 49.9583 52.1591 49.9583 51.5525V37.0965C49.9583 36.2125 50.123 35.6145 50.4523 35.3025C50.7817 34.9731 51.4057 34.8085 52.3243 34.8085H62.5683C62.967 34.8085 63.2617 34.8258 63.4523 34.8605C63.6603 34.8778 63.8943 34.9558 64.1543 35.0945C64.6223 35.3371 64.8563 36.0131 64.8563 37.1225C64.8563 38.3358 64.5357 39.0465 63.8943 39.2545C63.5997 39.3585 63.149 39.4105 62.5423 39.4105H54.5603V42.0365H59.7083C60.107 42.0365 60.4017 42.0538 60.5923 42.0885C60.8003 42.1058 61.0343 42.1838 61.2943 42.3225C61.7623 42.5651 61.9963 43.2411 61.9963 44.3505C61.9963 45.5638 61.667 46.2745 61.0083 46.4825C60.7137 46.5865 60.263 46.6385 59.6563 46.6385H54.5603V49.2645ZM78.7064 48.8745L79.1744 48.5365C79.7638 48.1898 80.1798 48.0165 80.4224 48.0165C80.9598 48.0165 81.5404 48.5018 82.1644 49.4725C82.5458 50.0791 82.7364 50.5645 82.7364 50.9285C82.7364 51.2925 82.6151 51.5958 82.3724 51.8385C82.1471 52.0811 81.8784 52.2978 81.5664 52.4885C81.2544 52.6791 80.9511 52.8611 80.6564 53.0345C80.3791 53.2078 79.7984 53.4331 78.9144 53.7105C78.0304 53.9878 77.1724 54.1265 76.3404 54.1265C75.5258 54.1265 74.6938 54.0225 73.8444 53.8145C73.0124 53.5891 72.1458 53.2251 71.2444 52.7225C70.3604 52.2025 69.5631 51.5785 68.8524 50.8505C68.1418 50.1051 67.5524 49.1605 67.0844 48.0165C66.6338 46.8551 66.4084 45.5985 66.4084 44.2465C66.4084 42.8945 66.6338 41.6725 67.0844 40.5805C67.5351 39.4711 68.1071 38.5611 68.8004 37.8505C69.5111 37.1225 70.3171 36.5158 71.2184 36.0305C72.9171 35.0945 74.6244 34.6265 76.3404 34.6265C77.1551 34.6265 77.9784 34.7565 78.8104 35.0165C79.6598 35.2591 80.3011 35.5105 80.7344 35.7705L81.3584 36.1345C81.6704 36.3251 81.9131 36.4811 82.0864 36.6025C82.5371 36.9665 82.7624 37.3825 82.7624 37.8505C82.7624 38.3011 82.5804 38.7778 82.2164 39.2805C81.5404 40.2165 80.9338 40.6845 80.3964 40.6845C80.0844 40.6845 79.6424 40.4938 79.0704 40.1125C78.3424 39.5231 77.3718 39.2285 76.1584 39.2285C75.0318 39.2285 73.9224 39.6185 72.8304 40.3985C72.3104 40.7798 71.8771 41.3171 71.5304 42.0105C71.1838 42.7038 71.0104 43.4925 71.0104 44.3765C71.0104 45.2431 71.1838 46.0231 71.5304 46.7165C71.8771 47.4098 72.3191 47.9558 72.8564 48.3545C73.9138 49.1171 75.0144 49.4985 76.1584 49.4985C76.6958 49.4985 77.1984 49.4291 77.6664 49.2905C78.1518 49.1518 78.4984 49.0131 78.7064 48.8745ZM84.7049 37.0965C84.7049 36.6978 84.7136 36.4031 84.7309 36.2125C84.7656 36.0045 84.8522 35.7705 84.9909 35.5105C85.2336 35.0425 85.9096 34.8085 87.0189 34.8085C88.2322 34.8085 88.9516 35.1291 89.1769 35.7705C89.2636 36.0651 89.3069 36.5158 89.3069 37.1225V51.5785C89.3069 51.9945 89.2896 52.2978 89.2549 52.4885C89.2376 52.6791 89.1596 52.9045 89.0209 53.1645C88.7782 53.6325 88.1022 53.8665 86.9929 53.8665C85.7796 53.8665 85.0689 53.5371 84.8609 52.8785C84.7569 52.6011 84.7049 52.1591 84.7049 51.5525V37.0965ZM100.587 34.5745C103.152 34.5745 105.379 35.5018 107.269 37.3565C109.158 39.2111 110.103 41.5165 110.103 44.2725C110.103 47.0111 109.201 49.3511 107.399 51.2925C105.596 53.2165 103.377 54.1785 100.743 54.1785C98.108 54.1785 95.8633 53.2251 94.0086 51.3185C92.1713 49.4118 91.2526 47.1411 91.2526 44.5065C91.2526 43.0678 91.5126 41.7245 92.0326 40.4765C92.5526 39.2111 93.246 38.1538 94.1126 37.3045C94.9793 36.4551 95.976 35.7878 97.1026 35.3025C98.2293 34.8171 99.3906 34.5745 100.587 34.5745ZM95.8546 44.3765C95.8546 45.9191 96.3486 47.1758 97.3366 48.1465C98.342 49.0998 99.46 49.5765 100.691 49.5765C101.921 49.5765 103.031 49.1085 104.019 48.1725C105.007 47.2365 105.501 45.9798 105.501 44.4025C105.501 42.8251 104.998 41.5598 103.993 40.6065C103.005 39.6531 101.895 39.1765 100.665 39.1765C99.434 39.1765 98.3246 39.6618 97.3366 40.6325C96.3486 41.5858 95.8546 42.8338 95.8546 44.3765ZM124.517 35.5105C124.69 35.2331 124.941 35.0425 125.271 34.9385C125.6 34.8345 126.007 34.7825 126.493 34.7825C126.995 34.7825 127.394 34.8258 127.689 34.9125C127.983 34.9991 128.209 35.1031 128.365 35.2245C128.521 35.3458 128.633 35.5278 128.703 35.7705C128.807 36.0651 128.859 36.5158 128.859 37.1225V44.9745C128.859 47.2625 128.148 49.3425 126.727 51.2145C126.033 52.0985 125.141 52.8178 124.049 53.3725C122.957 53.9098 121.743 54.1785 120.409 54.1785C119.091 54.1785 117.887 53.9011 116.795 53.3465C115.72 52.7918 114.845 52.0638 114.169 51.1625C112.765 49.3251 112.063 47.2451 112.063 44.9225V37.0965C112.063 36.6805 112.071 36.3771 112.089 36.1865C112.123 35.9785 112.21 35.7445 112.349 35.4845C112.487 35.2245 112.721 35.0425 113.051 34.9385C113.38 34.8345 113.822 34.7825 114.377 34.7825C114.931 34.7825 115.373 34.8345 115.703 34.9385C116.032 35.0425 116.257 35.2245 116.379 35.4845C116.587 35.8831 116.691 36.4291 116.691 37.1225V44.9225C116.691 45.9798 116.951 46.9851 117.471 47.9385C117.731 48.4238 118.121 48.8138 118.641 49.1085C119.161 49.4031 119.776 49.5505 120.487 49.5505C121.752 49.5505 122.697 49.0825 123.321 48.1465C123.945 47.2105 124.257 46.1271 124.257 44.8965V36.9405C124.257 36.2645 124.343 35.7878 124.517 35.5105ZM130.687 51.1885C130.236 50.6338 130.011 50.1398 130.011 49.7065C130.011 49.2558 130.384 48.6665 131.129 47.9385C131.562 47.5225 132.022 47.3145 132.507 47.3145C132.992 47.3145 133.668 47.7478 134.535 48.6145C134.778 48.9091 135.124 49.1951 135.575 49.4725C136.026 49.7325 136.442 49.8625 136.823 49.8625C138.435 49.8625 139.241 49.2038 139.241 47.8865C139.241 47.4878 139.016 47.1585 138.565 46.8985C138.132 46.6211 137.586 46.4218 136.927 46.3005C136.268 46.1791 135.558 45.9885 134.795 45.7285C134.032 45.4511 133.322 45.1305 132.663 44.7665C132.004 44.4025 131.45 43.8305 130.999 43.0505C130.566 42.2531 130.349 41.2998 130.349 40.1905C130.349 38.6651 130.912 37.3391 132.039 36.2125C133.183 35.0685 134.734 34.4965 136.693 34.4965C137.733 34.4965 138.678 34.6351 139.527 34.9125C140.394 35.1725 140.992 35.4411 141.321 35.7185L141.971 36.2125C142.508 36.7151 142.777 37.1398 142.777 37.4865C142.777 37.8331 142.569 38.3098 142.153 38.9165C141.564 39.7831 140.957 40.2165 140.333 40.2165C139.969 40.2165 139.518 40.0431 138.981 39.6965C138.929 39.6618 138.825 39.5751 138.669 39.4365C138.53 39.2978 138.4 39.1851 138.279 39.0985C137.915 38.8731 137.447 38.7605 136.875 38.7605C136.32 38.7605 135.852 38.8991 135.471 39.1765C135.107 39.4365 134.925 39.8091 134.925 40.2945C134.925 40.7625 135.142 41.1438 135.575 41.4385C136.026 41.7331 136.58 41.9325 137.239 42.0365C137.898 42.1405 138.617 42.3051 139.397 42.5305C140.177 42.7385 140.896 42.9985 141.555 43.3105C142.214 43.6225 142.76 44.1685 143.193 44.9485C143.644 45.7111 143.869 46.6558 143.869 47.7825C143.869 48.9091 143.644 49.9058 143.193 50.7725C142.742 51.6218 142.153 52.2805 141.425 52.7485C140.021 53.6671 138.522 54.1265 136.927 54.1265C136.112 54.1265 135.341 54.0311 134.613 53.8405C133.885 53.6325 133.296 53.3811 132.845 53.0865C131.926 52.5318 131.285 51.9945 130.921 51.4745L130.687 51.1885Z" fill="#D03801"/>
<path d="M148.044 133.922C131.044 124.366 104.044 125.866 88.5436 127.866C72.0121 130 61.9071 140.857 40.0437 131.866C9.91795 119.478 15.1289 92.8152 27.189 79.4216C38.433 66.9343 54.9229 69.869 63.0436 72.3665C71.1643 74.8639 78.0436 77.3665 84.0436 83.8665C92.5413 93.0722 113.544 90.9216 145.689 90.9216C161.355 90.9216 212.768 97.9216 218.39 116.239C220.644 123.583 225.336 140.57 207.689 144.922C171.189 153.922 172.8 147.836 148.044 133.922Z" fill="#FFD6C4"/>
<path d="M171.928 125.71H181.936C182.32 125.71 182.602 125.758 182.782 125.854C182.962 125.938 183.082 126.076 183.142 126.268C183.202 126.46 183.232 126.712 183.232 127.024C183.232 127.336 183.202 127.588 183.142 127.78C183.082 127.96 182.98 128.086 182.836 128.158C182.62 128.266 182.314 128.32 181.918 128.32H178.48V137.374C178.48 137.65 178.468 137.854 178.444 137.986C178.432 138.118 178.378 138.274 178.282 138.454C178.198 138.622 178.042 138.742 177.814 138.814C177.586 138.886 177.286 138.922 176.914 138.922C176.542 138.922 176.242 138.886 176.014 138.814C175.798 138.742 175.642 138.622 175.546 138.454C175.462 138.274 175.408 138.118 175.384 137.986C175.372 137.842 175.366 137.632 175.366 137.356V128.32H171.91C171.526 128.32 171.244 128.278 171.064 128.194C170.884 128.098 170.764 127.954 170.704 127.762C170.644 127.57 170.614 127.318 170.614 127.006C170.614 126.694 170.644 126.448 170.704 126.268C170.764 126.076 170.866 125.944 171.01 125.872C171.226 125.764 171.532 125.71 171.928 125.71ZM188.404 130.444C188.476 129.772 188.95 129.436 189.826 129.436C190.294 129.436 190.642 129.472 190.87 129.544C191.098 129.616 191.254 129.742 191.338 129.922C191.434 130.102 191.488 130.264 191.5 130.408C191.524 130.54 191.536 130.744 191.536 131.02V137.32C191.536 137.596 191.524 137.806 191.5 137.95C191.488 138.082 191.44 138.238 191.356 138.418C191.188 138.73 190.774 138.886 190.114 138.886C189.466 138.886 189.028 138.808 188.8 138.652C188.584 138.484 188.458 138.244 188.422 137.932C187.978 138.568 187.234 138.886 186.19 138.886C185.158 138.886 184.198 138.412 183.31 137.464C182.422 136.516 181.978 135.418 181.978 134.17C181.978 132.91 182.422 131.812 183.31 130.876C184.21 129.928 185.194 129.454 186.262 129.454C186.67 129.454 187.042 129.526 187.378 129.67C187.714 129.814 187.948 129.952 188.08 130.084C188.212 130.204 188.32 130.324 188.404 130.444ZM185.128 134.188C185.128 134.584 185.284 134.944 185.596 135.268C185.908 135.58 186.286 135.736 186.73 135.736C187.174 135.736 187.54 135.574 187.828 135.25C188.128 134.926 188.278 134.572 188.278 134.188C188.278 133.792 188.134 133.426 187.846 133.09C187.57 132.754 187.192 132.586 186.712 132.586C186.244 132.586 185.86 132.754 185.56 133.09C185.272 133.426 185.128 133.792 185.128 134.188ZM198.73 134.17L201.124 136.15C201.424 136.402 201.61 136.594 201.682 136.726C201.766 136.858 201.808 136.984 201.808 137.104C201.808 137.392 201.622 137.782 201.25 138.274C200.842 138.778 200.482 139.03 200.17 139.03C199.906 139.03 199.54 138.856 199.072 138.508L198.892 138.382C198.616 138.154 198.19 137.758 197.614 137.194C197.038 136.618 196.6 136.21 196.3 135.97V137.356C196.3 137.632 196.288 137.842 196.264 137.986C196.252 138.118 196.198 138.274 196.102 138.454C195.946 138.766 195.484 138.922 194.716 138.922C193.96 138.922 193.498 138.76 193.33 138.436C193.246 138.256 193.192 138.1 193.168 137.968C193.156 137.824 193.15 137.614 193.15 137.338V126.556C193.15 126.28 193.156 126.076 193.168 125.944C193.192 125.8 193.246 125.638 193.33 125.458C193.498 125.134 193.966 124.972 194.734 124.972C195.31 124.972 195.718 125.074 195.958 125.278C196.162 125.446 196.27 125.71 196.282 126.07C196.294 126.178 196.3 126.346 196.3 126.574V132.28C196.516 132.1 196.84 131.794 197.272 131.362C197.716 130.93 198.046 130.624 198.262 130.444L198.478 130.3C198.898 129.976 199.258 129.814 199.558 129.814C199.858 129.814 200.2 130.06 200.584 130.552C200.98 131.032 201.178 131.41 201.178 131.686C201.178 131.962 200.956 132.286 200.512 132.658L198.73 134.17ZM211.58 133.054C211.58 133.786 211.394 134.332 211.022 134.692C210.662 135.04 210.26 135.214 209.816 135.214H205.55C205.55 135.55 205.748 135.832 206.144 136.06C206.54 136.288 206.936 136.402 207.332 136.402C208.028 136.402 208.574 136.33 208.97 136.186L209.168 136.114C209.456 135.982 209.696 135.916 209.888 135.916C210.272 135.916 210.602 136.186 210.878 136.726C211.034 137.05 211.112 137.326 211.112 137.554C211.112 138.622 209.834 139.156 207.278 139.156C206.39 139.156 205.598 139.006 204.902 138.706C204.218 138.394 203.684 137.986 203.3 137.482C202.544 136.51 202.166 135.424 202.166 134.224C202.166 132.712 202.652 131.506 203.624 130.606C204.608 129.694 205.832 129.238 207.296 129.238C208.964 129.238 210.188 129.826 210.968 131.002C211.376 131.626 211.58 132.31 211.58 133.054ZM207.782 133.576C208.238 133.576 208.466 133.384 208.466 133C208.466 132.724 208.358 132.502 208.142 132.334C207.938 132.166 207.638 132.082 207.242 132.082C206.858 132.082 206.474 132.244 206.09 132.568C205.706 132.88 205.514 133.216 205.514 133.576H207.782Z" fill="#494949"/>
<path d="M37.1702 89.9656H40.3382C40.9862 89.9896 41.3822 90.1576 41.5262 90.4696C41.6462 90.6976 41.7062 91.0336 41.7062 91.4776V95.4376C41.7062 95.8216 41.5382 96.1876 41.2022 96.5356C40.1942 97.5796 38.6822 98.1016 36.6662 98.1016C34.8782 98.1016 33.3242 97.4296 32.0042 96.0856C30.6842 94.7296 30.0242 93.0976 30.0242 91.1896C30.0242 89.2816 30.6962 87.6916 32.0402 86.4196C33.3842 85.1356 34.9682 84.4936 36.7922 84.4936C38.2082 84.4936 39.5462 84.9616 40.8062 85.8976C41.1302 86.1376 41.2922 86.4076 41.2922 86.7076C41.2922 86.9956 41.1542 87.3316 40.8782 87.7156C40.4102 88.3516 39.9842 88.6696 39.6002 88.6696C39.3722 88.6696 39.0062 88.5076 38.5022 88.1836C37.9982 87.8476 37.3982 87.6796 36.7022 87.6796C35.7902 87.6796 34.9802 88.0036 34.2722 88.6516C33.5642 89.2876 33.2102 90.1276 33.2102 91.1716C33.2102 92.2036 33.5702 93.0856 34.2902 93.8176C35.0102 94.5376 35.8262 94.8976 36.7382 94.8976C37.3982 94.8976 37.9922 94.7896 38.5202 94.5736V92.6116H37.0982C36.7262 92.6116 36.4622 92.5636 36.3062 92.4676C36.1502 92.3716 36.0482 92.2336 36.0002 92.0536C35.9522 91.8616 35.9282 91.6096 35.9282 91.2976C35.9282 90.9736 35.9522 90.7156 36.0002 90.5236C36.0602 90.3316 36.1622 90.1996 36.3062 90.1276C36.5222 90.0196 36.8102 89.9656 37.1702 89.9656ZM43.3238 90.0196C43.3238 89.7436 43.3298 89.5396 43.3418 89.4076C43.3658 89.2636 43.4198 89.1016 43.5038 88.9216C43.6718 88.6096 44.1398 88.4536 44.9078 88.4536C45.4838 88.4536 45.8918 88.5556 46.1318 88.7596C46.3358 88.9276 46.4438 89.1856 46.4558 89.5336C46.4678 89.6536 46.4738 89.8276 46.4738 90.0556V96.3556C46.4738 96.6316 46.4618 96.8416 46.4378 96.9856C46.4258 97.1176 46.3718 97.2736 46.2758 97.4536C46.1198 97.7656 45.6578 97.9216 44.8898 97.9216C44.1338 97.9216 43.6718 97.7596 43.5038 97.4356C43.4198 97.2556 43.3658 97.0996 43.3418 96.9676C43.3298 96.8356 43.3238 96.6256 43.3238 96.3376V90.0196ZM46.2758 86.6896C46.1918 86.8576 46.0358 86.9776 45.8078 87.0496C45.5798 87.1216 45.2738 87.1576 44.8898 87.1576C44.5178 87.1576 44.2178 87.1216 43.9898 87.0496C43.7618 86.9776 43.5998 86.8516 43.5038 86.6716C43.4198 86.4916 43.3658 86.3356 43.3418 86.2036C43.3298 86.0596 43.3238 85.8496 43.3238 85.5736C43.3238 85.2976 43.3298 85.0936 43.3418 84.9616C43.3658 84.8176 43.4198 84.6616 43.5038 84.4936C43.6718 84.1696 44.1398 84.0076 44.9078 84.0076C45.6638 84.0076 46.1198 84.1696 46.2758 84.4936C46.3718 84.6736 46.4258 84.8356 46.4378 84.9796C46.4618 85.1116 46.4738 85.3156 46.4738 85.5916C46.4738 85.8676 46.4618 86.0776 46.4378 86.2216C46.4258 86.3536 46.3718 86.5096 46.2758 86.6896ZM57.6497 88.6516C58.2737 89.0236 58.5857 89.4196 58.5857 89.8396C58.5857 90.0796 58.4657 90.4096 58.2257 90.8296L54.4997 97.2196C54.3797 97.4236 54.1877 97.6096 53.9237 97.7776C53.6597 97.9336 53.3957 98.0116 53.1317 98.0116C52.8797 98.0116 52.6337 97.9516 52.3937 97.8316C52.1657 97.6996 52.0037 97.5676 51.9077 97.4356L51.7457 97.2376L48.0017 90.8296C47.7617 90.4336 47.6417 90.1096 47.6417 89.8576C47.6417 89.4256 47.9537 89.0236 48.5777 88.6516C49.0337 88.3876 49.3937 88.2556 49.6577 88.2556C49.9217 88.2556 50.1257 88.3396 50.2697 88.5076C50.4257 88.6636 50.5877 88.9036 50.7557 89.2276L53.1137 93.7636L55.4717 89.2276C55.6037 88.9996 55.6997 88.8376 55.7597 88.7416C55.8317 88.6336 55.9397 88.5316 56.0837 88.4356C56.2277 88.3276 56.4197 88.2736 56.6597 88.2736C56.8997 88.2736 57.2297 88.3996 57.6497 88.6516ZM68.3493 92.0536C68.3493 92.7856 68.1633 93.3316 67.7913 93.6916C67.4313 94.0396 67.0293 94.2136 66.5853 94.2136H62.3193C62.3193 94.5496 62.5173 94.8316 62.9133 95.0596C63.3093 95.2876 63.7053 95.4016 64.1013 95.4016C64.7973 95.4016 65.3433 95.3296 65.7393 95.1856L65.9373 95.1136C66.2253 94.9816 66.4653 94.9156 66.6573 94.9156C67.0413 94.9156 67.3713 95.1856 67.6473 95.7256C67.8033 96.0496 67.8813 96.3256 67.8813 96.5536C67.8813 97.6216 66.6033 98.1556 64.0473 98.1556C63.1593 98.1556 62.3673 98.0056 61.6713 97.7056C60.9873 97.3936 60.4533 96.9856 60.0693 96.4816C59.3133 95.5096 58.9353 94.4236 58.9353 93.2236C58.9353 91.7116 59.4213 90.5056 60.3933 89.6056C61.3773 88.6936 62.6013 88.2376 64.0653 88.2376C65.7333 88.2376 66.9573 88.8256 67.7373 90.0016C68.1453 90.6256 68.3493 91.3096 68.3493 92.0536ZM64.5513 92.5756C65.0073 92.5756 65.2353 92.3836 65.2353 91.9996C65.2353 91.7236 65.1273 91.5016 64.9113 91.3336C64.7073 91.1656 64.4073 91.0816 64.0113 91.0816C63.6273 91.0816 63.2433 91.2436 62.8593 91.5676C62.4753 91.8796 62.2833 92.2156 62.2833 92.5756H64.5513Z" fill="#494949"/>
<path d="M31.7977 101.838H46.2537C46.8084 101.838 47.2157 101.907 47.4757 102.046C47.7357 102.167 47.909 102.366 47.9957 102.644C48.0824 102.921 48.1257 103.285 48.1257 103.736C48.1257 104.186 48.0824 104.55 47.9957 104.828C47.909 105.088 47.7617 105.27 47.5537 105.374C47.2417 105.53 46.7997 105.608 46.2277 105.608H41.2617V118.686C41.2617 119.084 41.2444 119.379 41.2097 119.57C41.1924 119.76 41.1144 119.986 40.9757 120.246C40.8544 120.488 40.629 120.662 40.2997 120.766C39.9704 120.87 39.537 120.922 38.9997 120.922C38.4624 120.922 38.029 120.87 37.6997 120.766C37.3877 120.662 37.1624 120.488 37.0237 120.246C36.9024 119.986 36.8244 119.76 36.7897 119.57C36.7724 119.362 36.7637 119.058 36.7637 118.66V105.608H31.7717C31.217 105.608 30.8097 105.547 30.5497 105.426C30.2897 105.287 30.1164 105.079 30.0297 104.802C29.943 104.524 29.8997 104.16 29.8997 103.71C29.8997 103.259 29.943 102.904 30.0297 102.644C30.1164 102.366 30.2637 102.176 30.4717 102.072C30.7837 101.916 31.2257 101.838 31.7977 101.838ZM54.4293 116.32H62.4373C62.836 116.32 63.1306 116.337 63.3213 116.372C63.5293 116.389 63.7633 116.467 64.0233 116.606C64.4913 116.848 64.7253 117.524 64.7253 118.634C64.7253 119.847 64.4046 120.558 63.7633 120.766C63.4686 120.87 63.018 120.922 62.4113 120.922H52.1153C50.9019 120.922 50.1913 120.592 49.9833 119.934C49.8793 119.656 49.8273 119.214 49.8273 118.608V104.152C49.8273 103.268 49.9919 102.67 50.3213 102.358C50.6506 102.028 51.2746 101.864 52.1933 101.864H62.4373C62.836 101.864 63.1306 101.881 63.3213 101.916C63.5293 101.933 63.7633 102.011 64.0233 102.15C64.4913 102.392 64.7253 103.068 64.7253 104.178C64.7253 105.391 64.4046 106.102 63.7633 106.31C63.4686 106.414 63.018 106.466 62.4113 106.466H54.4293V109.092H59.5773C59.976 109.092 60.2706 109.109 60.4613 109.144C60.6693 109.161 60.9033 109.239 61.1633 109.378C61.6313 109.62 61.8653 110.296 61.8653 111.406C61.8653 112.619 61.536 113.33 60.8773 113.538C60.5826 113.642 60.132 113.694 59.5253 113.694H54.4293V116.32ZM78.9654 102.67C79.1387 102.358 79.39 102.15 79.7194 102.046C80.0487 101.942 80.456 101.89 80.9414 101.89C81.444 101.89 81.8427 101.933 82.1374 102.02C82.4494 102.106 82.6747 102.21 82.8134 102.332C82.9694 102.453 83.082 102.635 83.1514 102.878C83.2554 103.155 83.3074 103.597 83.3074 104.204V118.634C83.3074 119.05 83.29 119.353 83.2554 119.544C83.238 119.734 83.16 119.96 83.0214 120.22C82.7787 120.688 82.1027 120.922 80.9934 120.922C80.3174 120.922 79.8494 120.87 79.5894 120.766C79.3294 120.662 79.1127 120.497 78.9394 120.272C75.0394 115.072 72.474 111.674 71.2434 110.08V118.634C71.2434 119.05 71.226 119.353 71.1914 119.544C71.174 119.734 71.096 119.96 70.9574 120.22C70.7147 120.688 70.0387 120.922 68.9294 120.922C67.8547 120.922 67.196 120.688 66.9534 120.22C66.8147 119.96 66.728 119.726 66.6934 119.518C66.676 119.31 66.6674 119.006 66.6674 118.608V104.1C66.6674 103.441 66.7454 102.964 66.9014 102.67C67.0747 102.358 67.326 102.15 67.6554 102.046C67.9847 101.942 68.4094 101.89 68.9294 101.89C69.4494 101.89 69.8567 101.942 70.1514 102.046C70.4634 102.132 70.68 102.236 70.8014 102.358C70.8707 102.41 71.07 102.635 71.3994 103.034C75.0567 108.008 77.5007 111.293 78.7314 112.888V104.1C78.7314 103.441 78.8094 102.964 78.9654 102.67ZM112.73 102.592C112.869 102.852 112.947 103.086 112.964 103.294C112.999 103.502 113.016 103.805 113.016 104.204V118.634C113.016 119.83 112.687 120.532 112.028 120.74C111.699 120.844 111.283 120.896 110.78 120.896C110.278 120.896 109.879 120.852 109.584 120.766C109.29 120.679 109.064 120.575 108.908 120.454C108.752 120.332 108.631 120.159 108.544 119.934C108.458 119.639 108.414 119.188 108.414 118.582V109.872C107.981 110.409 107.348 111.267 106.516 112.446C105.684 113.607 105.156 114.335 104.93 114.63C104.705 114.924 104.549 115.132 104.462 115.254C104.376 115.358 104.159 115.514 103.812 115.722C103.483 115.912 103.119 116.008 102.72 116.008C102.339 116.008 101.984 115.921 101.654 115.748C101.342 115.557 101.117 115.375 100.978 115.202L100.77 114.916C100.424 114.482 99.7391 113.564 98.7164 112.16C97.6938 110.738 97.1391 109.976 97.0524 109.872V118.634C97.0524 119.032 97.0351 119.336 97.0004 119.544C96.9831 119.734 96.9051 119.951 96.7664 120.194C96.5064 120.662 95.8304 120.896 94.7384 120.896C93.6811 120.896 93.0224 120.662 92.7624 120.194C92.6238 119.951 92.5371 119.726 92.5024 119.518C92.4851 119.31 92.4764 118.998 92.4764 118.582V104.152C92.4764 103.753 92.4851 103.458 92.5024 103.268C92.5371 103.06 92.6238 102.826 92.7624 102.566C93.0224 102.115 93.6984 101.89 94.7904 101.89C95.2584 101.89 95.6571 101.95 95.9864 102.072C96.3331 102.176 96.5584 102.288 96.6624 102.41L96.8184 102.566L102.72 110.314C105.667 106.414 107.634 103.84 108.622 102.592C108.917 102.124 109.61 101.89 110.702 101.89C111.812 101.89 112.488 102.124 112.73 102.592ZM115.359 109.508C115.359 109.109 115.368 108.814 115.385 108.624C115.42 108.416 115.498 108.182 115.619 107.922C115.862 107.471 116.538 107.246 117.647 107.246C118.479 107.246 119.069 107.393 119.415 107.688C119.71 107.93 119.866 108.303 119.883 108.806C119.901 108.979 119.909 109.23 119.909 109.56V118.66C119.909 119.058 119.892 119.362 119.857 119.57C119.84 119.76 119.762 119.986 119.623 120.246C119.398 120.696 118.731 120.922 117.621 120.922C116.529 120.922 115.862 120.688 115.619 120.22C115.498 119.96 115.42 119.734 115.385 119.544C115.368 119.353 115.359 119.05 115.359 118.634V109.508ZM119.623 104.698C119.502 104.94 119.277 105.114 118.947 105.218C118.618 105.322 118.176 105.374 117.621 105.374C117.084 105.374 116.651 105.322 116.321 105.218C115.992 105.114 115.758 104.932 115.619 104.672C115.498 104.412 115.42 104.186 115.385 103.996C115.368 103.788 115.359 103.484 115.359 103.086C115.359 102.687 115.368 102.392 115.385 102.202C115.42 101.994 115.498 101.768 115.619 101.526C115.862 101.058 116.538 100.824 117.647 100.824C118.739 100.824 119.398 101.058 119.623 101.526C119.762 101.786 119.84 102.02 119.857 102.228C119.892 102.418 119.909 102.713 119.909 103.112C119.909 103.51 119.892 103.814 119.857 104.022C119.84 104.212 119.762 104.438 119.623 104.698ZM129.864 107.22C131.598 107.22 133.036 107.887 134.18 109.222C135.342 110.539 135.922 112.151 135.922 114.058V118.634C135.922 119.032 135.905 119.336 135.87 119.544C135.853 119.734 135.784 119.951 135.662 120.194C135.42 120.662 134.744 120.896 133.634 120.896C132.404 120.896 131.693 120.575 131.502 119.934C131.398 119.639 131.346 119.197 131.346 118.608V114.032C131.346 113.321 131.138 112.766 130.722 112.368C130.324 111.969 129.778 111.77 129.084 111.77C128.408 111.77 127.854 111.978 127.42 112.394C127.004 112.81 126.796 113.356 126.796 114.032V118.634C126.796 119.032 126.779 119.336 126.744 119.544C126.727 119.734 126.649 119.951 126.51 120.194C126.285 120.662 125.618 120.896 124.508 120.896C123.416 120.896 122.749 120.662 122.506 120.194C122.385 119.934 122.307 119.708 122.272 119.518C122.255 119.31 122.246 119.006 122.246 118.608V109.404C122.246 109.022 122.255 108.736 122.272 108.546C122.307 108.338 122.394 108.112 122.532 107.87C122.775 107.436 123.442 107.22 124.534 107.22C125.592 107.22 126.242 107.419 126.484 107.818C126.658 108.112 126.744 108.468 126.744 108.884C126.814 108.762 126.97 108.589 127.212 108.364C127.455 108.138 127.689 107.956 127.914 107.818C128.504 107.419 129.154 107.22 129.864 107.22ZM144.358 120.87C142.607 120.87 141.151 120.211 139.99 118.894C138.846 117.559 138.274 115.938 138.274 114.032V109.482C138.274 109.066 138.283 108.762 138.3 108.572C138.335 108.381 138.413 108.156 138.534 107.896C138.777 107.428 139.453 107.194 140.562 107.194C141.775 107.194 142.486 107.523 142.694 108.182C142.798 108.459 142.85 108.901 142.85 109.508V114.058C142.85 114.768 143.049 115.323 143.448 115.722C143.864 116.12 144.41 116.32 145.086 116.32C145.779 116.32 146.334 116.112 146.75 115.696C147.183 115.28 147.4 114.734 147.4 114.058V109.456C147.4 109.057 147.409 108.762 147.426 108.572C147.461 108.364 147.547 108.13 147.686 107.87C147.911 107.419 148.579 107.194 149.688 107.194C150.78 107.194 151.447 107.428 151.69 107.896C151.811 108.156 151.881 108.39 151.898 108.598C151.933 108.788 151.95 109.083 151.95 109.482V118.686C151.95 119.067 151.933 119.362 151.898 119.57C151.881 119.76 151.803 119.977 151.664 120.22C151.404 120.67 150.737 120.896 149.662 120.896C148.605 120.896 147.955 120.688 147.712 120.272C147.539 119.977 147.452 119.622 147.452 119.206C147.383 119.327 147.227 119.5 146.984 119.726C146.741 119.951 146.507 120.142 146.282 120.298C145.693 120.679 145.051 120.87 144.358 120.87ZM162.258 111.822L160.568 111.718V115.306C160.568 115.774 160.637 116.112 160.776 116.32C160.932 116.528 161.209 116.632 161.608 116.632C162.024 116.632 162.336 116.649 162.544 116.684C162.769 116.701 163.003 116.779 163.246 116.918C163.644 117.143 163.844 117.724 163.844 118.66C163.844 119.752 163.601 120.419 163.116 120.662C162.856 120.783 162.622 120.861 162.414 120.896C162.223 120.913 161.937 120.922 161.556 120.922C159.753 120.922 158.384 120.514 157.448 119.7C156.512 118.885 156.044 117.507 156.044 115.566V111.718C155.714 111.77 155.359 111.796 154.978 111.796C154.596 111.796 154.276 111.648 154.016 111.354C153.773 111.059 153.652 110.556 153.652 109.846C153.652 109.135 153.695 108.624 153.782 108.312C153.868 107.982 153.99 107.748 154.146 107.61C154.423 107.384 154.77 107.272 155.186 107.272L156.044 107.376V104.698C156.044 104.299 156.052 104.004 156.07 103.814C156.104 103.623 156.191 103.415 156.33 103.19C156.555 102.756 157.222 102.54 158.332 102.54C159.51 102.54 160.212 102.86 160.438 103.502C160.524 103.779 160.568 104.221 160.568 104.828V107.376C161.33 107.306 161.902 107.272 162.284 107.272C162.682 107.272 162.977 107.289 163.168 107.324C163.376 107.341 163.61 107.419 163.87 107.558C164.32 107.783 164.546 108.45 164.546 109.56C164.546 110.652 164.312 111.319 163.844 111.562C163.584 111.683 163.35 111.761 163.142 111.796C162.951 111.813 162.656 111.822 162.258 111.822ZM178.941 112.446C178.941 113.503 178.673 114.292 178.135 114.812C177.615 115.314 177.035 115.566 176.393 115.566H170.231C170.231 116.051 170.517 116.458 171.089 116.788C171.661 117.117 172.233 117.282 172.805 117.282C173.811 117.282 174.599 117.178 175.171 116.97L175.457 116.866C175.873 116.675 176.22 116.58 176.497 116.58C177.052 116.58 177.529 116.97 177.927 117.75C178.153 118.218 178.265 118.616 178.265 118.946C178.265 120.488 176.419 121.26 172.727 121.26C171.445 121.26 170.301 121.043 169.295 120.61C168.307 120.159 167.536 119.57 166.981 118.842C165.889 117.438 165.343 115.869 165.343 114.136C165.343 111.952 166.045 110.21 167.449 108.91C168.871 107.592 170.639 106.934 172.753 106.934C175.163 106.934 176.931 107.783 178.057 109.482C178.647 110.383 178.941 111.371 178.941 112.446ZM173.455 113.2C174.114 113.2 174.443 112.922 174.443 112.368C174.443 111.969 174.287 111.648 173.975 111.406C173.681 111.163 173.247 111.042 172.675 111.042C172.121 111.042 171.566 111.276 171.011 111.744C170.457 112.194 170.179 112.68 170.179 113.2H173.455ZM181.002 119.7C180.672 119.492 180.508 119.162 180.508 118.712C180.508 118.261 180.837 117.576 181.496 116.658C181.686 116.363 181.99 116.216 182.406 116.216C182.839 116.216 183.42 116.432 184.148 116.866C184.876 117.282 185.534 117.49 186.124 117.49C187.181 117.49 187.71 117.282 187.71 116.866C187.71 116.536 187.129 116.294 185.968 116.138C184.876 115.982 183.792 115.574 182.718 114.916C182.215 114.604 181.799 114.118 181.47 113.46C181.14 112.784 180.976 111.986 180.976 111.068C180.976 108.329 182.856 106.96 186.618 106.96C187.848 106.96 189.114 107.254 190.414 107.844C191.02 108.121 191.324 108.468 191.324 108.884C191.324 109.3 191.133 109.811 190.752 110.418C190.37 111.024 189.98 111.328 189.582 111.328C189.374 111.328 188.984 111.198 188.412 110.938C187.857 110.678 187.25 110.548 186.592 110.548C185.569 110.548 185.058 110.738 185.058 111.12C185.058 111.64 185.647 111.978 186.826 112.134C187.97 112.255 189.079 112.584 190.154 113.122C190.656 113.364 191.072 113.789 191.402 114.396C191.748 114.985 191.922 115.73 191.922 116.632C191.922 117.533 191.748 118.304 191.402 118.946C191.072 119.57 190.604 120.038 189.998 120.35C188.888 120.887 187.493 121.156 185.812 121.156C184.148 121.156 182.544 120.67 181.002 119.7ZM197.908 116.632C198.203 116.926 198.35 117.533 198.35 118.452V118.556C198.35 118.972 198.333 119.284 198.298 119.492C198.281 119.682 198.194 119.916 198.038 120.194C197.778 120.696 197.12 120.948 196.062 120.948C195.022 120.948 194.329 120.783 193.982 120.454C193.653 120.124 193.488 119.5 193.488 118.582V118.478C193.488 118.079 193.497 117.776 193.514 117.568C193.549 117.36 193.636 117.126 193.774 116.866C194.034 116.346 194.684 116.086 195.724 116.086C196.782 116.086 197.51 116.268 197.908 116.632ZM204.338 116.632C204.633 116.926 204.78 117.533 204.78 118.452V118.556C204.78 118.972 204.763 119.284 204.728 119.492C204.711 119.682 204.624 119.916 204.468 120.194C204.208 120.696 203.55 120.948 202.492 120.948C201.452 120.948 200.759 120.783 200.412 120.454C200.083 120.124 199.918 119.5 199.918 118.582V118.478C199.918 118.079 199.927 117.776 199.944 117.568C199.979 117.36 200.066 117.126 200.204 116.866C200.464 116.346 201.114 116.086 202.154 116.086C203.212 116.086 203.94 116.268 204.338 116.632ZM210.768 116.632C211.063 116.926 211.21 117.533 211.21 118.452V118.556C211.21 118.972 211.193 119.284 211.158 119.492C211.141 119.682 211.054 119.916 210.898 120.194C210.638 120.696 209.98 120.948 208.922 120.948C207.882 120.948 207.189 120.783 206.842 120.454C206.513 120.124 206.348 119.5 206.348 118.582V118.478C206.348 118.079 206.357 117.776 206.374 117.568C206.409 117.36 206.496 117.126 206.634 116.866C206.894 116.346 207.544 116.086 208.584 116.086C209.642 116.086 210.37 116.268 210.768 116.632Z" fill="#D03801"/>
<path d="M147.544 193.366C140.044 193.366 121.237 191.816 111.544 190.866C92.5 189 88.5 191.5 81.3042 187.133C74.1084 182.766 65.4114 148.305 78.8044 138.633C87.8045 132.133 100.84 132.133 107.804 132.133H107.804C119.044 132.133 141.515 132.659 144.544 141.366C148.544 152.866 162.544 157.366 183.544 157.366C196.084 157.366 199.304 166.687 199.304 179.633C199.304 191.366 185.759 193.366 174.044 193.366H147.544Z" fill="#FFD6C4"/>
<path d="M83.1615 142.049H97.6175C98.1722 142.049 98.5795 142.118 98.8395 142.257C99.0995 142.378 99.2729 142.577 99.3595 142.855C99.4462 143.132 99.4895 143.496 99.4895 143.947C99.4895 144.397 99.4462 144.761 99.3595 145.039C99.2729 145.299 99.1255 145.481 98.9175 145.585C98.6055 145.741 98.1635 145.819 97.5915 145.819H92.6255V158.897C92.6255 159.295 92.6082 159.59 92.5735 159.781C92.5562 159.971 92.4782 160.197 92.3395 160.457C92.2182 160.699 91.9929 160.873 91.6635 160.977C91.3342 161.081 90.9009 161.133 90.3635 161.133C89.8262 161.133 89.3929 161.081 89.0635 160.977C88.7515 160.873 88.5262 160.699 88.3875 160.457C88.2662 160.197 88.1882 159.971 88.1535 159.781C88.1362 159.573 88.1275 159.269 88.1275 158.871V145.819H83.1355C82.5809 145.819 82.1735 145.758 81.9135 145.637C81.6535 145.498 81.4802 145.29 81.3935 145.013C81.3069 144.735 81.2635 144.371 81.2635 143.921C81.2635 143.47 81.3069 143.115 81.3935 142.855C81.4802 142.577 81.6275 142.387 81.8355 142.283C82.1475 142.127 82.5895 142.049 83.1615 142.049ZM108.586 141.841C111.152 141.841 113.379 142.768 115.268 144.623C117.158 146.477 118.102 148.783 118.102 151.539C118.102 154.277 117.201 156.617 115.398 158.559C113.596 160.483 111.377 161.445 108.742 161.445C106.108 161.445 103.863 160.491 102.008 158.585C100.171 156.678 99.2523 154.407 99.2523 151.773C99.2523 150.334 99.5123 148.991 100.032 147.743C100.552 146.477 101.246 145.42 102.112 144.571C102.979 143.721 103.976 143.054 105.102 142.569C106.229 142.083 107.39 141.841 108.586 141.841ZM103.854 151.643C103.854 153.185 104.348 154.442 105.336 155.413C106.342 156.366 107.46 156.843 108.69 156.843C109.921 156.843 111.03 156.375 112.018 155.439C113.006 154.503 113.5 153.246 113.5 151.669C113.5 150.091 112.998 148.826 111.992 147.873C111.004 146.919 109.895 146.443 108.664 146.443C107.434 146.443 106.324 146.928 105.336 147.899C104.348 148.852 103.854 150.1 103.854 151.643ZM132.36 142.881C132.534 142.569 132.785 142.361 133.114 142.257C133.444 142.153 133.851 142.101 134.336 142.101C134.839 142.101 135.238 142.144 135.532 142.231C135.844 142.317 136.07 142.421 136.208 142.543C136.364 142.664 136.477 142.846 136.546 143.089C136.65 143.366 136.702 143.808 136.702 144.415V158.845C136.702 159.261 136.685 159.564 136.65 159.755C136.633 159.945 136.555 160.171 136.416 160.431C136.174 160.899 135.498 161.133 134.388 161.133C133.712 161.133 133.244 161.081 132.984 160.977C132.724 160.873 132.508 160.708 132.334 160.483C128.434 155.283 125.869 151.885 124.638 150.291V158.845C124.638 159.261 124.621 159.564 124.586 159.755C124.569 159.945 124.491 160.171 124.352 160.431C124.11 160.899 123.434 161.133 122.324 161.133C121.25 161.133 120.591 160.899 120.348 160.431C120.21 160.171 120.123 159.937 120.088 159.729C120.071 159.521 120.062 159.217 120.062 158.819V144.311C120.062 143.652 120.14 143.175 120.296 142.881C120.47 142.569 120.721 142.361 121.05 142.257C121.38 142.153 121.804 142.101 122.324 142.101C122.844 142.101 123.252 142.153 123.546 142.257C123.858 142.343 124.075 142.447 124.196 142.569C124.266 142.621 124.465 142.846 124.794 143.245C128.452 148.219 130.896 151.504 132.126 153.099V144.311C132.126 143.652 132.204 143.175 132.36 142.881Z" fill="#D03801"/>
<path d="M81.4822 177.399C81.4822 175.959 81.9862 174.771 82.9942 173.835C84.0022 172.899 85.1542 172.431 86.4502 172.431C87.7462 172.431 88.8922 172.899 89.8882 173.835C90.8842 174.759 91.3822 175.941 91.3822 177.381C91.3822 178.377 91.1242 179.265 90.6082 180.045C90.0922 180.813 89.4622 181.383 88.7182 181.755C87.9862 182.115 87.2242 182.295 86.4322 182.295C85.6402 182.295 84.8722 182.103 84.1282 181.719C83.3842 181.323 82.7542 180.747 82.2382 179.991C81.7342 179.223 81.4822 178.359 81.4822 177.399ZM85.2442 178.695C85.6282 178.983 86.0182 179.127 86.4142 179.127C86.8102 179.127 87.2062 178.977 87.6022 178.677C87.9982 178.377 88.1962 177.933 88.1962 177.345C88.1962 176.757 88.0102 176.319 87.6382 176.031C87.2662 175.743 86.8642 175.599 86.4322 175.599C86.0002 175.599 85.5982 175.749 85.2262 176.049C84.8542 176.349 84.6682 176.793 84.6682 177.381C84.6682 177.957 84.8602 178.395 85.2442 178.695ZM97.9176 172.665C98.7456 172.665 99.2316 172.893 99.3756 173.349C99.4476 173.577 99.4836 173.877 99.4836 174.249C99.4836 174.621 99.4416 174.921 99.3576 175.149C99.2856 175.365 99.1656 175.521 98.9976 175.617C98.7456 175.761 98.3796 175.833 97.8996 175.833L96.7476 175.761V180.585C96.7476 181.041 96.6876 181.383 96.5676 181.611C96.4596 181.827 96.2856 181.971 96.0456 182.043C95.8176 182.115 95.5176 182.151 95.1456 182.151C94.7736 182.151 94.4736 182.115 94.2456 182.043C94.0296 181.959 93.8736 181.833 93.7776 181.665C93.6816 181.485 93.6216 181.323 93.5976 181.179C93.5856 181.035 93.5796 180.825 93.5796 180.549V175.779H92.9316C92.6196 175.755 92.3976 175.683 92.2656 175.563C92.0376 175.335 91.9236 174.897 91.9236 174.249C91.9236 173.265 92.2776 172.773 92.9856 172.773H93.5796V171.819C93.5796 170.895 93.9096 170.061 94.5696 169.317C95.2296 168.561 96.1836 168.183 97.4316 168.183C97.7076 168.183 97.9116 168.195 98.0436 168.219C98.1876 168.231 98.3496 168.285 98.5296 168.381C98.8536 168.537 99.0156 168.999 99.0156 169.767C99.0156 170.343 98.9136 170.757 98.7096 171.009C98.5416 171.201 98.2776 171.309 97.9176 171.333C97.8096 171.333 97.6416 171.333 97.4136 171.333C96.9696 171.333 96.7476 171.483 96.7476 171.783V172.773L97.9176 172.665ZM114.786 175.059C115.494 175.899 115.848 176.841 115.848 177.885C115.824 179.085 115.41 180.093 114.606 180.909C113.814 181.713 112.848 182.115 111.708 182.115H106.974C106.134 182.115 105.642 181.887 105.498 181.431C105.426 181.227 105.39 180.915 105.39 180.495V170.505C105.39 170.217 105.396 170.007 105.408 169.875C105.432 169.743 105.492 169.587 105.588 169.407C105.756 169.083 106.224 168.921 106.992 168.921H111.528C112.632 168.921 113.556 169.305 114.3 170.073C115.08 170.853 115.47 171.789 115.47 172.881C115.47 173.673 115.242 174.399 114.786 175.059ZM112.662 177.705C112.662 177.417 112.626 177.189 112.554 177.021C112.494 176.853 112.386 176.733 112.23 176.661C111.99 176.565 111.654 176.517 111.222 176.517C110.79 176.517 110.466 176.433 110.25 176.265C110.034 176.097 109.926 175.755 109.926 175.239C109.926 174.711 110.034 174.363 110.25 174.195C110.478 174.027 110.85 173.943 111.366 173.943C111.846 173.943 112.134 173.817 112.23 173.565C112.266 173.433 112.284 173.217 112.284 172.917C112.284 172.617 112.182 172.407 111.978 172.287C111.786 172.167 111.492 172.107 111.096 172.107H108.576V178.929H111.528C112.284 178.929 112.662 178.521 112.662 177.705ZM126.351 176.265C126.351 176.997 126.165 177.543 125.793 177.903C125.433 178.251 125.031 178.425 124.587 178.425H120.321C120.321 178.761 120.519 179.043 120.915 179.271C121.311 179.499 121.707 179.613 122.103 179.613C122.799 179.613 123.345 179.541 123.741 179.397L123.939 179.325C124.227 179.193 124.467 179.127 124.659 179.127C125.043 179.127 125.373 179.397 125.649 179.937C125.805 180.261 125.883 180.537 125.883 180.765C125.883 181.833 124.605 182.367 122.049 182.367C121.161 182.367 120.369 182.217 119.673 181.917C118.989 181.605 118.455 181.197 118.071 180.693C117.315 179.721 116.937 178.635 116.937 177.435C116.937 175.923 117.423 174.717 118.395 173.817C119.379 172.905 120.603 172.449 122.067 172.449C123.735 172.449 124.959 173.037 125.739 174.213C126.147 174.837 126.351 175.521 126.351 176.265ZM122.553 176.787C123.009 176.787 123.237 176.595 123.237 176.211C123.237 175.935 123.129 175.713 122.913 175.545C122.709 175.377 122.409 175.293 122.013 175.293C121.629 175.293 121.245 175.455 120.861 175.779C120.477 176.091 120.285 176.427 120.285 176.787H122.553ZM132.979 172.647C134.179 172.647 135.175 173.109 135.967 174.033C136.771 174.945 137.173 176.061 137.173 177.381V180.549C137.173 180.825 137.161 181.035 137.137 181.179C137.125 181.311 137.077 181.461 136.993 181.629C136.825 181.953 136.357 182.115 135.589 182.115C134.737 182.115 134.245 181.893 134.113 181.449C134.041 181.245 134.005 180.939 134.005 180.531V177.363C134.005 176.871 133.861 176.487 133.573 176.211C133.297 175.935 132.919 175.797 132.439 175.797C131.971 175.797 131.587 175.941 131.287 176.229C130.999 176.517 130.855 176.895 130.855 177.363V180.549C130.855 180.825 130.843 181.035 130.819 181.179C130.807 181.311 130.753 181.461 130.657 181.629C130.501 181.953 130.039 182.115 129.271 182.115C128.515 182.115 128.053 181.953 127.885 181.629C127.801 181.449 127.747 181.293 127.723 181.161C127.711 181.017 127.705 180.807 127.705 180.531V174.159C127.705 173.895 127.711 173.697 127.723 173.565C127.747 173.421 127.807 173.265 127.903 173.097C128.071 172.797 128.533 172.647 129.289 172.647C130.021 172.647 130.471 172.785 130.639 173.061C130.759 173.265 130.819 173.511 130.819 173.799C130.867 173.715 130.975 173.595 131.143 173.439C131.311 173.283 131.473 173.157 131.629 173.061C132.037 172.785 132.487 172.647 132.979 172.647ZM147.945 176.265C147.945 176.997 147.759 177.543 147.387 177.903C147.027 178.251 146.625 178.425 146.181 178.425H141.915C141.915 178.761 142.113 179.043 142.509 179.271C142.905 179.499 143.301 179.613 143.697 179.613C144.393 179.613 144.939 179.541 145.335 179.397L145.533 179.325C145.821 179.193 146.061 179.127 146.253 179.127C146.637 179.127 146.967 179.397 147.243 179.937C147.399 180.261 147.477 180.537 147.477 180.765C147.477 181.833 146.199 182.367 143.643 182.367C142.755 182.367 141.963 182.217 141.267 181.917C140.583 181.605 140.049 181.197 139.665 180.693C138.909 179.721 138.531 178.635 138.531 177.435C138.531 175.923 139.017 174.717 139.989 173.817C140.973 172.905 142.197 172.449 143.661 172.449C145.329 172.449 146.553 173.037 147.333 174.213C147.741 174.837 147.945 175.521 147.945 176.265ZM144.147 176.787C144.603 176.787 144.831 176.595 144.831 176.211C144.831 175.935 144.723 175.713 144.507 175.545C144.303 175.377 144.003 175.293 143.607 175.293C143.223 175.293 142.839 175.455 142.455 175.779C142.071 176.091 141.879 176.427 141.879 176.787H144.147ZM154.668 172.665C155.496 172.665 155.982 172.893 156.126 173.349C156.198 173.577 156.234 173.877 156.234 174.249C156.234 174.621 156.192 174.921 156.108 175.149C156.036 175.365 155.916 175.521 155.748 175.617C155.496 175.761 155.13 175.833 154.65 175.833L153.498 175.761V180.585C153.498 181.041 153.438 181.383 153.318 181.611C153.21 181.827 153.036 181.971 152.796 182.043C152.568 182.115 152.268 182.151 151.896 182.151C151.524 182.151 151.224 182.115 150.996 182.043C150.78 181.959 150.624 181.833 150.528 181.665C150.432 181.485 150.372 181.323 150.348 181.179C150.336 181.035 150.33 180.825 150.33 180.549V175.779H149.682C149.37 175.755 149.148 175.683 149.016 175.563C148.788 175.335 148.674 174.897 148.674 174.249C148.674 173.265 149.028 172.773 149.736 172.773H150.33V171.819C150.33 170.895 150.66 170.061 151.32 169.317C151.98 168.561 152.934 168.183 154.182 168.183C154.458 168.183 154.662 168.195 154.794 168.219C154.938 168.231 155.1 168.285 155.28 168.381C155.604 168.537 155.766 168.999 155.766 169.767C155.766 170.343 155.664 170.757 155.46 171.009C155.292 171.201 155.028 171.309 154.668 171.333C154.56 171.333 154.392 171.333 154.164 171.333C153.72 171.333 153.498 171.483 153.498 171.783V172.773L154.668 172.665ZM157.296 174.231C157.296 173.955 157.302 173.751 157.314 173.619C157.338 173.475 157.392 173.313 157.476 173.133C157.644 172.821 158.112 172.665 158.88 172.665C159.456 172.665 159.864 172.767 160.104 172.971C160.308 173.139 160.416 173.397 160.428 173.745C160.44 173.865 160.446 174.039 160.446 174.267V180.567C160.446 180.843 160.434 181.053 160.41 181.197C160.398 181.329 160.344 181.485 160.248 181.665C160.092 181.977 159.63 182.133 158.862 182.133C158.106 182.133 157.644 181.971 157.476 181.647C157.392 181.467 157.338 181.311 157.314 181.179C157.302 181.047 157.296 180.837 157.296 180.549V174.231ZM160.248 170.901C160.164 171.069 160.008 171.189 159.78 171.261C159.552 171.333 159.246 171.369 158.862 171.369C158.49 171.369 158.19 171.333 157.962 171.261C157.734 171.189 157.572 171.063 157.476 170.883C157.392 170.703 157.338 170.547 157.314 170.415C157.302 170.271 157.296 170.061 157.296 169.785C157.296 169.509 157.302 169.305 157.314 169.173C157.338 169.029 157.392 168.873 157.476 168.705C157.644 168.381 158.112 168.219 158.88 168.219C159.636 168.219 160.092 168.381 160.248 168.705C160.344 168.885 160.398 169.047 160.41 169.191C160.434 169.323 160.446 169.527 160.446 169.803C160.446 170.079 160.434 170.289 160.41 170.433C160.398 170.565 160.344 170.721 160.248 170.901ZM167.573 175.833L166.403 175.761V178.245C166.403 178.569 166.451 178.803 166.547 178.947C166.655 179.091 166.847 179.163 167.123 179.163C167.411 179.163 167.627 179.175 167.771 179.199C167.927 179.211 168.089 179.265 168.257 179.361C168.533 179.517 168.671 179.919 168.671 180.567C168.671 181.323 168.503 181.785 168.167 181.953C167.987 182.037 167.825 182.091 167.681 182.115C167.549 182.127 167.351 182.133 167.087 182.133C165.839 182.133 164.891 181.851 164.243 181.287C163.595 180.723 163.271 179.769 163.271 178.425V175.761C163.043 175.797 162.797 175.815 162.533 175.815C162.269 175.815 162.047 175.713 161.867 175.509C161.699 175.305 161.615 174.957 161.615 174.465C161.615 173.973 161.645 173.619 161.705 173.403C161.765 173.175 161.849 173.013 161.957 172.917C162.149 172.761 162.389 172.683 162.677 172.683L163.271 172.755V170.901C163.271 170.625 163.277 170.421 163.289 170.289C163.313 170.157 163.373 170.013 163.469 169.857C163.625 169.557 164.087 169.407 164.855 169.407C165.671 169.407 166.157 169.629 166.313 170.073C166.373 170.265 166.403 170.571 166.403 170.991V172.755C166.931 172.707 167.327 172.683 167.591 172.683C167.867 172.683 168.071 172.695 168.203 172.719C168.347 172.731 168.509 172.785 168.689 172.881C169.001 173.037 169.157 173.499 169.157 174.267C169.157 175.023 168.995 175.485 168.671 175.653C168.491 175.737 168.329 175.791 168.185 175.815C168.053 175.827 167.849 175.833 167.573 175.833ZM170.403 181.287C170.175 181.143 170.061 180.915 170.061 180.603C170.061 180.291 170.289 179.817 170.745 179.181C170.877 178.977 171.087 178.875 171.375 178.875C171.675 178.875 172.077 179.025 172.581 179.325C173.085 179.613 173.541 179.757 173.949 179.757C174.681 179.757 175.047 179.613 175.047 179.325C175.047 179.097 174.645 178.929 173.841 178.821C173.085 178.713 172.335 178.431 171.591 177.975C171.243 177.759 170.955 177.423 170.727 176.967C170.499 176.499 170.385 175.947 170.385 175.311C170.385 173.415 171.687 172.467 174.291 172.467C175.143 172.467 176.019 172.671 176.919 173.079C177.339 173.271 177.549 173.511 177.549 173.799C177.549 174.087 177.417 174.441 177.153 174.861C176.889 175.281 176.619 175.491 176.343 175.491C176.199 175.491 175.929 175.401 175.533 175.221C175.149 175.041 174.729 174.951 174.273 174.951C173.565 174.951 173.211 175.083 173.211 175.347C173.211 175.707 173.619 175.941 174.435 176.049C175.227 176.133 175.995 176.361 176.739 176.733C177.087 176.901 177.375 177.195 177.603 177.615C177.843 178.023 177.963 178.539 177.963 179.163C177.963 179.787 177.843 180.321 177.603 180.765C177.375 181.197 177.051 181.521 176.631 181.737C175.863 182.109 174.897 182.295 173.733 182.295C172.581 182.295 171.471 181.959 170.403 181.287ZM179.498 179.397C179.618 179.157 179.798 178.995 180.038 178.911C180.29 178.827 180.674 178.785 181.19 178.785C181.718 178.785 182.096 178.899 182.324 179.127C182.564 179.355 182.684 179.715 182.684 180.207V180.495C182.684 180.783 182.672 180.999 182.648 181.143C182.636 181.275 182.582 181.437 182.486 181.629C182.294 181.977 181.832 182.151 181.1 182.151C180.38 182.151 179.9 182.037 179.66 181.809C179.432 181.569 179.318 181.113 179.318 180.441C179.318 179.973 179.378 179.625 179.498 179.397ZM181.91 177.291C181.682 177.351 181.376 177.381 180.992 177.381C180.608 177.381 180.302 177.351 180.074 177.291C179.846 177.231 179.684 177.123 179.588 176.967C179.504 176.811 179.45 176.673 179.426 176.553C179.414 176.433 179.408 176.247 179.408 175.995V170.289C179.408 170.037 179.414 169.851 179.426 169.731C179.45 169.599 179.51 169.455 179.606 169.299C179.702 169.143 179.864 169.035 180.092 168.975C180.32 168.903 180.626 168.867 181.01 168.867C181.394 168.867 181.7 168.903 181.928 168.975C182.156 169.035 182.312 169.149 182.396 169.317C182.492 169.473 182.546 169.617 182.558 169.749C182.582 169.869 182.594 170.055 182.594 170.307V176.013C182.594 176.265 182.582 176.451 182.558 176.571C182.546 176.691 182.492 176.829 182.396 176.985C182.3 177.129 182.138 177.231 181.91 177.291Z" fill="#494949"/>
</svg>
