<svg width="68" height="22" viewBox="0 0 68 22" fill="none" xmlns="http://www.w3.org/2000/svg">
<path d="M4.66663 5.16666V16.8333C4.66853 17.1053 4.73695 17.3726 4.8659 17.612C4.99485 17.8514 5.18042 18.0556 5.40643 18.2068C5.63243 18.3581 5.89201 18.4517 6.16251 18.4795C6.433 18.5074 6.70621 18.4686 6.95829 18.3667L17.1666 12.45C17.4271 12.3059 17.6443 12.0946 17.7955 11.8381C17.9467 11.5817 18.0264 11.2894 18.0264 10.9917C18.0264 10.6939 17.9467 10.4017 17.7955 10.1452C17.6443 9.88874 17.4271 9.67746 17.1666 9.53333L6.95829 3.61666C6.71198 3.51661 6.44531 3.47694 6.18054 3.50095C5.91577 3.52497 5.66058 3.61197 5.43629 3.75471C5.212 3.89744 5.0251 4.09175 4.89121 4.32143C4.75732 4.55111 4.68031 4.80949 4.66663 5.075" stroke="#FCD9BD" stroke-width="2" stroke-linecap="round" stroke-linejoin="round"/>
<path d="M34.0376 9.11719C33.9912 8.683 33.7957 8.34493 33.451 8.10298C33.1096 7.86103 32.6655 7.74006 32.1186 7.74006C31.7341 7.74006 31.4044 7.79806 31.1293 7.91406C30.8542 8.03007 30.6437 8.1875 30.4979 8.38636C30.352 8.58523 30.2775 8.81226 30.2741 9.06747C30.2741 9.27959 30.3222 9.46354 30.4183 9.61932C30.5178 9.77509 30.652 9.90767 30.821 10.017C30.9901 10.1231 31.1773 10.2126 31.3828 10.2855C31.5883 10.3584 31.7955 10.4197 32.0043 10.4695L32.9588 10.7081C33.3433 10.7976 33.7128 10.9186 34.0675 11.071C34.4254 11.2235 34.7453 11.4157 35.027 11.6477C35.312 11.8797 35.5374 12.1598 35.7031 12.4879C35.8688 12.8161 35.9517 13.2005 35.9517 13.6413C35.9517 14.2379 35.7992 14.7633 35.4943 15.2173C35.1894 15.6681 34.7486 16.0211 34.1719 16.2763C33.5985 16.5282 32.9041 16.6541 32.0888 16.6541C31.2966 16.6541 30.6089 16.5315 30.0256 16.2862C29.4455 16.041 28.9915 15.683 28.6634 15.2124C28.3385 14.7417 28.1629 14.1683 28.1364 13.4922H29.951C29.9775 13.8468 30.0869 14.1418 30.2791 14.3771C30.4714 14.6125 30.7216 14.7881 31.0298 14.9041C31.3414 15.0201 31.6894 15.0781 32.0739 15.0781C32.4749 15.0781 32.8262 15.0185 33.1278 14.8991C33.4328 14.7765 33.6714 14.6075 33.8438 14.392C34.0161 14.1733 34.1039 13.9181 34.1072 13.6264C34.1039 13.3613 34.026 13.1425 33.8736 12.9702C33.7211 12.7945 33.5073 12.6487 33.2322 12.5327C32.9605 12.4134 32.6423 12.3073 32.2777 12.2145L31.1193 11.9162C30.2808 11.7008 29.6179 11.3743 29.1307 10.9368C28.6468 10.496 28.4048 9.91098 28.4048 9.18182C28.4048 8.58191 28.5672 8.05658 28.892 7.60582C29.2202 7.15507 29.666 6.8054 30.2294 6.55682C30.7929 6.30492 31.4309 6.17898 32.1435 6.17898C32.866 6.17898 33.4991 6.30492 34.0426 6.55682C34.5895 6.8054 35.0187 7.15175 35.3303 7.59588C35.6418 8.03669 35.8026 8.5438 35.8125 9.11719H34.0376ZM41.3297 8.86364V10.2557H36.9398V8.86364H41.3297ZM38.0236 7.03409H39.8233V14.2031C39.8233 14.4451 39.8598 14.6307 39.9327 14.7599C40.0089 14.8859 40.1084 14.9721 40.231 15.0185C40.3536 15.0649 40.4895 15.0881 40.6387 15.0881C40.7514 15.0881 40.8541 15.0798 40.9469 15.0632C41.043 15.0466 41.1159 15.0317 41.1657 15.0185L41.4689 16.4254C41.3728 16.4586 41.2353 16.495 41.0563 16.5348C40.8806 16.5746 40.6652 16.5978 40.41 16.6044C39.9592 16.6177 39.5532 16.5497 39.1919 16.4006C38.8307 16.2481 38.544 16.0128 38.3319 15.6946C38.123 15.3764 38.0203 14.9787 38.0236 14.5014V7.03409ZM45.0323 16.6541C44.5484 16.6541 44.1126 16.5679 43.7248 16.3956C43.3403 16.2199 43.0354 15.9614 42.81 15.62C42.5879 15.2786 42.4769 14.8577 42.4769 14.3572C42.4769 13.9264 42.5565 13.5701 42.7156 13.2884C42.8746 13.0066 43.0917 12.7812 43.3668 12.6122C43.6419 12.4432 43.9518 12.3156 44.2965 12.2294C44.6445 12.1399 45.0041 12.0753 45.3754 12.0355C45.8228 11.9891 46.1857 11.9477 46.4641 11.9112C46.7425 11.8714 46.9447 11.8118 47.0707 11.7322C47.1999 11.6494 47.2646 11.5218 47.2646 11.3494V11.3196C47.2646 10.9451 47.1535 10.6551 46.9315 10.4496C46.7094 10.2441 46.3896 10.1413 45.9719 10.1413C45.5311 10.1413 45.1815 10.2375 44.9229 10.4297C44.6677 10.6219 44.4954 10.849 44.4059 11.1108L42.7255 10.8722C42.8581 10.4081 43.0768 10.0204 43.3817 9.70881C43.6867 9.39394 44.0595 9.15862 44.5004 9.00284C44.9412 8.84375 45.4284 8.7642 45.962 8.7642C46.3299 8.7642 46.6961 8.80729 47.0607 8.89347C47.4253 8.97964 47.7584 9.12216 48.06 9.32102C48.3616 9.51657 48.6036 9.78338 48.7859 10.1214C48.9715 10.4595 49.0643 10.8821 49.0643 11.3892V16.5H47.3342V15.451H47.2745C47.1651 15.6631 47.011 15.862 46.8121 16.0476C46.6166 16.2299 46.3697 16.3774 46.0714 16.4901C45.7764 16.5994 45.43 16.6541 45.0323 16.6541ZM45.4996 15.3317C45.8609 15.3317 46.1741 15.2604 46.4393 15.1179C46.7044 14.9721 46.9083 14.7798 47.0508 14.5412C47.1966 14.3026 47.2695 14.0424 47.2695 13.7607V12.8608C47.2132 12.9072 47.1171 12.9503 46.9812 12.9901C46.8486 13.0298 46.6995 13.0646 46.5337 13.0945C46.368 13.1243 46.204 13.1508 46.0415 13.174C45.8791 13.1972 45.7383 13.2171 45.619 13.2337C45.3505 13.2701 45.1102 13.3298 44.8981 13.4126C44.686 13.4955 44.5186 13.6115 44.396 13.7607C44.2733 13.9065 44.212 14.0954 44.212 14.3274C44.212 14.6589 44.333 14.9091 44.5749 15.0781C44.8169 15.2472 45.1251 15.3317 45.4996 15.3317ZM50.8739 16.5V8.86364H52.619V10.1364H52.6985C52.8377 9.69555 53.0763 9.35582 53.4144 9.11719C53.7558 8.87524 54.1452 8.75426 54.5827 8.75426C54.6822 8.75426 54.7932 8.75923 54.9158 8.76918C55.0418 8.7758 55.1462 8.7874 55.229 8.80398V10.4595C55.1528 10.433 55.0318 10.4098 54.8661 10.3899C54.7037 10.3667 54.5463 10.3551 54.3938 10.3551C54.0657 10.3551 53.7707 10.4264 53.5089 10.5689C53.2504 10.7081 53.0465 10.902 52.8974 11.1506C52.7482 11.3991 52.6737 11.6858 52.6737 12.0107V16.5H50.8739ZM60.6481 8.86364V10.2557H56.2582V8.86364H60.6481ZM57.342 7.03409H59.1417V14.2031C59.1417 14.4451 59.1781 14.6307 59.2511 14.7599C59.3273 14.8859 59.4267 14.9721 59.5494 15.0185C59.672 15.0649 59.8079 15.0881 59.957 15.0881C60.0697 15.0881 60.1725 15.0798 60.2653 15.0632C60.3614 15.0466 60.4343 15.0317 60.484 15.0185L60.7873 16.4254C60.6912 16.4586 60.5536 16.495 60.3746 16.5348C60.199 16.5746 59.9835 16.5978 59.7283 16.6044C59.2776 16.6177 58.8716 16.5497 58.5103 16.4006C58.149 16.2481 57.8623 16.0128 57.6502 15.6946C57.4414 15.3764 57.3387 14.9787 57.342 14.5014V7.03409Z" fill="#FCD9BD"/>
</svg>
