<svg width="24" height="25" viewBox="0 0 24 25" fill="none" xmlns="http://www.w3.org/2000/svg">
<path d="M12 2.5C6.48 2.5 2 6.98 2 12.5C2 18.02 6.48 22.5 12 22.5C17.52 22.5 22 18.02 22 12.5C22 6.98 17.52 2.5 12 2.5ZM9.5 15.17V9.83C9.5 9.04 10.38 8.56 11.04 8.99L15.19 11.66C15.3303 11.7507 15.4457 11.875 15.5256 12.0218C15.6055 12.1685 15.6474 12.3329 15.6474 12.5C15.6474 12.6671 15.6055 12.8315 15.5256 12.9782C15.4457 13.125 15.3303 13.2493 15.19 13.34L11.04 16.01C10.38 16.44 9.5 15.96 9.5 15.17Z" fill="#1E429F"/>
</svg>
